# Blender 5.0.1
# www.blender.org
mtllib brazoIzqFemenino3.mtl
o brazoIzq
v 9.291952 3.437061 -36.844864
v 9.190481 3.509738 -36.858116
v 9.085879 3.452466 -36.857285
v 9.086483 3.349816 -36.905975
v 9.294593 3.345019 -36.880367
v 9.185510 3.298558 -36.943684
v 9.241764 2.957751 -36.761589
v 9.190320 2.961613 -36.734985
v 9.126591 2.957210 -36.763279
v 9.125433 2.945755 -36.837982
v 9.244016 2.946381 -36.825489
v 9.186813 2.940607 -36.863232
v 9.252371 2.883193 -36.734089
v 9.191197 2.887316 -36.705307
v 9.115415 2.882549 -36.736095
v 9.113712 2.869284 -36.821510
v 9.255049 2.869671 -36.810070
v 9.187028 2.861110 -36.865295
v 9.230092 2.325534 -36.682655
v 9.189355 2.328592 -36.661591
v 9.138888 2.325105 -36.683994
v 9.136776 2.317469 -36.735577
v 9.231874 2.316530 -36.733257
v 9.186578 2.314176 -36.749619
v 9.186920 2.901561 -36.859982
v 9.119573 2.907520 -36.829746
v 9.121002 2.919879 -36.749687
v 9.190759 2.924699 -36.718719
v 9.247067 2.920472 -36.747837
v 9.249532 2.908026 -36.817780
v 9.243462 2.598343 -36.775455
v 9.186803 2.593318 -36.808613
v 9.241232 2.609606 -36.712166
v 9.127151 2.609069 -36.713837
v 9.190276 2.613431 -36.685814
v 9.125254 2.598558 -36.782417
v 9.237668 2.457437 -36.754356
v 9.235662 2.467570 -36.697411
v 9.133019 2.467088 -36.698914
v 9.186690 2.453009 -36.783619
v 9.189816 2.471012 -36.673702
v 9.131015 2.458014 -36.758995
v 9.186915 2.731286 -36.847885
v 9.190737 2.755850 -36.697926
v 9.119492 2.739103 -36.805836
v 9.249255 2.739250 -36.796555
v 9.246801 2.751642 -36.726917
v 9.121283 2.751051 -36.728760
v 9.262380 3.081695 -36.769611
v 9.254757 3.068230 -36.845276
v 9.108898 3.081053 -36.771610
v 9.191175 3.089334 -36.728535
v 9.187022 3.061266 -36.892704
v 9.114446 3.067259 -36.859859
v 9.267572 3.201091 -36.859840
v 9.192193 3.223813 -36.733761
v 9.101315 3.199852 -36.876720
v 9.282948 3.217053 -36.770138
v 9.095918 3.216293 -36.772507
v 9.187271 3.192128 -36.920013
v 9.121590 2.218115 -36.718002
v 9.123438 2.226274 -36.672134
v 9.253097 2.226771 -36.670582
v 9.186722 2.217695 -36.715073
v 9.189944 2.232487 -36.649181
v 9.255166 2.218310 -36.717178
v 9.140827 2.271338 -36.725777
v 9.142901 2.278545 -36.676403
v 9.226283 2.278937 -36.675179
v 9.186501 2.268636 -36.735893
v 9.189039 2.281733 -36.655922
v 9.227913 2.270245 -36.724251
v 9.093492 2.050548 -36.680058
v 9.275381 2.060082 -36.643250
v 9.188975 2.063248 -36.621433
v 9.185753 2.050128 -36.677128
v 9.277451 2.053293 -36.679649
v 9.095340 2.057034 -36.644386
v 9.081775 2.190259 -36.666229
v 9.270346 2.161897 -36.707928
v 9.186399 2.161282 -36.705826
v 9.189622 2.176074 -36.639935
v 9.268276 2.170358 -36.661331
v 9.079926 2.182100 -36.712097
v 9.087355 2.086166 -36.696369
v 9.089203 2.094325 -36.650497
v 9.275704 2.116495 -36.652500
v 9.277774 2.108034 -36.699097
v 9.189299 2.119661 -36.630684
v 9.186076 2.104869 -36.696575
v 9.277128 2.011849 -36.672142
v 9.188653 2.016501 -36.617157
v 9.185430 2.008481 -36.669903
v 9.275059 2.015209 -36.639164
v 9.095016 2.012269 -36.640556
v 9.093168 2.009149 -36.672783
v 9.045814 2.144136 -36.703800
v 9.046970 2.153226 -36.658081
v 9.065169 2.100380 -36.649418
v 9.064013 2.091290 -36.695137
v 9.000448 2.044523 -36.666988
v 9.000740 2.046813 -36.655472
v 9.019207 2.041882 -36.654663
v 9.018915 2.039591 -36.666180
v 9.269279 1.972005 -36.665264
v 9.188403 1.971005 -36.616051
v 9.185456 1.968728 -36.663548
v 9.267388 1.971937 -36.636181
v 9.102808 1.969397 -36.637726
v 9.101118 1.969612 -36.666103
v 9.247191 1.926585 -36.665741
v 9.181445 1.925739 -36.624516
v 9.179050 1.923922 -36.664345
v 9.245654 1.926496 -36.640881
v 9.111864 1.924432 -36.642139
v 9.110491 1.924640 -36.666424
v 9.223037 1.884997 -36.665493
v 9.174422 1.884338 -36.633831
v 9.172651 1.883028 -36.664463
v 9.221900 1.884898 -36.645931
v 9.122972 1.883372 -36.646858
v 9.121957 1.883558 -36.665997
v 9.199615 1.857646 -36.666882
v 9.169925 1.857135 -36.643600
v 9.168843 1.856444 -36.666252
v 9.198921 1.857476 -36.650990
v 9.138501 1.856544 -36.651558
v 9.137881 1.856768 -36.667191
v 9.052142 2.071374 -36.685043
v 9.013129 2.088068 -36.687782
v 9.013177 2.095361 -36.652599
v 9.052191 2.078667 -36.649860
v 9.273980 3.285851 -36.872997
v 9.193080 3.456233 -36.808613
v 9.094788 3.283996 -36.891075
v 9.280861 3.331393 -36.791203
v 9.089427 3.329861 -36.793251
v 9.187395 3.281984 -36.931950
vn 0.7809 0.6191 -0.0830
vn 0.0699 0.9949 -0.0727
vn -0.7176 0.6846 -0.1278
vn -0.6868 0.0681 -0.7236
vn 0.8107 0.0192 -0.5852
vn 0.0508 -0.0555 -0.9972
vn 0.8696 0.0968 0.4842
vn 0.0260 0.1939 0.9807
vn -0.8567 0.1100 0.5039
vn -0.8170 -0.0935 -0.5690
vn 0.8710 -0.0762 -0.4853
vn 0.0941 -0.1661 -0.9816
vn 0.8259 0.1399 0.5462
vn 0.0291 0.2030 0.9787
vn -0.8147 0.1426 0.5621
vn -0.8852 0.0015 -0.4653
vn 0.9170 0.0073 -0.3988
vn 0.0693 -0.0656 -0.9954
vn 0.8515 0.0168 0.5241
vn 0.0305 0.1023 0.9943
vn -0.8355 0.0201 0.5491
vn -0.8179 -0.1731 -0.5488
vn 0.8371 -0.1619 -0.5225
vn 0.0373 -0.2306 -0.9723
vn 0.0873 -0.0442 -0.9952
vn -0.8431 0.0609 -0.5342
vn -0.8198 0.2931 0.4919
vn 0.0270 0.3849 0.9225
vn 0.8320 0.2847 0.4762
vn 0.8875 0.0685 -0.4557
vn 0.8875 -0.1157 -0.4460
vn 0.0625 -0.2022 -0.9774
vn 0.8449 0.0224 0.5345
vn -0.8309 0.0248 0.5558
vn 0.0297 0.0846 0.9960
vn -0.8563 -0.1302 -0.4997
vn 0.8667 -0.1184 -0.4846
vn -0.8294 0.0252 0.5581
vn 0.0505 -0.1905 -0.9804
vn -0.8400 -0.1304 -0.5267
vn 0.0648 -0.1817 -0.9812
vn 0.0291 0.0648 0.9975
vn -0.8685 -0.1165 -0.4819
vn 0.9020 -0.1027 -0.4194
vn 0.8459 0.0101 0.5333
vn -0.8337 0.0117 0.5521
vn 0.8705 -0.0930 0.4832
vn 0.8607 -0.1656 -0.4814
vn -0.8561 -0.0715 0.5118
vn 0.0149 -0.0192 0.9997
vn 0.0912 -0.2073 -0.9740
vn -0.8237 -0.1732 -0.5399
vn 0.8633 -0.1250 -0.4890
vn 0.0073 0.1306 0.9914
vn -0.8374 -0.1414 -0.5279
vn 0.8514 0.0291 0.5237
vn -0.8194 0.0339 0.5722
vn 0.0886 -0.1778 -0.9801
vn -0.5252 0.1843 -0.8308
vn -0.6564 0.4619 0.5965
vn 0.7820 0.3419 0.5211
vn 0.0062 -0.2077 -0.9782
vn 0.0200 0.2198 0.9753
vn 0.6935 0.1288 -0.7088
vn -0.7342 -0.1049 -0.6707
vn -0.7750 0.1650 0.6100
vn 0.7773 0.2037 0.5952
vn 0.0205 -0.2514 -0.9677
vn 0.0147 0.1611 0.9868
vn 0.7209 -0.0663 -0.6899
vn -0.7234 -0.2539 -0.6420
vn 0.7658 0.0785 0.6382
vn 0.0039 0.1217 0.9926
vn 0.0110 -0.2604 -0.9654
vn 0.7494 -0.1773 -0.6379
vn -0.7441 0.0382 0.6670
vn -0.5516 0.5818 0.5977
vn 0.7127 0.0324 -0.7008
vn 0.0025 -0.1657 -0.9862
vn 0.0227 0.1988 0.9798
vn 0.7845 0.2340 0.5743
vn -0.4782 0.3551 -0.8032
vn -0.3008 -0.5041 -0.8096
vn -0.4771 -0.1587 0.8644
vn 0.7897 0.1440 0.5964
vn 0.7174 -0.1253 -0.6853
vn 0.0125 0.1594 0.9871
vn 0.0093 -0.2522 -0.9676
vn 0.7427 -0.1794 -0.6451
vn 0.0013 0.0565 0.9984
vn 0.0060 -0.1670 -0.9859
vn 0.7803 -0.0218 0.6250
vn -0.7835 -0.0196 0.6210
vn -0.7398 -0.1740 -0.6500
vn -0.6094 0.2546 -0.7509
vn -0.5558 0.5119 0.6550
vn 0.1811 -0.2650 0.9471
vn 0.0716 -0.5933 -0.8018
vn -0.8017 -0.4534 -0.3894
vn -0.7599 -0.3030 0.5751
vn 0.1847 -0.6580 0.7300
vn 0.1855 -0.9017 -0.3906
vn 0.7251 -0.2954 -0.6220
vn 0.0149 -0.0809 0.9966
vn 0.0040 -0.0704 -0.9975
vn 0.7374 -0.2295 0.6353
vn -0.7388 -0.1456 0.6581
vn -0.7212 -0.2064 -0.6613
vn 0.6222 -0.3260 -0.7118
vn 0.0018 -0.2014 0.9795
vn 0.0046 0.0095 -0.9999
vn 0.6756 -0.4173 0.6078
vn -0.7474 -0.2398 0.6196
vn -0.6958 -0.1683 -0.6983
vn 0.5813 -0.4033 -0.7068
vn -0.0011 -0.2752 0.9614
vn 0.0044 0.0347 -0.9994
vn 0.6302 -0.5090 0.5863
vn -0.7178 -0.3666 0.5920
vn -0.6781 -0.2805 -0.6793
vn 0.3216 -0.6078 -0.7261
vn -0.0116 -0.7271 0.6864
vn 0.0155 -0.5960 -0.8028
vn 0.4008 -0.7761 0.4868
vn -0.4605 -0.7351 0.4976
vn -0.3852 -0.5968 -0.7039
vn 0.5101 -0.6324 -0.5829
vn -0.7185 0.0373 -0.6945
vn -0.7000 0.2844 0.6551
vn 0.5040 -0.3601 0.7851
vn 0.8668 -0.1852 -0.4630
vn 0.0098 0.4598 0.8880
vn -0.8439 -0.1764 -0.5067
vn 0.7823 0.1593 0.6022
vn -0.7946 0.1721 0.5822
vn 0.1043 -0.2845 -0.9530
vt 0.124648 0.735878
vt 0.105234 0.738017
vt 0.102561 0.708840
vt 0.121739 0.708460
vt 0.084550 0.738057
vt 0.061456 0.737654
vt 0.063179 0.708854
vt 0.084613 0.709688
vt 0.038712 0.736433
vt 0.018626 0.733531
vt 0.023234 0.707761
vt 0.041271 0.708787
vt 0.146024 0.733046
vt 0.140278 0.707392
vt 0.042818 0.700262
vt 0.023360 0.699736
vt 0.022375 0.691182
vt 0.044316 0.691992
vt 0.064220 0.699687
vt 0.065172 0.691369
vt 0.101388 0.699617
vt 0.084503 0.699672
vt 0.084467 0.690964
vt 0.100311 0.691313
vt 0.140062 0.699442
vt 0.120275 0.699818
vt 0.118941 0.691534
vt 0.141318 0.690992
vt 0.128181 0.602457
vt 0.112737 0.604305
vt 0.109195 0.574247
vt 0.121711 0.572221
vt 0.097560 0.605318
vt 0.095865 0.574976
vt 0.083974 0.605424
vt 0.067623 0.605378
vt 0.069139 0.575074
vt 0.083734 0.574965
vt 0.051635 0.604743
vt 0.035731 0.602307
vt 0.042296 0.572120
vt 0.055617 0.574812
vt 0.100562 0.665354
vt 0.084377 0.665374
vt 0.084191 0.635629
vt 0.099171 0.635551
vt 0.064875 0.665369
vt 0.044939 0.665032
vt 0.048074 0.635013
vt 0.066140 0.635597
vt 0.024316 0.663370
vt 0.030518 0.632620
vt 0.118607 0.664592
vt 0.115865 0.634595
vt 0.139527 0.663373
vt 0.133104 0.632789
vt 0.151948 0.760360
vt 0.126514 0.763433
vt 0.105394 0.764282
vt 0.084602 0.763229
vt 0.061864 0.763519
vt 0.037314 0.763619
vt 0.013269 0.760502
vt 0.127361 0.781681
vt 0.105019 0.785158
vt 0.083784 0.807092
vt 0.061041 0.784122
vt 0.036423 0.781055
vt 0.010693 0.779094
vt 0.154790 0.778891
vt 0.009057 0.895877
vt 0.017449 0.887503
vt 0.025413 0.896205
vt 0.012937 0.907274
vt 0.871729 0.159740
vt 0.873431 0.148011
vt 0.884695 0.149679
vt 0.884062 0.162084
vt 0.856291 0.176749
vt 0.863645 0.169280
vt 0.871080 0.176295
vt 0.859797 0.188351
vt 0.026131 0.880924
vt 0.038383 0.884444
vt 0.844624 0.181144
vt 0.849281 0.192913
vt 0.070234 0.565000
vt 0.083603 0.564835
vt 0.094701 0.564911
vt 0.107815 0.564213
vt 0.119111 0.562056
vt 0.057044 0.564775
vt 0.044915 0.562056
vt 0.041148 0.913992
vt 0.058022 0.897793
vt 0.066121 0.906973
vt 0.049333 0.923156
vt 0.887649 0.193095
vt 0.916362 0.178488
vt 0.918341 0.188871
vt 0.895084 0.202561
vt 0.024941 0.933602
vt 0.031776 0.938699
vt 0.870967 0.207471
vt 0.878173 0.215912
vt 0.861034 0.213805
vt 0.870964 0.222001
vt 0.931238 0.179737
vt 0.928368 0.187203
vt 0.049106 0.890678
vt 0.033299 0.905112
vt 0.898031 0.160714
vt 0.879649 0.184439
vt 0.010130 0.919971
vt 0.865174 0.198540
vt 0.854872 0.203896
vt 0.896796 0.149370
vt 0.909495 0.158840
vt 0.918677 0.169872
vt 0.071891 0.913498
vt 0.055114 0.929680
vt 0.921776 0.198612
vt 0.900534 0.210085
vt 0.037541 0.945196
vt 0.883846 0.222440
vt 0.877741 0.228383
vt 0.929901 0.196161
vt 0.010892 0.946375
vt 0.020657 0.942499
vt 0.019316 0.954107
vt 0.015086 0.956382
vt 0.931980 0.174044
vt 0.019874 0.936872
vt 0.009057 0.931751
vt 0.907526 0.148356
vt 0.928543 0.154262
vt 0.930112 0.151660
vt 0.932845 0.157084
vt 0.929316 0.157312
vt 0.924073 0.165005
vt 0.921515 0.155506
vt 0.932087 0.168684
vt 0.920797 0.147833
vt 0.905433 0.217475
vt 0.890312 0.227543
vt 0.885724 0.233693
vt 0.931148 0.205410
vt 0.923744 0.207366
vt 0.075996 0.921037
vt 0.060670 0.935825
vt 0.044592 0.949976
vt 0.911390 0.223852
vt 0.898839 0.232850
vt 0.896423 0.238971
vt 0.932845 0.215794
vt 0.926323 0.216339
vt 0.078084 0.931717
vt 0.065587 0.943718
vt 0.052523 0.955256
vt 0.079228 0.942160
vt 0.069975 0.951024
vt 0.927451 0.224680
vt 0.916890 0.229532
vt 0.060321 0.959566
vt 0.908167 0.236396
vt 0.907473 0.241465
vt 0.932328 0.225540
vt 0.915481 0.237640
vt 0.916132 0.241517
vt 0.929978 0.232426
vt 0.926724 0.230518
vt 0.078567 0.950322
vt 0.072906 0.955732
vt 0.920600 0.233571
vt 0.067010 0.960958
vt 0.157178 0.782745
vt 0.125102 0.795312
vt 0.109115 0.809700
vt 0.082604 0.822948
vt 0.055580 0.811696
vt 0.036295 0.795398
vt 0.009644 0.783476
vt 0.923980 0.238347
vt 0.288798 0.236576
vt 0.267933 0.258130
vt 0.248118 0.251384
vt 0.243950 0.218171
vt 0.265818 0.199223
vt 0.288798 0.207487
s 1
g brazoIzq_cuerpo
usemtl cuerpo
f 50/1/48 49/2/47 7/3/7 11/4/11
f 52/5/50 51/6/49 9/7/9 8/8/8
f 54/9/52 53/10/51 12/11/12 10/12/10
f 51/6/49 54/9/52 10/12/10 9/7/9
f 49/2/47 52/5/50 8/8/8 7/3/7
f 53/13/51 50/1/48 11/4/11 12/14/12
f 26/15/26 25/16/25 18/17/18 16/18/16
f 27/19/27 26/15/26 16/18/16 15/20/15
f 29/21/29 28/22/28 14/23/14 13/24/13
f 25/25/25 30/26/30 17/27/17 18/28/18
f 30/26/30 29/21/29 13/24/13 17/27/17
f 28/22/28 27/19/27 15/20/15 14/23/14
f 40/29/39 37/30/37 23/31/23 24/32/24
f 37/30/37 38/33/33 19/34/19 23/31/23
f 41/35/35 39/36/38 21/37/21 20/38/20
f 42/39/40 40/40/39 24/41/24 22/42/22
f 39/36/38 42/39/40 22/42/22 21/37/21
f 38/33/33 41/35/35 20/38/20 19/34/19
f 8/8/8 9/7/9 27/19/27 28/22/28
f 11/4/11 7/3/7 29/21/29 30/26/30
f 12/14/12 11/4/11 30/26/30 25/25/25
f 7/3/7 8/8/8 28/22/28 29/21/29
f 9/7/9 10/12/10 26/15/26 27/19/27
f 10/12/10 12/11/12 25/16/25 26/15/26
f 47/43/45 44/44/42 35/45/35 33/46/33
f 48/47/46 45/48/43 36/49/36 34/50/34
f 45/48/43 43/51/41 32/52/32 36/49/36
f 44/44/42 48/47/46 34/50/34 35/45/35
f 46/53/44 47/43/45 33/46/33 31/54/31
f 43/55/41 46/53/44 31/54/31 32/56/32
f 33/46/33 35/45/35 41/35/35 38/33/33
f 34/50/34 36/49/36 42/39/40 39/36/38
f 36/49/36 32/52/32 40/40/39 42/39/40
f 35/45/35 34/50/34 39/36/38 41/35/35
f 31/54/31 33/46/33 38/33/33 37/30/37
f 32/56/32 31/54/31 37/30/37 40/29/39
f 18/28/18 17/27/17 46/53/44 43/55/41
f 17/27/17 13/24/13 47/43/45 46/53/44
f 14/23/14 15/20/15 48/47/46 44/44/42
f 16/18/16 18/17/18 43/51/41 45/48/43
f 15/20/15 16/18/16 45/48/43 48/47/46
f 13/24/13 14/23/14 44/44/42 47/43/45
f 60/57/58 55/58/53 50/1/48 53/13/51
f 58/59/56 56/60/54 52/5/50 49/2/47
f 59/61/57 57/62/55 54/9/52 51/6/49
f 57/62/55 60/63/58 53/10/51 54/9/52
f 56/60/54 59/61/57 51/6/49 52/5/50
f 55/58/53 58/59/56 49/2/47 50/1/48
f 133/64/131 136/65/134 58/59/56 55/58/53
f 134/66/132 137/67/135 59/61/57 56/60/54
f 135/68/133 138/69/136 60/63/58 57/62/55
f 137/67/135 135/68/133 57/62/55 59/61/57
f 136/65/134 134/66/132 56/60/54 58/59/56
f 138/70/136 133/64/131 55/58/53 60/57/58
f 67/71/65 70/72/68 64/73/62 61/74/59
f 68/75/66 67/76/65 61/77/59 62/78/60
f 69/79/67 71/80/69 65/81/63 63/82/61
f 70/72/68 72/83/70 66/84/64 64/73/62
f 72/85/70 69/79/67 63/82/61 66/86/64
f 71/80/69 68/75/66 62/78/60 65/81/63
f 20/38/20 21/37/21 68/87/66 71/88/69
f 23/31/23 19/34/19 69/89/67 72/90/70
f 24/32/24 23/31/23 72/90/70 70/91/68
f 19/34/19 20/38/20 71/88/69 69/89/67
f 21/37/21 22/42/22 67/92/65 68/87/66
f 22/42/22 24/41/24 70/93/68 67/92/65
f 90/94/88 88/95/86 77/96/75 76/97/74
f 89/98/87 86/99/84 78/100/76 75/101/73
f 85/102/83 90/94/88 76/97/74 73/103/71
f 87/104/85 89/98/87 75/101/73 74/105/72
f 88/106/86 87/104/85 74/105/72 77/107/75
f 86/99/84 85/108/83 73/109/71 78/100/76
f 64/73/62 66/84/64 80/110/78 81/111/79
f 65/81/63 62/78/60 79/112/77 82/113/80
f 61/74/59 64/73/62 81/111/79 84/114/82
f 63/82/61 65/81/63 82/113/80 83/115/81
f 66/86/64 63/82/61 83/115/81 80/116/78
f 62/78/60 61/77/59 84/117/82 79/112/77
f 81/111/79 80/110/78 88/95/86 90/94/88
f 82/113/80 79/112/77 86/99/84 89/98/87
f 84/114/82 81/111/79 90/94/88 85/102/83
f 83/115/81 82/113/80 89/98/87 87/104/85
f 80/116/78 83/115/81 87/104/85 88/106/86
f 86/99/84 79/112/77 98/118/96 99/119/97
f 76/97/74 77/96/75 91/120/89 93/121/91
f 75/101/73 78/100/76 95/122/93 92/123/90
f 73/103/71 76/97/74 93/121/91 96/124/94
f 74/105/72 75/101/73 92/123/90 94/125/92
f 77/107/75 74/105/72 94/125/92 91/126/89
f 78/100/76 73/109/71 96/127/94 95/122/93
f 130/128/128 129/129/127 104/130/102 101/131/99
f 85/108/83 86/99/84 99/119/97 100/132/98
f 84/114/82 85/102/83 100/133/98 97/134/95
f 79/112/77 84/117/82 97/135/95 98/118/96
f 102/136/100 101/137/99 104/138/102 103/139/101
f 132/140/130 131/141/129 102/136/100 103/139/101
f 129/142/127 132/140/130 103/139/101 104/138/102
f 131/141/129 130/143/128 101/137/99 102/136/100
f 94/125/92 92/123/90 106/144/104 108/145/106
f 91/126/89 94/125/92 108/145/106 105/146/103
f 95/122/93 96/127/94 110/147/108 109/148/107
f 93/121/91 91/120/89 105/149/103 107/150/105
f 92/123/90 95/122/93 109/148/107 106/144/104
f 96/124/94 93/121/91 107/150/105 110/151/108
f 108/145/106 106/144/104 112/152/110 114/153/112
f 105/146/103 108/145/106 114/153/112 111/154/109
f 109/148/107 110/147/108 116/155/114 115/156/113
f 107/150/105 105/149/103 111/157/109 113/158/111
f 106/144/104 109/148/107 115/156/113 112/152/110
f 110/151/108 107/150/105 113/158/111 116/159/114
f 113/158/111 111/157/109 117/160/115 119/161/117
f 112/152/110 115/156/113 121/162/119 118/163/116
f 116/159/114 113/158/111 119/161/117 122/164/120
f 114/153/112 112/152/110 118/163/116 120/165/118
f 111/154/109 114/153/112 120/165/118 117/166/115
f 115/156/113 116/155/114 122/167/120 121/162/119
f 117/166/115 120/165/118 126/168/124 123/169/121
f 121/162/119 122/167/120 128/170/126 127/171/125
f 119/161/117 117/160/115 123/172/121 125/173/123
f 118/163/116 121/162/119 127/171/125 124/174/122
f 122/164/120 119/161/117 125/173/123 128/175/126
f 120/165/118 118/163/116 124/174/122 126/168/124
f 98/118/96 97/135/95 130/143/128 131/141/129
f 100/132/98 99/119/97 132/140/130 129/142/127
f 99/119/97 98/118/96 131/141/129 132/140/130
f 97/134/95 100/133/98 129/129/127 130/128/128
f 6/176/6 5/177/5 133/64/131 138/70/136
f 1/178/1 2/179/2 134/66/132 136/65/134
f 3/180/3 4/181/4 135/68/133 137/67/135
f 4/181/4 6/182/6 138/69/136 135/68/133
f 2/179/2 3/180/3 137/67/135 134/66/132
f 5/177/5 1/178/1 136/65/134 133/64/131
f 127/171/125 128/170/126 125/183/123 123/169/121 126/168/124 124/174/122
f 2/184/2 1/185/1 5/186/5 6/187/6 4/188/4 3/189/3
