# Blender 5.0.1
# www.blender.org
mtllib piernaIzqFemenino3.mtl
o piernaIzq
v 8.934546 2.582476 -37.028511
v 9.165112 2.679707 -36.952362
v 9.024469 2.661679 -36.925129
v 8.936061 2.476599 -37.105080
v 9.001287 2.340724 -37.199036
v 9.291357 2.610418 -37.015030
v 9.359488 2.468466 -37.094856
v 9.327873 2.328259 -37.192940
v 9.131691 2.325454 -37.193317
v 8.866426 2.283541 -36.916107
v 9.154338 2.282600 -36.831371
v 8.979870 2.283816 -36.831955
v 8.866283 2.282507 -37.071808
v 8.925968 2.276687 -37.201042
v 9.283158 2.287295 -36.915527
v 9.276214 2.280645 -37.073322
v 9.238145 2.279147 -37.201904
v 9.165674 2.278568 -37.202274
v 8.910902 2.392111 -37.079681
v 8.972071 2.314153 -37.197731
v 9.165203 2.543892 -36.880806
v 8.998979 2.542832 -36.849026
v 9.154487 2.307750 -37.195599
v 9.285002 2.309389 -37.195229
v 9.341255 2.392136 -37.085842
v 9.293362 2.483029 -36.988201
v 8.902519 2.485126 -36.958405
v 9.366696 2.398362 -37.143898
v 9.257179 2.283203 -37.147137
v 9.334689 2.343334 -37.141624
v 9.077323 1.485523 -36.938530
v 9.264153 1.482875 -36.906502
v 9.150938 1.483664 -36.906879
v 9.077231 1.484852 -37.039566
v 9.115960 1.483392 -37.126900
v 9.347745 1.487958 -36.938152
v 9.343238 1.483643 -37.040546
v 9.318535 1.484988 -37.127460
v 9.271508 1.484612 -37.127701
v 9.330887 1.485303 -37.088448
v 9.243718 1.883588 -36.953564
v 9.238880 1.878956 -37.063465
v 8.953360 1.880254 -37.062412
v 8.953459 1.880974 -36.953964
v 9.225623 1.880738 -37.114880
v 9.212366 1.880400 -37.156757
v 8.994930 1.878687 -37.156155
v 9.032475 1.881165 -36.895351
v 9.161889 1.879997 -37.157017
v 9.153993 1.880318 -36.894947
v 9.252669 2.112290 -37.070610
v 8.877094 2.114944 -36.926521
v 9.217779 2.114189 -37.193367
v 8.981068 2.115196 -36.849396
v 9.151359 2.113658 -37.193707
v 9.259034 2.118384 -36.925991
v 8.876964 2.113997 -37.069225
v 9.235224 2.114634 -37.138264
v 8.931665 2.111935 -37.192577
v 9.140969 2.114081 -36.848862
v 9.245121 1.710323 -36.985527
v 9.031394 1.707868 -37.065651
v 9.231802 1.708225 -37.104271
v 9.061993 1.706715 -37.134651
v 9.179076 1.707915 -36.942383
v 9.241560 1.706913 -37.066425
v 9.031466 1.708398 -36.985825
v 9.222043 1.707976 -37.135094
v 9.089628 1.708539 -36.942680
v 9.184888 1.707679 -37.135284
v 9.093573 1.315868 -36.953583
v 9.286746 1.315237 -36.921730
v 9.169687 1.316052 -36.922119
v 9.093477 1.315175 -37.058052
v 9.133522 1.313665 -37.148354
v 9.373177 1.318387 -36.953197
v 9.368517 1.313925 -37.059067
v 9.342976 1.315316 -37.148930
v 9.294352 1.314928 -37.149181
v 9.355746 1.315641 -37.108593
v 9.119408 1.060373 -36.998764
v 9.237147 1.059988 -36.964115
v 9.165800 1.060485 -36.964352
v 9.119349 1.059950 -37.062439
v 9.143757 1.059030 -37.117477
v 9.289827 1.061908 -36.998528
v 9.286987 1.059189 -37.063057
v 9.271420 1.060036 -37.117832
v 9.241783 1.059799 -37.117981
v 9.279203 1.060235 -37.093243
v 9.119008 0.755015 -37.010658
v 9.217542 0.754693 -36.981659
v 9.157833 0.755109 -36.981857
v 9.118959 0.754662 -37.063946
v 9.139385 0.753891 -37.110004
v 9.261628 0.756300 -37.010460
v 9.259252 0.754024 -37.064461
v 9.246223 0.754734 -37.110302
v 9.221421 0.754535 -37.110428
v 9.252737 0.754900 -37.089725
v 9.286672 1.604082 -36.963509
v 9.018713 1.601004 -37.063965
v 9.269973 1.601451 -37.112381
v 9.057076 1.599558 -37.150475
v 9.203869 1.601064 -36.934410
v 9.282207 1.599807 -37.064934
v 9.018804 1.601669 -36.963882
v 9.257738 1.601140 -37.151028
v 9.091724 1.601846 -36.934784
v 9.211155 1.600767 -37.151268
v 9.000519 0.623514 -36.998081
v 9.235294 0.611775 -36.941776
v 9.073513 0.625476 -36.955280
v 9.000427 0.624635 -37.085766
v 9.038830 0.623187 -37.146988
v 9.318181 0.613010 -36.997707
v 9.313713 0.610517 -37.068588
v 9.289219 0.611851 -37.160423
v 9.242588 0.611478 -37.160660
v 9.301466 0.612163 -37.111816
v 9.051828 0.478471 -36.973087
v 9.241386 0.474082 -36.939728
v 9.129128 0.474864 -36.953236
v 9.051737 0.477806 -37.073269
v 9.094445 0.477931 -37.138691
v 9.317791 0.473926 -36.994164
v 9.315568 0.470731 -37.067047
v 9.284544 0.475208 -37.152122
v 9.248680 0.479141 -37.152363
v 9.312296 0.473859 -37.112335
v 8.772683 0.531552 -36.960133
v 8.738050 0.531468 -37.020714
v 8.739696 0.531743 -37.062515
v 8.756186 0.531121 -37.118004
v 8.773531 0.471588 -36.960133
v 8.738897 0.471504 -37.020714
v 8.740462 0.474238 -37.062515
v 8.756953 0.473616 -37.118004
v 8.971287 0.473409 -36.920780
v 8.946441 0.562253 -36.921917
v 8.891154 0.561870 -37.075447
v 8.890474 0.561125 -37.008125
v 8.912926 0.475379 -36.994225
v 8.913568 0.476222 -37.068497
v 8.919830 0.560789 -37.170067
v 8.944640 0.476015 -37.165451
v 8.870260 0.538468 -36.927071
v 8.825128 0.538346 -37.069557
v 8.833681 0.473614 -37.006287
v 8.848255 0.537474 -37.154831
v 8.881237 0.472580 -36.926449
v 8.824009 0.537816 -37.013859
v 8.834743 0.475318 -37.065773
v 8.859176 0.474923 -37.152317
vn -0.6825 0.6039 -0.4117
vn 0.4100 0.9073 0.0929
vn -0.3061 0.9287 0.2095
vn -0.5875 0.4313 -0.6848
vn -0.2104 0.2769 -0.9376
vn 0.7113 0.7014 -0.0453
vn 0.8784 0.4258 -0.2172
vn 0.6577 -0.1426 -0.7397
vn 0.0135 0.3031 -0.9528
vn -0.9066 0.0655 0.4169
vn 0.3223 0.0138 0.9465
vn -0.3300 0.0291 0.9435
vn -0.9580 0.1322 -0.2545
vn -0.5932 0.1498 -0.7910
vn 0.8447 -0.0490 0.5329
vn 0.9617 -0.2740 0.0017
vn 0.4165 -0.0982 -0.9038
vn 0.0014 0.0700 -0.9975
vn -0.8893 0.2698 -0.3693
vn -0.4020 0.2409 -0.8834
vn 0.3793 0.2834 0.8808
vn -0.3549 0.3513 0.8664
vn 0.0039 0.1393 -0.9902
vn 0.4147 -0.4164 -0.8091
vn 0.9113 -0.2659 0.3144
vn 0.8040 0.0782 0.5894
vn -0.9211 0.2912 0.2585
vn 0.8887 0.1287 -0.4400
vn 0.8729 -0.4584 -0.1671
vn 0.7636 -0.6331 0.1270
vn -0.7537 -0.1614 0.6371
vn 0.1817 0.1193 0.9761
vn -0.1711 0.0272 0.9849
vn -0.9426 -0.2824 -0.1784
vn -0.5040 -0.1816 -0.8444
vn 0.7880 0.2587 0.5586
vn 0.9461 0.2956 -0.1324
vn 0.6366 0.2098 -0.7421
vn 0.0009 -0.0359 -0.9994
vn 0.9216 0.2920 -0.2558
vn 0.8798 -0.0984 0.4650
vn 0.9890 -0.0217 -0.1460
vn -0.9164 -0.3540 -0.1868
vn -0.8252 -0.3742 0.4232
vn 0.9608 -0.0252 -0.2759
vn 0.5856 -0.1063 -0.8036
vn -0.5241 -0.2878 -0.8015
vn -0.3017 -0.2930 0.9073
vn 0.0009 -0.1401 -0.9901
vn 0.2727 -0.1957 0.9420
vn 0.9839 -0.1007 -0.1476
vn -0.8800 -0.1965 0.4324
vn 0.5603 -0.1260 -0.8186
vn -0.3278 -0.1724 0.9289
vn 0.0005 -0.1035 -0.9946
vn 0.8746 -0.1347 0.4657
vn -0.9626 -0.1822 -0.2007
vn 0.9549 -0.1024 -0.2787
vn -0.5571 -0.1636 -0.8142
vn 0.2662 -0.1460 0.9528
vn 0.8784 0.1537 0.4525
vn -0.9650 -0.1514 -0.2142
vn 0.9464 0.1790 -0.2687
vn -0.5031 -0.0694 -0.8614
vn 0.2572 -0.0249 0.9660
vn 0.9706 0.1893 -0.1487
vn -0.8734 -0.1641 0.4584
vn 0.5704 0.1236 -0.8120
vn -0.2576 -0.1150 0.9594
vn -0.0003 0.0112 -0.9999
vn -0.8306 -0.1436 0.5380
vn 0.2184 -0.1405 0.9657
vn -0.2091 -0.1383 0.9681
vn -0.9737 -0.0817 -0.2127
vn -0.5147 -0.0313 -0.8568
vn 0.8605 -0.1108 0.4973
vn 0.9864 -0.0721 -0.1475
vn 0.6215 -0.0360 -0.7826
vn 0.0006 0.0019 -1.0000
vn 0.9592 -0.0574 -0.2768
vn -0.8811 -0.0861 0.4649
vn 0.2423 -0.1446 0.9594
vn -0.2793 -0.1110 0.9538
vn -0.9768 -0.0468 -0.2087
vn -0.5482 -0.0688 -0.8335
vn 0.8493 -0.2255 0.4773
vn 0.9701 -0.1939 -0.1458
vn 0.5603 -0.1636 -0.8120
vn 0.0003 -0.0731 -0.9973
vn 0.9429 -0.1902 -0.2733
vn -0.8093 0.3381 0.4803
vn 0.2630 0.1080 0.9587
vn -0.2648 0.1543 0.9519
vn -0.9084 0.3586 -0.2151
vn -0.4352 0.2761 -0.8569
vn 0.8734 0.1406 0.4662
vn 0.9781 0.1397 -0.1543
vn 0.5721 0.1957 -0.7965
vn -0.0092 0.1483 -0.9889
vn 0.9552 0.1305 -0.2655
vn 0.7444 0.4345 0.5070
vn -0.9637 -0.1723 -0.2038
vn 0.8914 0.3751 -0.2543
vn -0.5695 -0.1281 -0.8119
vn 0.1741 0.2326 0.9569
vn 0.9076 0.3946 -0.1435
vn -0.8676 -0.0819 0.4904
vn 0.5020 0.1564 -0.8506
vn -0.2543 0.0990 0.9620
vn -0.0002 -0.0255 -0.9997
vn -0.5446 0.7912 0.2781
vn 0.2534 0.1371 0.9576
vn -0.1800 0.3320 0.9259
vn -0.5918 0.7919 -0.1507
vn -0.2669 0.4213 -0.8667
vn 0.8888 0.1832 0.4202
vn 0.9743 0.1843 -0.1298
vn 0.5630 0.1704 -0.8087
vn -0.0276 0.1229 -0.9920
vn 0.9429 0.1913 -0.2727
vn 0.0039 -0.9991 -0.0421
vn 0.2103 -0.5503 0.8081
vn -0.0006 -0.6627 0.7489
vn -0.0000 -1.0000 -0.0044
vn 0.0054 -0.6794 -0.7338
vn 0.7622 -0.5265 0.3766
vn 0.7776 -0.6214 -0.0953
vn 0.4505 -0.5700 -0.6871
vn -0.0387 -0.6293 -0.7762
vn 0.7970 -0.5487 -0.2524
vn -0.5538 0.5154 0.6540
vn -0.8183 0.5391 0.1994
vn -0.8099 0.5715 -0.1321
vn -0.6431 0.4923 -0.5865
vn -0.5163 -0.5676 0.6413
vn -0.7887 -0.5876 0.1807
vn -0.7862 -0.6014 -0.1421
vn -0.6018 -0.5588 -0.5707
vn 0.0935 -0.5916 0.8008
vn -0.1452 0.4752 0.8678
vn -0.4053 0.9114 -0.0713
vn -0.3875 0.9130 0.1274
vn 0.0173 -0.9995 -0.0262
vn 0.0149 -0.9999 -0.0015
vn -0.2217 0.4591 -0.8603
vn 0.0434 -0.6061 -0.7942
vn -0.2839 0.4992 0.8186
vn -0.1998 0.9794 -0.0287
vn 0.0190 -0.9995 -0.0261
vn -0.3460 0.4905 -0.7998
vn -0.1280 -0.6149 0.7782
vn -0.1866 0.9814 0.0459
vn 0.0162 -0.9998 -0.0105
vn -0.1803 -0.6451 -0.7425
vt 0.615827 0.217936
vt 0.642636 0.235189
vt 0.634950 0.242557
vt 0.609536 0.238676
vt 0.229315 0.055448
vt 0.282409 0.074119
vt 0.265061 0.142694
vt 0.212243 0.122267
vt 0.019971 0.076464
vt 0.069931 0.051170
vt 0.055465 0.070896
vt 0.027290 0.082794
vt 0.100437 0.043285
vt 0.125022 0.041014
vt 0.112437 0.082034
vt 0.081197 0.074510
vt 0.171682 0.043571
vt 0.167543 0.101708
vt 0.683262 0.232534
vt 0.686216 0.237738
vt 0.558688 0.181411
vt 0.588687 0.200404
vt 0.579611 0.235297
vt 0.548068 0.231019
vt 0.185683 0.009311
vt 0.236936 0.012919
vt 0.605375 0.181107
vt 0.623893 0.202118
vt 0.577471 0.157370
vt 0.648400 0.229728
vt 0.677949 0.229801
vt 0.133914 0.020718
vt 0.109396 0.025987
vt 0.009089 0.075398
vt 0.082381 0.037282
vt 0.282367 0.031338
vt 0.067951 0.294639
vt 0.100298 0.305134
vt 0.091780 0.336370
vt 0.067268 0.328586
vt 0.591084 0.377157
vt 0.613694 0.373646
vt 0.612414 0.403756
vt 0.583819 0.404884
vt 0.040342 0.286486
vt 0.052679 0.289562
vt 0.054238 0.324359
vt 0.042675 0.321409
vt 0.635317 0.374813
vt 0.640332 0.403723
vt 0.572325 0.381602
vt 0.562818 0.411062
vt 0.027669 0.279085
vt 0.029502 0.315161
vt 0.130315 0.305461
vt 0.113804 0.337610
vt 0.168211 0.307910
vt 0.147281 0.339450
vt 0.673088 0.382537
vt 0.684279 0.409921
vt 0.633526 0.266780
vt 0.682430 0.272268
vt 0.672837 0.320586
vt 0.633031 0.309633
vt 0.198017 0.164496
vt 0.247463 0.184758
vt 0.206664 0.238783
vt 0.166958 0.224171
vt 0.152052 0.146753
vt 0.129241 0.213315
vt 0.074335 0.130504
vt 0.100220 0.135935
vt 0.088209 0.206842
vt 0.068487 0.202073
vt 0.029039 0.130064
vt 0.053205 0.127821
vt 0.052764 0.198718
vt 0.034350 0.197603
vt 0.549182 0.266281
vt 0.579817 0.262936
vt 0.583026 0.308639
vt 0.560026 0.316594
vt 0.607851 0.264687
vt 0.608639 0.308463
vt 0.670258 0.356874
vt 0.635891 0.351558
vt 0.172644 0.279897
vt 0.140471 0.273635
vt 0.108313 0.267656
vt 0.074876 0.260116
vt 0.060032 0.256001
vt 0.047769 0.252976
vt 0.034686 0.248260
vt 0.590094 0.353314
vt 0.569664 0.358172
vt 0.613764 0.351549
vt 0.643615 0.443111
vt 0.617835 0.441746
vt 0.590077 0.442142
vt 0.568548 0.447336
vt 0.033626 0.358660
vt 0.020091 0.357334
vt 0.101490 0.371789
vt 0.080203 0.364480
vt 0.134534 0.382051
vt 0.686216 0.448191
vt 0.057146 0.362286
vt 0.044453 0.360157
vt 0.105718 0.443131
vt 0.084467 0.434180
vt 0.664293 0.501752
vt 0.637207 0.499298
vt 0.065139 0.427264
vt 0.044106 0.424791
vt 0.620372 0.498868
vt 0.602506 0.499108
vt 0.034409 0.423278
vt 0.026014 0.422242
vt 0.586679 0.500877
vt 0.016748 0.423240
vt 0.048055 0.504613
vt 0.031430 0.502466
vt 0.621034 0.566744
vt 0.606669 0.566751
vt 0.023381 0.501194
vt 0.016875 0.500462
vt 0.634633 0.566887
vt 0.593854 0.567176
vt 0.009089 0.500384
vt 0.063496 0.509810
vt 0.081019 0.516259
vt 0.656337 0.567374
vt 0.384955 0.871468
vt 0.372994 0.863980
vt 0.390004 0.824065
vt 0.411097 0.836216
vt 0.333125 0.876584
vt 0.329387 0.881513
vt 0.304433 0.865395
vt 0.310770 0.858098
vt 0.336139 0.872485
vt 0.317363 0.850451
vt 0.360192 0.861133
vt 0.370047 0.821392
vt 0.388813 0.883407
vt 0.417556 0.859408
vt 0.341594 0.870073
vt 0.325373 0.845271
vt 0.322370 0.892974
vt 0.318781 0.906009
vt 0.287733 0.900062
vt 0.296046 0.878125
vt 0.388817 0.898896
vt 0.420403 0.903695
vt 0.291712 0.841274
vt 0.300404 0.833172
vt 0.444217 0.034351
vt 0.444536 0.049133
vt 0.420860 0.046493
vt 0.420842 0.036085
vt 0.428457 0.792171
vt 0.417784 0.786643
vt 0.427873 0.772671
vt 0.435174 0.776375
vt 0.307715 0.827123
vt 0.261798 0.886367
vt 0.273598 0.864469
vt 0.449741 0.876610
vt 0.449213 0.906009
vt 0.340090 0.803743
vt 0.284071 0.849423
vt 0.456199 0.811548
vt 0.443143 0.808956
vt 0.442714 0.786909
vt 0.453372 0.783436
vt 0.417395 0.770052
vt 0.415970 0.759232
vt 0.432425 0.761171
vt 0.443358 0.767622
vt 0.457129 0.068486
vt 0.430057 0.061188
vt 0.398887 0.779335
vt 0.449430 0.012626
vt 0.424389 0.022147
vt 0.391048 0.769399
vt 0.498996 0.055198
vt 0.498005 0.030353
vt 0.507967 0.013701
vt 0.546110 0.008810
vt 0.555047 0.008525
vt 0.562312 0.018140
vt 0.563584 0.029361
vt 0.564818 0.047440
vt 0.546361 0.061658
vt 0.518372 0.059392
vt 0.371965 0.781067
vt 0.386319 0.791695
vt 0.463759 0.032899
vt 0.470518 0.008525
vt 0.408486 0.799238
vt 0.479542 0.069005
vt 0.464330 0.051341
vt 0.422774 0.806873
vt 0.437437 0.826933
vt 0.454738 0.834916
vt 0.838658 0.649158
vt 0.808192 0.627221
vt 0.812012 0.591664
vt 0.832880 0.560324
vt 0.867652 0.543666
vt 0.886249 0.542061
vt 0.904731 0.551888
vt 0.904731 0.600616
vt 0.903111 0.633138
vt 0.867132 0.649014
s 1
g piernaIzq_cuerpo
usemtl cuerpo
f 19/1/19 20/2/20 14/3/14 13/4/13
f 21/5/21 22/6/22 12/7/12 11/8/11
f 23/9/23 24/10/24 17/11/17 18/12/18
f 30/13/30 25/14/25 16/15/16 29/16/29
f 25/14/25 26/17/26 15/18/15 16/15/16
f 20/2/20 23/19/23 18/20/18 14/3/14
f 22/21/22 27/22/27 10/23/10 12/24/12
f 27/22/27 19/1/19 13/4/13 10/23/10
f 26/17/26 21/5/21 11/8/11 15/18/15
f 6/25/6 2/26/2 21/5/21 26/17/26
f 1/27/1 4/28/4 19/1/19 27/22/27
f 3/29/3 1/27/1 27/22/27 22/21/22
f 5/30/5 9/31/9 23/19/23 20/2/20
f 7/32/7 6/25/6 26/17/26 25/14/25
f 28/33/28 7/32/7 25/14/25 30/13/30
f 9/34/9 8/35/8 24/10/24 23/9/23
f 2/26/2 3/36/3 22/6/22 21/5/21
f 4/28/4 5/30/5 20/2/20 19/1/19
f 8/35/8 28/33/28 30/13/30 24/10/24
f 24/10/24 30/13/30 29/16/29 17/11/17
f 106/37/106 101/38/101 36/39/36 37/40/37
f 107/41/107 102/42/102 34/43/34 31/44/31
f 108/45/108 103/46/103 40/47/40 38/48/38
f 102/42/102 104/49/104 35/50/35 34/43/34
f 109/51/109 107/41/107 31/44/31 33/52/33
f 110/53/110 108/45/108 38/48/38 39/54/39
f 103/46/103 106/37/106 37/40/37 40/47/40
f 101/38/101 105/55/105 32/56/32 36/39/36
f 105/55/105 109/57/109 33/58/33 32/56/32
f 104/49/104 110/59/110 39/60/39 35/50/35
f 59/61/59 55/62/55 49/63/49 47/64/47
f 60/65/60 54/66/54 48/67/48 50/68/50
f 56/69/56 60/65/60 50/68/50 41/70/41
f 58/71/58 51/72/51 42/73/42 45/74/45
f 55/75/55 53/76/53 46/77/46 49/78/49
f 54/79/54 52/80/52 44/81/44 48/82/48
f 57/83/57 59/61/59 47/64/47 43/84/43
f 53/76/53 58/71/58 45/74/45 46/77/46
f 52/80/52 57/83/57 43/84/43 44/81/44
f 51/72/51 56/69/56 41/70/41 42/73/42
f 16/15/16 15/18/15 56/69/56 51/72/51
f 10/23/10 13/4/13 57/83/57 52/80/52
f 17/11/17 29/16/29 58/71/58 53/76/53
f 13/4/13 14/3/14 59/61/59 57/83/57
f 12/24/12 10/23/10 52/80/52 54/79/54
f 18/12/18 17/11/17 53/76/53 55/75/55
f 29/16/29 16/15/16 51/72/51 58/71/58
f 15/18/15 11/8/11 60/65/60 56/69/56
f 11/8/11 12/7/12 54/66/54 60/65/60
f 14/3/14 18/20/18 55/62/55 59/61/59
f 47/64/47 49/63/49 70/85/70 64/86/64
f 50/68/50 48/67/48 69/87/69 65/88/65
f 41/70/41 50/68/50 65/88/65 61/89/61
f 45/74/45 42/73/42 66/90/66 63/91/63
f 49/78/49 46/77/46 68/92/68 70/93/70
f 48/82/48 44/81/44 67/94/67 69/95/69
f 43/84/43 47/64/47 64/86/64 62/96/62
f 46/77/46 45/74/45 63/91/63 68/92/68
f 44/81/44 43/84/43 62/96/62 67/94/67
f 42/73/42 41/70/41 61/89/61 66/90/66
f 34/43/34 35/50/35 75/97/75 74/98/74
f 33/52/33 31/44/31 71/99/71 73/100/73
f 39/54/39 38/48/38 78/101/78 79/102/79
f 36/39/36 32/56/32 72/103/72 76/104/76
f 32/56/32 33/58/33 73/105/73 72/103/72
f 35/50/35 39/60/39 79/106/79 75/97/75
f 37/40/37 36/39/36 76/104/76 77/107/77
f 31/44/31 34/43/34 74/98/74 71/99/71
f 40/47/40 37/40/37 77/107/77 80/108/80
f 38/48/38 40/47/40 80/108/80 78/101/78
f 72/103/72 73/105/73 83/109/83 82/110/82
f 75/97/75 79/106/79 89/111/89 85/112/85
f 77/107/77 76/104/76 86/113/86 87/114/87
f 71/99/71 74/98/74 84/115/84 81/116/81
f 80/108/80 77/107/77 87/114/87 90/117/90
f 78/101/78 80/108/80 90/117/90 88/118/88
f 74/98/74 75/97/75 85/112/85 84/115/84
f 73/100/73 71/99/71 81/116/81 83/119/83
f 79/102/79 78/101/78 88/118/88 89/120/89
f 76/104/76 72/103/72 82/110/82 86/113/86
f 87/114/87 86/113/86 96/121/96 97/122/97
f 81/116/81 84/115/84 94/123/94 91/124/91
f 90/117/90 87/114/87 97/122/97 100/125/100
f 88/118/88 90/117/90 100/125/100 98/126/98
f 84/115/84 85/112/85 95/127/95 94/123/94
f 83/119/83 81/116/81 91/124/91 93/128/93
f 89/120/89 88/118/88 98/126/98 99/129/99
f 86/113/86 82/110/82 92/130/92 96/121/96
f 82/110/82 83/109/83 93/131/93 92/130/92
f 85/112/85 89/111/89 99/132/99 95/127/95
f 64/86/64 70/85/70 110/59/110 104/49/104
f 65/88/65 69/87/69 109/57/109 105/55/105
f 61/89/61 65/88/65 105/55/105 101/38/101
f 63/91/63 66/90/66 106/37/106 103/46/103
f 70/93/70 68/92/68 108/45/108 110/53/110
f 69/95/69 67/94/67 107/41/107 109/51/109
f 62/96/62 64/86/64 104/49/104 102/42/102
f 68/92/68 63/91/63 103/46/103 108/45/108
f 67/94/67 62/96/62 102/42/102 107/41/107
f 66/90/66 61/89/61 101/38/101 106/37/106
f 91/133/91 94/134/94 114/135/114 111/136/111
f 100/137/100 97/138/97 117/139/117 120/140/120
f 98/141/98 100/137/100 120/140/120 118/142/118
f 94/134/94 95/143/95 115/144/115 114/135/114
f 93/145/93 91/133/91 111/136/111 113/146/113
f 99/147/99 98/141/98 118/142/118 119/148/119
f 96/149/96 92/150/92 112/151/112 116/152/116
f 92/153/92 93/145/93 113/146/113 112/154/112
f 95/143/95 99/147/99 119/148/119 115/144/115
f 97/138/97 96/149/96 116/152/116 117/139/117
f 118/142/118 120/140/120 130/155/130 128/156/128
f 153/157/153 149/158/149 136/159/136 137/160/137
f 152/161/152 148/162/148 133/163/133 132/164/132
f 119/148/119 118/142/118 128/156/128 129/165/129
f 116/152/116 112/151/112 122/166/122 126/167/126
f 112/154/112 113/146/113 123/168/123 122/169/122
f 115/144/115 119/148/119 129/165/129 125/170/125
f 117/139/117 116/152/116 126/167/126 127/171/127
f 151/172/151 147/173/147 131/174/131 135/175/135
f 120/140/120 117/139/117 127/171/127 130/155/130
f 133/163/133 134/176/134 138/177/138 137/178/137
f 131/174/131 132/164/132 136/179/136 135/175/135
f 132/164/132 133/163/133 137/178/137 136/179/136
f 147/173/147 152/161/152 132/164/132 131/174/131
f 149/158/149 151/180/151 135/181/135 136/159/136
f 148/162/148 150/182/150 134/176/134 133/163/133
f 154/183/154 153/157/153 137/160/137 138/184/138
f 150/182/150 154/185/154 138/177/138 134/176/134
f 121/186/121 124/187/124 125/188/125 129/189/129 128/190/128 130/191/130 127/192/127 126/193/126 122/194/122 123/195/123
f 115/144/115 125/170/125 146/196/146 145/197/145
f 125/188/125 124/187/124 144/198/144 146/199/146
f 114/135/114 115/144/115 145/197/145 141/200/141
f 121/186/121 123/195/123 139/201/139 143/202/143
f 113/146/113 111/136/111 142/203/142 140/204/140
f 123/168/123 113/146/113 140/204/140 139/205/139
f 111/136/111 114/135/114 141/200/141 142/203/142
f 124/187/124 121/186/121 143/202/143 144/198/144
f 145/197/145 146/196/146 154/185/154 150/182/150
f 146/199/146 144/198/144 153/157/153 154/183/154
f 141/200/141 145/197/145 150/182/150 148/162/148
f 143/202/143 139/201/139 151/180/151 149/158/149
f 140/204/140 142/203/142 152/161/152 147/173/147
f 139/205/139 140/204/140 147/173/147 151/172/151
f 142/203/142 141/200/141 148/162/148 152/161/152
f 144/198/144 143/202/143 149/158/149 153/157/153
f 1/206/1 3/207/3 2/208/2 6/209/6 7/210/7 28/211/28 8/212/8 9/213/9 5/214/5 4/215/4
