# Blender 5.0.1
# www.blender.org
mtllib torsoFemenino3.mtl
o cuerpo
v 9.280411 3.515268 -37.240955
v 9.221820 3.843656 -37.256474
v 9.245337 3.509250 -37.057961
v 9.183448 3.836587 -37.162277
v 9.167435 3.540687 -37.081024
v 9.090811 3.819520 -37.123260
v 9.039624 3.503749 -37.011669
v 8.998174 3.802454 -37.162277
v 8.997461 3.503878 -37.240955
v 8.959802 3.795385 -37.256474
v 9.235170 3.567829 -37.240955
v 9.206058 3.562465 -37.169487
v 9.135771 3.549516 -37.139881
v 9.065485 3.536567 -37.169487
v 9.007620 3.531204 -37.240955
v 9.001989 3.343249 -36.961864
v 8.901429 3.381415 -37.240002
v 9.287171 3.320615 -37.240955
v 9.273227 3.323180 -36.998764
v 8.921745 3.249885 -36.941818
v 8.797390 3.280524 -37.240002
v 9.232458 3.209426 -37.240955
v 9.226839 3.212229 -37.037430
v 9.140260 3.296367 -36.965385
v 9.126612 3.210748 -36.966488
v 9.291952 3.437061 -36.844864
v 9.190481 3.509738 -36.858116
v 9.085879 3.452466 -36.857285
v 9.086483 3.349816 -36.905975
v 9.294593 3.345019 -36.880367
v 9.185510 3.298558 -36.943684
v 8.886362 3.126876 -36.970299
v 8.778432 3.160765 -37.240002
v 9.144926 3.082948 -37.240002
v 9.137378 3.085083 -37.042973
v 9.033324 3.095897 -36.999184
v 8.936247 3.034532 -37.078541
v 8.827697 3.067098 -37.240002
v 9.111640 3.012685 -37.240002
v 9.105907 2.999028 -37.068722
v 9.039242 3.016227 -37.026436
v 8.934546 2.582476 -37.028511
v 8.844453 2.616879 -37.240002
v 9.230087 2.749066 -37.240002
v 9.165112 2.679707 -36.952362
v 9.024469 2.661679 -36.925129
v 9.010676 2.922526 -37.043732
v 9.099460 2.947986 -37.083675
v 9.112612 2.948749 -37.240002
v 8.919332 2.903531 -37.079685
v 8.847137 2.885201 -37.240002
v 8.936061 2.476599 -37.105080
v 8.865390 2.529837 -37.240002
v 9.001287 2.340724 -37.199036
v 8.946437 2.389929 -37.240002
v 9.270552 2.681203 -37.240002
v 9.291357 2.610418 -37.015030
v 9.297678 2.587657 -37.240002
v 9.359488 2.468466 -37.094856
v 9.308855 2.323114 -37.240002
v 9.327873 2.328259 -37.192940
v 9.134037 2.314541 -37.240002
v 9.131691 2.325454 -37.193317
v 9.002208 2.825407 -36.991314
v 8.933884 2.779079 -37.023937
v 8.843912 2.758210 -37.240002
v 9.088298 2.841328 -37.035263
v 9.166286 2.829665 -37.240002
v 9.328088 2.455385 -37.240002
v 9.366696 2.398362 -37.143898
v 9.206096 3.676363 -37.240002
v 9.180109 3.671575 -37.170792
v 9.117371 3.660017 -37.144367
v 9.054633 3.648458 -37.170792
v 9.020101 3.637974 -37.240002
v 9.253864 3.527882 -37.161388
v 9.202634 3.840122 -37.209377
v 8.989338 3.485374 -37.173203
v 8.978988 3.798919 -37.209377
v 9.022177 3.533885 -37.205219
v 9.220614 3.565147 -37.205219
v 8.881426 3.369223 -37.118614
v 9.280199 3.321898 -37.119858
v 8.778554 3.291544 -37.070332
v 9.229649 3.210827 -37.139191
v 8.756455 3.146709 -37.075481
v 9.141151 3.084015 -37.141487
v 8.881972 3.050815 -37.159271
v 9.108774 3.005857 -37.154362
v 8.889500 2.599678 -37.134258
v 9.197599 2.714386 -37.096180
v 8.883234 2.894366 -37.159843
v 9.106035 2.948368 -37.161839
v 8.900725 2.503218 -37.172543
v 8.973863 2.365326 -37.219521
v 9.309706 2.644234 -37.136276
v 9.357334 2.559688 -37.167427
v 9.318364 2.325686 -37.216469
v 9.132864 2.319997 -37.216660
v 8.888898 2.768645 -37.131969
v 9.127292 2.835496 -37.137634
v 9.347392 2.426874 -37.191948
v 9.037367 3.643216 -37.205399
v 9.193102 3.673969 -37.205399
v 9.280411 3.515268 -37.239048
v 9.221820 3.843656 -37.223530
v 9.245337 3.509250 -37.422043
v 9.183448 3.836587 -37.317726
v 9.167435 3.540687 -37.398979
v 9.090811 3.819520 -37.356743
v 9.039624 3.503749 -37.468334
v 8.998174 3.802454 -37.317726
v 8.997461 3.503878 -37.239048
v 8.959802 3.795385 -37.223530
v 9.235170 3.567829 -37.239048
v 9.206058 3.562465 -37.310516
v 9.135771 3.549516 -37.340122
v 9.065485 3.536567 -37.310516
v 9.007620 3.531204 -37.239048
v 9.001989 3.343249 -37.518139
v 9.287171 3.320615 -37.239048
v 9.273227 3.323180 -37.481239
v 8.921745 3.249885 -37.538185
v 9.232458 3.209426 -37.239048
v 9.226839 3.212229 -37.442574
v 9.140260 3.296367 -37.514618
v 9.126612 3.210748 -37.513515
v 9.291952 3.423424 -37.601620
v 9.190481 3.511769 -37.630806
v 9.085879 3.458855 -37.615898
v 9.086483 3.336180 -37.563393
v 9.294593 3.331383 -37.566116
v 9.185510 3.284922 -37.544655
v 8.886362 3.126876 -37.509705
v 9.137378 3.085083 -37.437031
v 9.033324 3.095897 -37.480820
v 8.936247 3.034532 -37.401463
v 9.105907 2.999028 -37.411282
v 9.039242 3.016227 -37.460308
v 8.934546 2.582476 -37.451492
v 9.165112 2.679707 -37.527641
v 9.024469 2.661679 -37.554874
v 9.010676 2.922526 -37.436272
v 9.099460 2.947986 -37.396328
v 8.919332 2.903531 -37.400318
v 8.936061 2.476599 -37.374924
v 9.001287 2.340724 -37.280968
v 9.291357 2.614798 -37.473736
v 9.359488 2.468466 -37.385147
v 9.327873 2.328259 -37.287064
v 9.131691 2.325454 -37.286686
v 9.002208 2.825407 -37.488689
v 8.933884 2.779079 -37.456066
v 9.088298 2.841328 -37.444740
v 9.366696 2.398362 -37.336105
v 9.180109 3.671575 -37.309212
v 9.117371 3.660017 -37.335636
v 9.054633 3.648458 -37.309212
v 9.253864 3.527882 -37.318615
v 9.202634 3.840122 -37.270626
v 8.989338 3.485374 -37.306801
v 8.978988 3.798919 -37.270626
v 9.022177 3.533885 -37.274784
v 9.220614 3.565147 -37.274784
v 8.881426 3.369223 -37.361389
v 9.280199 3.321898 -37.360146
v 8.778554 3.291544 -37.409672
v 9.229649 3.210827 -37.340813
v 8.756455 3.146709 -37.404522
v 9.141151 3.084015 -37.338516
v 8.881972 3.050815 -37.320732
v 9.108774 3.005857 -37.325642
v 8.889500 2.599678 -37.345745
v 9.197599 2.714386 -37.383823
v 8.883234 2.894366 -37.320160
v 9.106035 2.948368 -37.318165
v 8.900725 2.503218 -37.307461
v 8.973863 2.365326 -37.260483
v 9.309706 2.644234 -37.343727
v 9.357334 2.559688 -37.312576
v 9.318364 2.325686 -37.263535
v 9.132864 2.319997 -37.263344
v 8.888898 2.768645 -37.348034
v 9.127292 2.835496 -37.342369
v 9.347392 2.426874 -37.288055
v 9.037367 3.643216 -37.274605
v 9.193102 3.673969 -37.274605
vn 0.9179 0.3542 0.1789
vn 0.9305 -0.0482 0.3630
vn 0.8040 0.5856 0.1030
vn 0.7321 -0.0519 0.6792
vn 0.0345 0.9707 0.2377
vn 0.0109 -0.1294 0.9915
vn -0.5987 0.7067 0.3771
vn -0.6684 -0.2755 0.6909
vn -0.8094 0.5825 0.0750
vn -0.8592 -0.2985 0.4154
vn 0.8220 0.4933 0.2846
vn 0.6058 0.6144 0.5055
vn -0.0470 0.6620 0.7480
vn -0.6077 0.5157 0.6040
vn -0.8992 0.3481 0.2651
vn -0.4971 0.2510 0.8306
vn -0.7208 0.6931 -0.0000
vn 0.9803 -0.1660 0.1066
vn 0.9367 -0.3175 0.1475
vn -0.2851 0.1638 0.9444
vn -0.8865 0.4627 -0.0000
vn 0.8648 -0.5006 0.0396
vn 0.7560 -0.4790 0.4461
vn 0.1046 -0.5409 0.8345
vn 0.2875 -0.2583 0.9223
vn 0.7027 0.0987 0.7046
vn 0.0520 0.5664 0.8225
vn -0.5066 0.2295 0.8311
vn -0.4585 -0.4188 0.7839
vn 0.7491 -0.4321 0.5022
vn 0.0678 -0.8458 0.5291
vn -0.4008 -0.3996 0.8244
vn -0.9661 -0.2580 -0.0000
vn 0.8717 -0.4900 -0.0000
vn 0.6896 -0.4924 0.5310
vn 0.1292 -0.4464 0.8855
vn -0.5799 -0.4022 0.7085
vn -0.8884 -0.4591 -0.0000
vn 0.9753 -0.2208 -0.0000
vn 0.7841 -0.3281 0.5268
vn 0.1165 -0.3587 0.9262
vn -0.6191 -0.3046 0.7238
vn -0.9926 -0.1151 -0.0394
vn 0.7530 0.6580 -0.0000
vn 0.3928 0.0978 0.9144
vn -0.1911 -0.0810 0.9782
vn -0.0805 0.1748 0.9813
vn 0.8633 -0.0043 0.5047
vn 0.9879 0.1554 -0.0000
vn -0.7564 0.1180 0.6434
vn -1.0000 -0.0091 -0.0000
vn -0.5670 -0.5428 0.6196
vn -0.8343 -0.3103 -0.4557
vn -0.3253 -0.8952 0.3045
vn -0.7832 -0.6214 -0.0215
vn 0.7863 0.6178 -0.0000
vn 0.5860 0.0918 0.8051
vn 0.9431 0.3326 -0.0000
vn 0.7612 -0.2634 0.5926
vn 0.6035 -0.7974 -0.0000
vn 0.6471 -0.7354 0.2011
vn -0.1387 -0.9903 -0.0000
vn -0.0495 -0.8903 0.4527
vn -0.2217 0.3672 0.9033
vn -0.7731 0.1274 0.6213
vn -0.9999 0.0142 -0.0000
vn 0.5906 0.4495 0.6701
vn 0.8751 0.4839 -0.0000
vn 0.9998 0.0209 -0.0000
vn 0.8263 -0.4455 0.3447
vn 0.9956 0.0933 -0.0000
vn 0.6954 0.0586 0.7163
vn 0.0086 -0.0451 0.9989
vn -0.6087 -0.1353 0.7818
vn -0.9948 -0.1018 -0.0000
vn 0.8485 0.4974 0.1806
vn 0.9306 -0.0449 0.3633
vn -0.7235 0.6696 0.1681
vn -0.8557 -0.3091 0.4150
vn -0.8420 0.4009 0.3610
vn 0.8180 0.4897 0.3018
vn -0.6714 0.7033 0.2336
vn 0.9861 -0.1442 0.0831
vn -0.8298 0.4213 0.3660
vn 0.8666 -0.4974 0.0397
vn -0.8981 -0.2901 0.3306
vn 0.8773 -0.4791 0.0276
vn -0.8362 -0.3928 0.3827
vn 0.9739 -0.2235 0.0389
vn -0.9183 -0.1277 0.3747
vn 0.7081 0.6485 0.2794
vn -0.8972 0.0183 0.4412
vn 0.9852 0.0920 0.1443
vn -0.8666 -0.3821 0.3209
vn -0.6195 -0.7841 0.0377
vn 0.8286 0.5498 0.1055
vn 0.9556 0.2505 -0.1554
vn 0.6777 -0.7052 -0.2084
vn -0.1188 -0.9917 -0.0481
vn -0.9208 0.0191 0.3897
vn 0.8825 0.3876 0.2662
vn 0.9295 -0.0437 -0.3662
vn -0.8622 -0.1257 0.4907
vn 0.9246 0.0918 0.3698
vn 0.9179 0.3542 -0.1789
vn 0.9305 -0.0482 -0.3630
vn 0.8121 0.5742 -0.1042
vn 0.7321 -0.0519 -0.6792
vn 0.0510 0.9702 -0.2368
vn 0.0109 -0.1294 -0.9915
vn -0.6005 0.7028 -0.3815
vn -0.6684 -0.2755 -0.6909
vn -0.8094 0.5825 -0.0750
vn -0.8592 -0.2985 -0.4154
vn 0.8220 0.4933 -0.2846
vn 0.6058 0.6144 -0.5055
vn -0.0470 0.6620 -0.7480
vn -0.6077 0.5157 -0.6040
vn -0.8992 0.3481 -0.2651
vn -0.5032 0.2617 -0.8236
vn 0.9803 -0.1660 -0.1066
vn 0.9437 -0.3218 -0.0771
vn -0.2851 0.1638 -0.9444
vn 0.8648 -0.5006 -0.0396
vn 0.7560 -0.4790 -0.4461
vn 0.0894 -0.6166 -0.7822
vn 0.2875 -0.2583 -0.9223
vn 0.7450 0.1148 -0.6572
vn 0.1249 0.5043 -0.8544
vn -0.4577 0.2578 -0.8509
vn -0.4442 -0.4907 -0.7496
vn 0.7896 -0.4799 -0.3824
vn 0.0879 -0.8605 -0.5018
vn -0.4034 -0.3962 -0.8248
vn 0.6973 -0.4835 -0.5292
vn 0.1339 -0.4357 -0.8901
vn -0.5899 -0.3994 -0.7017
vn 0.7945 -0.3281 -0.5109
vn 0.1250 -0.3629 -0.9234
vn -0.6205 -0.3053 -0.7223
vn 0.3890 0.1025 -0.9155
vn -0.1931 -0.0820 -0.9778
vn -0.0845 0.1587 -0.9837
vn 0.8688 -0.0147 -0.4950
vn -0.7603 0.1133 -0.6396
vn -0.5684 -0.5432 -0.6179
vn -0.3268 -0.8952 -0.3031
vn 0.5816 0.1000 -0.8073
vn 0.7639 -0.2657 -0.5881
vn 0.6454 -0.7372 -0.2000
vn -0.0519 -0.8909 -0.4511
vn -0.2217 0.3672 -0.9033
vn -0.7731 0.1274 -0.6213
vn 0.5906 0.4495 -0.6701
vn 0.8253 -0.4478 -0.3440
vn 0.6954 0.0586 -0.7163
vn 0.0086 -0.0451 -0.9989
vn -0.6087 -0.1353 -0.7818
vn 0.8485 0.4974 -0.1806
vn 0.9306 -0.0449 -0.3633
vn -0.7235 0.6696 -0.1681
vn -0.8557 -0.3091 -0.4150
vn -0.8420 0.4009 -0.3610
vn 0.8180 0.4897 -0.3018
vn -0.6714 0.7033 -0.2336
vn 0.9861 -0.1442 -0.0831
vn -0.8298 0.4213 -0.3660
vn 0.8666 -0.4974 -0.0397
vn -0.8981 -0.2901 -0.3306
vn 0.8773 -0.4791 -0.0276
vn -0.8362 -0.3928 -0.3827
vn 0.9739 -0.2235 -0.0389
vn -0.9183 -0.1277 -0.3747
vn 0.7032 0.6563 -0.2735
vn -0.8972 0.0183 -0.4412
vn 0.9852 0.0920 -0.1443
vn -0.8666 -0.3821 -0.3209
vn -0.6195 -0.7841 -0.0377
vn 0.8286 0.5517 -0.0950
vn 0.9549 0.2488 0.1618
vn 0.6777 -0.7052 0.2084
vn -0.1188 -0.9917 0.0481
vn -0.9208 0.0191 -0.3897
vn 0.8825 0.3876 -0.2662
vn 0.9295 -0.0437 0.3662
vn -0.8622 -0.1257 -0.4907
vn 0.9246 0.0918 -0.3698
vt 0.799708 0.298298
vt 0.822253 0.313346
vt 0.815776 0.321084
vt 0.794738 0.303921
vt 0.802128 0.334802
vt 0.785557 0.314909
vt 0.515388 0.584878
vt 0.525246 0.559729
vt 0.544141 0.566782
vt 0.528582 0.591349
vt 0.535984 0.595500
vt 0.553317 0.571836
vt 0.562641 0.576854
vt 0.543397 0.599077
vt 0.526914 0.628770
vt 0.531391 0.615674
vt 0.540078 0.617252
vt 0.540416 0.622244
vt 0.490327 0.600467
vt 0.504724 0.600394
vt 0.519090 0.610286
vt 0.489536 0.632855
vt 0.752376 0.283027
vt 0.779840 0.289328
vt 0.771541 0.303827
vt 0.760652 0.297836
vt 0.774216 0.277832
vt 0.786630 0.283711
vt 0.547627 0.650591
vt 0.524901 0.659579
vt 0.727784 0.256039
vt 0.753185 0.247830
vt 0.730666 0.232353
vt 0.750547 0.226645
vt 0.549756 0.676146
vt 0.525101 0.680044
vt 0.455313 0.676333
vt 0.485165 0.664804
vt 0.498516 0.681682
vt 0.458965 0.690133
vt 0.705464 0.237315
vt 0.707942 0.224424
vt 0.453870 0.640556
vt 0.445012 0.617658
vt 0.706997 0.287114
vt 0.706770 0.271715
vt 0.707038 0.246636
vt 0.445012 0.674392
vt 0.463095 0.659010
vt 0.717660 0.306569
vt 0.551216 0.693524
vt 0.526776 0.693905
vt 0.701462 0.199857
vt 0.723948 0.204477
vt 0.506368 0.696520
vt 0.481432 0.711176
vt 0.744188 0.199652
vt 0.707530 0.188111
vt 0.724325 0.186320
vt 0.744342 0.184030
vt 0.511343 0.723834
vt 0.483666 0.727401
vt 0.552786 0.711901
vt 0.532730 0.720222
vt 0.713315 0.155347
vt 0.693752 0.159761
vt 0.680301 0.135577
vt 0.702318 0.122296
vt 0.737853 0.152278
vt 0.730958 0.125552
vt 0.488078 0.766558
vt 0.505790 0.774098
vt 0.512189 0.809595
vt 0.478501 0.799699
vt 0.531986 0.771808
vt 0.557879 0.770597
vt 0.559934 0.794093
vt 0.536972 0.801617
vt 0.555874 0.747610
vt 0.535515 0.748092
vt 0.514736 0.748769
vt 0.491602 0.744966
vt 0.725742 0.175654
vt 0.744847 0.173452
vt 0.703814 0.173806
vt 0.561330 0.810152
vt 0.547498 0.818002
vt 0.563765 0.837860
vt 0.559450 0.845257
vt 0.718048 0.099823
vt 0.740865 0.101909
vt 0.731482 0.075151
vt 0.745801 0.086878
vt 0.750294 0.066966
vt 0.739634 0.063027
vt 0.750493 0.050479
vt 0.755657 0.049026
vt 0.755449 0.009047
vt 0.750406 0.008842
vt 0.562406 0.880138
vt 0.557339 0.880452
vt 0.554947 0.852570
vt 0.012779 0.038990
vt 0.009517 0.053671
vt 0.009517 0.010651
vt 0.792917 0.278565
vt 0.804798 0.292778
vt 0.761821 0.094721
vt 0.761375 0.071414
vt 0.762967 0.172365
vt 0.762610 0.146207
vt 0.567461 0.880079
vt 0.760155 0.009186
vt 0.760906 0.047474
vt 0.762110 0.111552
vt 0.762324 0.125993
vt 0.532513 0.826609
vt 0.763118 0.183769
vt 0.763287 0.196748
vt 0.769726 0.221171
vt 0.775747 0.239958
vt 0.788239 0.267320
vt 0.828803 0.305605
vt 0.728557 0.298467
vt 0.733564 0.304002
vt 0.712836 0.321315
vt 0.706305 0.313692
vt 0.742823 0.314824
vt 0.726570 0.334802
vt 0.568549 0.580410
vt 0.556618 0.588990
vt 0.537183 0.567356
vt 0.554638 0.557254
vt 0.550010 0.594317
vt 0.543293 0.599078
vt 0.520618 0.580368
vt 0.528976 0.573867
vt 0.564485 0.625637
vt 0.550079 0.621429
vt 0.549586 0.616450
vt 0.557895 0.613452
vt 0.595849 0.591539
vt 0.602253 0.623507
vt 0.569141 0.606091
vt 0.581652 0.593924
vt 0.775372 0.282796
vt 0.767394 0.297548
vt 0.756635 0.303638
vt 0.748211 0.289319
vt 0.753678 0.277832
vt 0.741399 0.283811
vt 0.571504 0.655703
vt 0.774448 0.247706
vt 0.800357 0.255775
vt 0.776728 0.226388
vt 0.796835 0.231708
vt 0.574695 0.675886
vt 0.642408 0.660236
vt 0.641292 0.674545
vt 0.601056 0.673105
vt 0.611223 0.654427
vt 0.819399 0.223087
vt 0.822273 0.235882
vt 0.645531 0.601000
vt 0.637387 0.624157
vt 0.815949 0.267345
vt 0.815052 0.282608
vt 0.822975 0.246005
vt 0.631601 0.647572
vt 0.652991 0.655596
vt 0.811635 0.306047
vt 0.575361 0.689800
vt 0.802913 0.203489
vt 0.825333 0.198448
vt 0.622851 0.699149
vt 0.595849 0.688955
vt 0.782468 0.199177
vt 0.801991 0.185289
vt 0.819604 0.187055
vt 0.781904 0.183539
vt 0.624086 0.714887
vt 0.595549 0.716573
vt 0.573944 0.716684
vt 0.812185 0.153988
vt 0.822283 0.120621
vt 0.844672 0.133294
vt 0.831889 0.157857
vt 0.787541 0.151592
vt 0.793704 0.124641
vt 0.625899 0.754483
vt 0.641103 0.785453
vt 0.609647 0.801063
vt 0.609772 0.764997
vt 0.583585 0.767298
vt 0.583854 0.797514
vt 0.576001 0.744568
vt 0.618654 0.733835
vt 0.596552 0.741635
vt 0.781118 0.172971
vt 0.800291 0.174670
vt 0.822220 0.172196
vt 0.576335 0.815478
vt 0.561350 0.810150
vt 0.569300 0.844395
vt 0.783100 0.101187
vt 0.807385 0.098631
vt 0.777551 0.086277
vt 0.791395 0.073968
vt 0.772275 0.066536
vt 0.766211 0.048819
vt 0.771428 0.050069
vt 0.782771 0.062178
vt 0.764852 0.008862
vt 0.769882 0.008460
vt 0.575005 0.850814
vt 0.577493 0.878688
vt 0.572449 0.879259
vt 0.735088 0.278764
vt 0.723431 0.293034
vt 0.592588 0.821351
vt 0.757415 0.221295
vt 0.751759 0.240151
vt 0.739616 0.267527
vt 0.699702 0.306068
vt 0.460033 0.534656
vt 0.460033 0.558145
vt 0.441477 0.564818
vt 0.423818 0.549518
vt 0.427184 0.522698
vt 0.443185 0.517252
vt 0.664577 0.023264
vt 0.686913 0.009643
vt 0.702828 0.015336
vt 0.702828 0.039436
vt 0.686701 0.054948
vt 0.665249 0.046663
vt 0.467381 0.901120
vt 0.485571 0.875951
vt 0.514978 0.879163
vt 0.540821 0.894750
vt 0.554546 0.925175
vt 0.555873 0.940557
vt 0.547745 0.955846
vt 0.507437 0.955846
vt 0.480538 0.954458
vt 0.467458 0.924674
vt 0.948179 0.678842
vt 0.948060 0.702395
vt 0.934928 0.732156
vt 0.908026 0.733497
vt 0.867719 0.733497
vt 0.859590 0.718208
vt 0.860918 0.702825
vt 0.874697 0.674063
vt 0.900621 0.656801
vt 0.930033 0.653641
s 1
g cuerpo_cuerpo
usemtl cuerpo
f 104/1/104 77/2/77 4/3/4 72/4/72
f 72/4/72 4/3/4 6/5/6 73/6/73
f 73/7/73 6/8/6 8/9/8 74/10/74
f 103/11/103 79/12/79 10/13/10 75/14/75
f 78/15/78 80/16/80 15/17/15 9/18/9
f 5/19/5 13/20/13 14/21/14 7/22/7
f 3/23/3 12/24/12 13/25/13 5/26/5
f 76/27/76 81/28/81 12/24/12 3/23/3
f 78/15/78 9/18/9 17/29/17 82/30/82
f 76/27/76 3/23/3 19/31/19 83/32/83
f 83/32/83 19/31/19 23/33/23 85/34/85
f 82/30/82 17/29/17 21/35/21 84/36/84
f 24/37/24 16/38/16 20/39/20 25/40/25
f 19/31/19 24/41/24 25/42/25 23/33/23
f 5/19/5 7/22/7 28/43/28 27/44/27
f 19/31/19 3/23/3 26/45/26 30/46/30
f 24/41/24 19/31/19 30/46/30 31/47/31
f 16/38/16 24/37/24 31/48/31 29/49/29
f 7/22/7 16/38/16 29/49/29 28/43/28
f 3/23/3 5/26/5 27/50/27 26/45/26
f 84/36/84 21/35/21 33/51/33 86/52/86
f 23/33/23 25/42/25 36/53/36 35/54/35
f 25/40/25 20/39/20 32/55/32 36/56/36
f 85/34/85 23/33/23 35/54/35 87/57/87
f 35/54/35 36/53/36 41/58/41 40/59/40
f 87/57/87 35/54/35 40/59/40 89/60/89
f 36/56/36 32/55/32 37/61/37 41/62/41
f 86/52/86 33/51/33 38/63/38 88/64/88
f 67/65/67 64/66/64 46/67/46 45/68/45
f 101/69/101 67/65/67 45/68/45 91/70/91
f 64/71/64 65/72/65 42/73/42 46/74/46
f 100/75/100 66/76/66 43/77/43 90/78/90
f 88/64/88 38/63/38 51/79/51 92/80/92
f 41/62/41 37/61/37 50/81/50 47/82/47
f 89/60/89 40/59/40 48/83/48 93/84/93
f 40/59/40 41/58/41 47/85/47 48/83/48
f 90/78/90 43/77/43 53/86/53 94/87/94
f 94/87/94 53/86/53 55/88/55 95/89/95
f 91/70/91 45/68/45 57/90/57 96/91/96
f 96/91/96 57/90/57 59/92/59 97/93/97
f 102/94/102 70/95/70 61/96/61 98/97/98
f 99/98/99 98/97/98 61/96/61 63/99/63
f 95/89/95 99/100/99 63/101/63 54/102/54
f 92/80/92 51/79/51 66/76/66 100/75/100
f 47/82/47 50/81/50 65/72/65 64/71/64
f 93/84/93 48/83/48 67/65/67 101/69/101
f 48/83/48 47/85/47 64/66/64 67/65/67
f 53/103/53 43/104/43 55/105/55
f 97/93/97 59/92/59 70/95/70 102/94/102
f 80/16/80 103/11/103 75/14/75 15/17/15
f 13/20/13 73/7/73 74/10/74 14/21/14
f 12/24/12 72/4/72 73/6/73 13/25/13
f 81/28/81 104/1/104 72/4/72 12/24/12
f 11/106/11 71/107/71 104/1/104 81/28/81
f 14/21/14 74/10/74 103/11/103 80/16/80
f 58/108/58 97/93/97 102/94/102 69/109/69
f 49/110/49 93/84/93 101/69/101 68/111/68
f 50/81/50 92/80/92 100/75/100 65/72/65
f 55/88/55 62/112/62 99/100/99 95/89/95
f 62/113/62 60/114/60 98/97/98 99/98/99
f 69/109/69 102/94/102 98/97/98 60/114/60
f 56/115/56 96/91/96 97/93/97 58/108/58
f 44/116/44 91/70/91 96/91/96 56/115/56
f 52/117/52 94/87/94 95/89/95 54/102/54
f 42/73/42 90/78/90 94/87/94 52/117/52
f 39/118/39 89/60/89 93/84/93 49/110/49
f 37/61/37 88/64/88 92/80/92 50/81/50
f 65/72/65 100/75/100 90/78/90 42/73/42
f 68/111/68 101/69/101 91/70/91 44/116/44
f 32/55/32 86/52/86 88/64/88 37/61/37
f 34/119/34 87/57/87 89/60/89 39/118/39
f 22/120/22 85/34/85 87/57/87 34/119/34
f 20/39/20 84/36/84 86/52/86 32/55/32
f 16/38/16 82/30/82 84/36/84 20/39/20
f 18/121/18 83/32/83 85/34/85 22/120/22
f 1/122/1 76/27/76 83/32/83 18/121/18
f 7/22/7 78/15/78 82/30/82 16/38/16
f 1/122/1 11/106/11 81/28/81 76/27/76
f 7/22/7 14/21/14 80/16/80 78/15/78
f 74/10/74 8/9/8 79/12/79 103/11/103
f 71/107/71 2/123/2 77/2/77 104/1/104
f 187/124/187 156/125/156 108/126/108 160/127/160
f 156/125/156 157/128/157 110/129/110 108/126/108
f 157/130/157 158/131/158 112/132/112 110/133/110
f 186/134/186 75/135/75 114/136/114 162/137/162
f 161/138/161 113/139/113 119/140/119 163/141/163
f 109/142/109 111/143/111 118/144/118 117/145/117
f 107/146/107 109/147/109 117/148/117 116/149/116
f 159/150/159 107/146/107 116/149/116 164/151/164
f 161/138/161 165/152/165 17/29/17 113/139/113
f 159/150/159 166/153/166 122/154/122 107/146/107
f 166/153/166 168/155/168 125/156/125 122/154/122
f 165/152/165 167/157/167 21/35/21 17/29/17
f 126/158/126 127/159/127 123/160/123 120/161/120
f 122/154/122 125/156/125 127/162/127 126/163/126
f 109/142/109 129/164/129 130/165/130 111/143/111
f 122/154/122 132/166/132 128/167/128 107/146/107
f 126/163/126 133/168/133 132/166/132 122/154/122
f 120/161/120 131/169/131 133/170/133 126/158/126
f 111/143/111 130/165/130 131/169/131 120/161/120
f 107/146/107 128/167/128 129/171/129 109/147/109
f 167/157/167 169/172/169 33/51/33 21/35/21
f 125/156/125 135/173/135 136/174/136 127/162/127
f 127/159/127 136/175/136 134/176/134 123/160/123
f 168/155/168 170/177/170 135/173/135 125/156/125
f 135/173/135 138/178/138 139/179/139 136/174/136
f 170/177/170 172/180/172 138/178/138 135/173/135
f 136/175/136 139/181/139 137/182/137 134/176/134
f 169/172/169 171/183/171 38/63/38 33/51/33
f 154/184/154 141/185/141 142/186/142 152/187/152
f 184/188/184 174/189/174 141/185/141 154/184/154
f 152/190/152 142/191/142 140/192/140 153/193/153
f 183/194/183 173/195/173 43/77/43 66/76/66
f 171/183/171 175/196/175 51/79/51 38/63/38
f 139/181/139 143/197/143 145/198/145 137/182/137
f 172/180/172 176/199/176 144/200/144 138/178/138
f 138/178/138 144/200/144 143/201/143 139/179/139
f 173/195/173 177/202/177 53/203/53 43/77/43
f 177/202/177 178/204/178 55/88/55 53/203/53
f 174/189/174 179/205/179 148/206/148 141/185/141
f 179/205/179 180/207/180 149/208/149 148/206/148
f 185/209/185 181/210/181 150/211/150 155/212/155
f 182/213/182 151/214/151 150/211/150 181/210/181
f 178/204/178 147/215/147 151/216/151 182/217/182
f 175/196/175 183/194/183 66/76/66 51/79/51
f 143/197/143 152/190/152 153/193/153 145/198/145
f 176/199/176 184/188/184 154/184/154 144/200/144
f 144/200/144 154/184/154 152/187/152 143/201/143
f 180/207/180 185/209/185 155/212/155 149/208/149
f 163/141/163 119/140/119 75/135/75 186/134/186
f 117/145/117 118/144/118 158/131/158 157/130/157
f 116/149/116 117/148/117 157/128/157 156/125/156
f 164/151/164 116/149/116 156/125/156 187/124/187
f 115/218/115 164/151/164 187/124/187 71/219/71
f 118/144/118 163/141/163 186/134/186 158/131/158
f 58/108/58 69/109/69 185/209/185 180/207/180
f 49/110/49 68/111/68 184/188/184 176/199/176
f 145/198/145 153/193/153 183/194/183 175/196/175
f 55/88/55 178/204/178 182/217/182 62/112/62
f 62/113/62 182/213/182 181/210/181 60/114/60
f 69/109/69 60/114/60 181/210/181 185/209/185
f 56/115/56 58/108/58 180/207/180 179/205/179
f 44/116/44 56/115/56 179/205/179 174/189/174
f 146/220/146 147/215/147 178/204/178 177/202/177
f 140/192/140 146/220/146 177/202/177 173/195/173
f 39/118/39 49/110/49 176/199/176 172/180/172
f 137/182/137 145/198/145 175/196/175 171/183/171
f 153/193/153 140/192/140 173/195/173 183/194/183
f 68/111/68 44/116/44 174/189/174 184/188/184
f 134/176/134 137/182/137 171/183/171 169/172/169
f 34/119/34 39/118/39 172/180/172 170/177/170
f 124/221/124 34/119/34 170/177/170 168/155/168
f 123/160/123 134/176/134 169/172/169 167/157/167
f 120/161/120 123/160/123 167/157/167 165/152/165
f 121/222/121 124/221/124 168/155/168 166/153/166
f 105/223/105 121/222/121 166/153/166 159/150/159
f 111/143/111 120/161/120 165/152/165 161/138/161
f 105/223/105 159/150/159 164/151/164 115/218/115
f 111/143/111 161/138/161 163/141/163 118/144/118
f 158/131/158 186/134/186 162/137/162 112/132/112
f 71/219/71 187/124/187 160/127/160 106/224/106
f 27/225/27 28/226/28 29/227/29 31/228/31 30/229/30 26/230/26
f 129/231/129 128/232/128 132/233/132 133/234/133 131/235/131 130/236/130
f 140/237/140 142/238/142 141/239/141 148/240/148 149/241/149 155/242/155 150/243/150 151/244/151 147/245/147 146/246/146
f 42/247/42 52/248/52 54/249/54 63/250/63 61/251/61 70/252/70 59/253/59 57/254/57 45/255/45 46/256/46
