# Blender 5.0.1
# www.blender.org
mtllib piernaIzqMasculino.mtl
o piernaIzq
v -8.086214 1.730340 -11.655438
v -7.868146 2.478410 -11.882633
v -8.061357 1.705608 -11.490255
v -7.855980 2.485839 -11.493581
v -8.232996 1.784556 -11.668724
v -8.114769 2.716042 -11.808328
v -8.244725 1.776443 -11.503935
v -8.134143 2.818936 -11.586586
v -7.910609 2.297920 -11.876501
v -7.878361 2.266800 -11.469150
v -8.266774 2.417972 -11.509473
v -8.237198 2.473405 -11.879453
v -7.997025 1.926824 -11.443718
v -8.284397 2.225146 -11.482947
v -8.260854 2.225954 -11.826623
v -8.027156 1.988968 -11.774988
v -8.150543 1.739792 -11.499833
v -7.976920 2.644390 -11.461532
v -8.146348 1.744841 -11.681620
v -7.997173 2.605501 -11.899155
v -8.061291 2.373055 -11.897904
v -8.069206 2.342384 -11.489375
v -8.140711 2.075985 -11.463332
v -8.132071 2.094855 -11.820318
v -8.223156 0.747649 -11.454973
v -8.070023 1.787239 -11.681473
v -8.227309 0.731190 -11.406590
v -8.055207 1.778775 -11.527474
v -8.292682 0.760406 -11.449964
v -8.233815 1.797699 -11.675814
v -8.287994 0.751085 -11.393150
v -8.234428 1.838062 -11.523941
v -8.065746 1.430498 -11.606966
v -8.073311 1.418796 -11.346997
v -8.344171 1.428574 -11.330604
v -8.337024 1.443138 -11.570002
v -8.149576 1.168911 -11.339596
v -8.319013 1.206851 -11.361069
v -8.316082 1.224419 -11.522044
v -8.143077 1.190813 -11.538074
v -8.261296 0.737676 -11.381935
v -8.150876 1.811294 -11.494189
v -8.260060 0.751538 -11.467214
v -8.142198 1.788511 -11.701471
v -8.190506 1.612869 -11.719195
v -8.210794 1.389306 -11.303835
v -8.252742 1.203644 -11.332246
v -8.245499 1.221644 -11.570539
v -8.142345 1.802707 -11.708641
v -7.549002 1.802307 -11.719976
v -8.174316 0.481348 -11.539106
v -8.172379 0.613401 -11.546108
v -8.180351 0.486484 -11.345717
v -8.168523 0.656558 -11.344261
v -8.385877 0.481490 -11.535066
v -8.386113 0.632944 -11.542031
v -8.353765 0.486601 -11.342404
v -8.340287 0.670183 -11.345253
v -8.172379 0.613401 -11.546108
v -8.168523 0.656558 -11.344261
v -8.339946 0.660551 -11.348600
v -8.386113 0.632944 -11.542031
v -8.210031 0.817906 -11.469037
v -8.209908 0.817885 -11.394528
v -8.291894 0.817939 -11.388583
v -8.295177 0.817961 -11.458348
v -8.166488 0.478526 -11.864736
v -8.162833 0.501658 -11.861450
v -8.419312 0.527091 -11.838489
v -8.420794 0.484559 -11.841810
v -8.146076 0.546504 -11.710938
v -8.402556 0.571936 -11.687977
v -8.404737 0.482748 -11.685998
v -8.150432 0.476714 -11.708923
v -8.265569 0.486294 -11.319716
v -8.258844 0.663434 -11.306109
v -8.286238 0.481183 -11.539172
v -8.236344 0.619385 -11.590214
v -8.258937 0.656609 -11.305566
v -8.285183 0.623716 -11.543957
v -8.257836 0.817912 -11.373467
v -8.255294 0.817937 -11.468172
v -8.252131 0.477139 -11.901092
v -8.249359 0.510750 -11.895588
v -8.284913 0.479659 -11.699022
v -8.232602 0.555595 -11.745077
vn 0.6542 -0.6367 -0.4082
vn 0.7621 0.1289 -0.6345
vn 0.5318 -0.5970 0.6007
vn 0.8329 0.0867 0.5467
vn -0.7988 -0.4233 -0.4274
vn -0.3759 0.6647 -0.6456
vn -0.6607 -0.3399 0.6693
vn -0.5756 0.7532 0.3184
vn 0.7007 -0.2583 -0.6650
vn 0.7718 -0.2025 0.6028
vn -0.8224 0.2121 0.5279
vn -0.7323 0.1760 -0.6578
vn 0.6061 -0.2582 0.7523
vn -0.7559 0.0399 0.6534
vn -0.8105 -0.1115 -0.5751
vn 0.6520 -0.4295 -0.6249
vn -0.3168 -0.5048 0.8030
vn 0.2238 0.4025 0.8876
vn -0.1794 -0.6699 -0.7205
vn 0.2704 0.3833 -0.8832
vn -0.0673 -0.0659 -0.9956
vn -0.0881 0.0928 0.9918
vn -0.1130 0.0061 0.9936
vn -0.1152 -0.3093 -0.9440
vn 0.7618 -0.4920 -0.4214
vn 0.7405 0.2466 -0.6251
vn 0.6314 -0.6107 0.4780
vn 0.8834 0.3778 0.2774
vn -0.8609 -0.3407 -0.3780
vn -0.6825 0.4591 -0.5688
vn -0.7553 -0.3676 0.5425
vn -0.7257 0.6519 0.2200
vn 0.8466 -0.2364 -0.4769
vn 0.8161 -0.0562 0.5752
vn -0.7813 0.1445 0.6072
vn -0.9241 0.0320 -0.3809
vn 0.7054 -0.2201 0.6738
vn -0.8073 -0.1195 0.5779
vn -0.8854 -0.1553 -0.4381
vn 0.7866 -0.3343 -0.5192
vn -0.1359 -0.4681 0.8731
vn 0.1417 0.7259 0.6730
vn -0.1647 -0.5038 -0.8480
vn 0.0821 0.3933 -0.9157
vn -0.1313 -0.1173 -0.9844
vn 0.0140 0.0825 0.9965
vn -0.1186 -0.1167 0.9861
vn -0.1903 -0.2722 -0.9432
vn 0.8627 -0.5007 0.0711
vn 0.8467 0.5309 0.0334
vn 0.7274 -0.4407 0.5260
vn 0.9442 0.2614 0.2003
vn -0.8889 -0.4327 0.1507
vn -0.6447 0.7595 -0.0864
vn -0.6614 -0.3357 0.6707
vn -0.7678 0.6319 0.1055
vn 0.4493 0.8378 -0.3103
vn 0.5633 0.7768 -0.2816
vn 0.5137 0.7844 -0.3475
vn 0.2719 0.7919 -0.5468
vn 0.5160 0.5932 -0.6179
vn 0.7156 0.6072 0.3454
vn -0.6868 0.6182 0.3822
vn -0.5934 0.7010 -0.3956
vn 0.7453 -0.3635 -0.5589
vn 0.7675 0.2918 -0.5708
vn -0.7546 0.4331 -0.4930
vn -0.8043 -0.2356 -0.5455
vn 0.9389 0.3249 -0.1134
vn -0.8760 0.4768 -0.0731
vn -0.8916 -0.4421 0.0981
vn 0.8758 -0.4806 0.0452
vn 0.0436 -0.4541 0.8899
vn 0.8147 0.5267 0.2426
vn -0.0069 -0.9998 0.0173
vn 0.1085 0.9636 -0.2444
vn -0.0411 0.7261 -0.6863
vn 0.0226 0.7085 -0.7054
vn -0.0803 0.6681 0.7397
vn -0.0180 0.6916 -0.7220
vn 0.0623 -0.3115 -0.9482
vn 0.0284 0.4410 -0.8970
vn -0.0186 -0.9998 0.0056
vn 0.1162 0.9390 -0.3236
vt 0.287533 0.278708
vt 0.260993 0.274696
vt 0.319667 0.184755
vt 0.356371 0.192736
vt 0.783788 0.580521
vt 0.827676 0.578266
vt 0.849567 0.642661
vt 0.782303 0.639865
vt 0.344439 0.430940
vt 0.263210 0.434188
vt 0.253139 0.370918
vt 0.288008 0.362878
vt 0.281672 0.320652
vt 0.248400 0.322426
vt 0.199022 0.976502
vt 0.170886 0.976431
vt 0.170886 0.932247
vt 0.196956 0.928060
vt 0.959290 0.693568
vt 0.955768 0.739844
vt 0.852599 0.739844
vt 0.844021 0.695058
vt 0.326790 0.318837
vt 0.342478 0.284269
vt 0.375914 0.421094
vt 0.316249 0.355188
vt 0.742782 0.578975
vt 0.754392 0.629202
vt 0.411916 0.216277
vt 0.399320 0.281154
vt 0.434188 0.244624
vt 0.698881 0.558032
vt 0.698850 0.586083
vt 0.434188 0.363079
vt 0.394503 0.330184
vt 0.394762 0.301217
vt 0.698850 0.531374
vt 0.731006 0.528721
vt 0.783908 0.523013
vt 0.920762 0.637454
vt 0.864420 0.654019
vt 0.225715 0.978099
vt 0.214694 0.934120
vt 0.815333 0.533791
vt 0.222211 0.648253
vt 0.168387 0.669142
vt 0.178728 0.625797
vt 0.250271 0.587508
vt 0.651695 0.597815
vt 0.645557 0.682149
vt 0.620600 0.689685
vt 0.613200 0.603026
vt 0.290166 0.755519
vt 0.202164 0.755519
vt 0.179325 0.720576
vt 0.240060 0.718029
vt 0.195423 0.691850
vt 0.171071 0.692073
vt 0.014452 0.369922
vt 0.006748 0.365662
vt 0.006748 0.350166
vt 0.016694 0.346882
vt 0.234619 0.957685
vt 0.239760 0.928732
vt 0.281121 0.928732
vt 0.288414 0.947961
vt 0.261545 0.677840
vt 0.263523 0.644802
vt 0.310859 0.724137
vt 0.272686 0.699697
vt 0.650921 0.572632
vt 0.630710 0.571170
vt 0.288992 0.593408
vt 0.339513 0.634980
vt 0.347151 0.622793
vt 0.676155 0.508568
vt 0.667245 0.509459
vt 0.357382 0.664220
vt 0.342496 0.656583
vt 0.339121 0.646143
vt 0.688118 0.508576
vt 0.681702 0.571110
vt 0.688118 0.609058
vt 0.245378 0.981234
vt 0.284417 0.974272
vt 0.024860 0.364611
vt 0.026647 0.351178
vt 0.674860 0.686392
vt 0.533665 0.529471
vt 0.544159 0.543626
vt 0.501607 0.552945
vt 0.495765 0.535485
vt 0.456582 0.519218
vt 0.457039 0.562752
vt 0.416235 0.577304
vt 0.414765 0.530515
vt 0.600045 0.628554
vt 0.580472 0.624023
vt 0.581947 0.580346
vt 0.599464 0.589822
vt 0.585147 0.523635
vt 0.568948 0.513267
vt 0.591816 0.500162
vt 0.605996 0.507469
vt 0.510096 0.768743
vt 0.518348 0.745190
vt 0.569896 0.742146
vt 0.568430 0.769610
vt 0.565574 0.545565
vt 0.581906 0.580354
vt 0.565780 0.564667
vt 0.578803 0.623239
vt 0.556228 0.610326
vt 0.555189 0.592823
vt 0.501617 0.552987
vt 0.457994 0.564233
vt 0.544161 0.543652
vt 0.551638 0.032917
vt 0.538243 0.027566
vt 0.537600 0.007777
vt 0.550077 0.007777
vt 0.539661 0.577468
vt 0.519817 0.580393
vt 0.548184 0.585274
vt 0.488924 0.619058
vt 0.459615 0.619505
vt 0.608064 0.504590
vt 0.591818 0.497748
vt 0.610258 0.561209
vt 0.602697 0.555350
vt 0.614813 0.533948
vt 0.619149 0.533846
vt 0.563496 0.507617
vt 0.610575 0.774642
vt 0.610292 0.741264
vt 0.651924 0.741264
vt 0.663038 0.789560
vt 0.565564 0.800303
vt 0.609664 0.811944
vt 0.651296 0.811948
vt 0.417531 0.579557
vt 0.441622 0.628554
vt 0.560883 0.028729
vt 0.561153 0.010183
vt 0.514796 0.792861
vt 0.498030 0.510703
s 1
g piernaIzq_body
usemtl body
f 9/1/9 2/2/2 4/3/4 10/4/10
f 22/5/22 18/6/18 8/7/8 11/8/11
f 11/9/11 8/10/8 6/11/6 12/12/12
f 21/13/21 20/14/20 2/2/2 9/1/9
f 17/15/17 7/16/7 5/17/5 19/18/19
f 18/19/18 4/20/4 2/21/2 20/22/20
f 24/23/24 21/13/21 9/1/9 16/24/16
f 14/25/14 11/9/11 12/12/12 15/26/15
f 23/27/23 22/5/22 11/8/11 14/28/14
f 16/24/16 9/1/9 10/4/10 13/29/13
f 1/30/1 16/24/16 13/29/13 3/31/3
f 17/32/17 23/27/23 14/28/14 7/33/7
f 7/34/7 14/25/14 15/26/15 5/35/5
f 19/36/19 24/23/24 16/24/16 1/30/1
f 5/35/5 15/26/15 24/23/24 19/36/19
f 3/37/3 13/38/13 23/27/23 17/32/17
f 13/38/13 10/39/10 22/5/22 23/27/23
f 15/26/15 12/12/12 21/13/21 24/23/24
f 8/40/8 18/19/18 20/22/20 6/41/6
f 3/42/3 17/15/17 19/18/19 1/43/1
f 12/12/12 6/11/6 20/14/20 21/13/21
f 10/39/10 4/44/4 18/6/18 22/5/22
f 33/45/33 26/46/26 28/47/28 34/48/34
f 46/49/46 42/50/42 32/51/32 35/52/35
f 35/53/35 32/54/32 30/55/30 36/56/36
f 45/57/45 44/58/44 26/46/26 33/45/33
f 41/59/41 31/60/31 29/61/29 43/62/43
f 42/63/42 28/64/28 26/65/26 44/66/44
f 48/67/48 45/57/45 33/45/33 40/68/40
f 38/69/38 35/53/35 36/56/36 39/70/39
f 47/71/47 46/49/46 35/52/35 38/72/38
f 40/68/40 33/45/33 34/48/34 37/73/37
f 25/74/25 40/68/40 37/73/37 27/75/27
f 41/76/41 47/71/47 38/72/38 31/77/31
f 31/78/31 38/69/38 39/70/39 29/79/29
f 43/80/43 48/67/48 40/68/40 25/74/25
f 29/79/29 39/70/39 48/67/48 43/80/43
f 27/81/27 37/82/37 47/71/47 41/76/41
f 37/82/37 34/83/34 46/49/46 47/71/47
f 39/70/39 36/56/36 45/57/45 48/67/48
f 32/84/32 42/63/42 44/66/44 30/85/30
f 27/86/27 41/59/41 43/62/43 25/87/25
f 36/56/36 30/55/30 44/58/44 45/57/45
f 34/83/34 28/88/28 42/50/42 46/49/46
f 51/89/49 52/90/50 54/91/52 53/92/51
f 75/93/73 76/94/74 58/95/56 57/96/55
f 57/97/55 58/98/56 56/99/54 55/100/53
f 86/101/84 71/102/69 68/103/66 84/104/82
f 75/105/73 57/106/55 55/107/53 77/108/75
f 78/109/76 56/99/54 62/110/60 80/111/78
f 62/110/60 61/112/59 65/113/63 66/114/64
f 76/94/74 54/91/52 60/115/58 79/116/77
f 56/99/54 58/98/56 61/112/59 62/110/60
f 54/91/52 52/90/50 59/117/57 60/115/58
f 81/118/79 64/119/62 63/120/61 82/121/80
f 60/115/58 59/117/57 63/122/61 64/123/62
f 80/111/78 62/110/60 66/114/64 82/124/80
f 79/116/77 60/115/58 64/125/62 81/126/79
f 83/127/81 84/104/82 68/103/66 67/128/65
f 73/129/71 72/130/70 69/131/67 70/132/68
f 71/102/69 74/133/72 67/128/65 68/103/66
f 85/134/83 73/135/71 70/136/68 83/137/81
f 77/108/75 55/107/53 73/135/71 85/134/83
f 52/90/50 51/89/49 74/133/72 71/102/69
f 55/100/53 56/99/54 72/130/70 73/129/71
f 78/109/76 52/90/50 71/102/69 86/101/84
f 56/99/54 78/109/76 86/101/84 72/130/70
f 51/138/49 77/108/75 85/134/83 74/139/72
f 74/139/72 85/134/83 83/137/81 67/140/65
f 70/132/68 69/131/67 84/104/82 83/127/81
f 61/141/59 79/116/77 81/126/79 65/142/63
f 59/117/57 80/111/78 82/124/80 63/122/61
f 65/143/63 81/118/79 82/121/80 66/144/64
f 58/95/56 76/94/74 79/116/77 61/141/59
f 52/90/50 78/109/76 80/111/78 59/117/57
f 53/145/51 75/105/73 77/108/75 51/138/49
f 72/130/70 86/101/84 84/104/82 69/131/67
f 53/146/51 54/91/52 76/94/74 75/93/73
