# Blender 5.1.1
# www.blender.org
mtllib tubo_banner.mtl
o Cylinder
v -22.314976 4.888252 -37.431023
v -19.358961 4.888252 -40.387039
v -22.313200 4.863271 -37.429249
v -19.357185 4.863270 -40.385262
v -22.307943 4.839249 -37.423992
v -19.351929 4.839249 -40.380005
v -22.299408 4.817110 -37.415455
v -19.343391 4.817110 -40.371468
v -22.287920 4.797706 -37.403965
v -19.331903 4.797705 -40.359982
v -22.273922 4.781781 -37.389969
v -19.317905 4.781780 -40.345982
v -22.257952 4.769947 -37.373997
v -19.301935 4.769947 -40.330013
v -22.240622 4.762661 -37.356667
v -19.284607 4.762660 -40.312683
v -22.222601 4.760200 -37.338646
v -19.266584 4.760200 -40.294662
v -22.204578 4.762661 -37.320625
v -19.248564 4.762660 -40.276642
v -22.187250 4.769947 -37.303295
v -19.231234 4.769947 -40.259312
v -22.171280 4.781781 -37.287327
v -19.215263 4.781780 -40.243340
v -22.157282 4.797706 -37.273327
v -19.201265 4.797705 -40.229343
v -22.145794 4.817110 -37.261841
v -19.189777 4.817110 -40.217854
v -22.137257 4.839249 -37.253304
v -19.181242 4.839249 -40.209316
v -22.132000 4.863271 -37.248047
v -19.175985 4.863270 -40.204060
v -22.130224 4.888252 -37.246269
v -19.174210 4.888252 -40.202286
v -22.132000 4.913234 -37.248047
v -19.175985 4.913234 -40.204060
v -22.137257 4.937256 -37.253304
v -19.181242 4.937256 -40.209316
v -22.145794 4.959394 -37.261841
v -19.189777 4.959394 -40.217854
v -22.157282 4.978799 -37.273327
v -19.201265 4.978799 -40.229343
v -22.171280 4.994724 -37.287327
v -19.215263 4.994724 -40.243340
v -22.187250 5.006557 -37.303295
v -19.231234 5.006557 -40.259312
v -22.204578 5.013844 -37.320625
v -19.248564 5.013844 -40.276642
v -22.222601 5.016305 -37.338646
v -19.266584 5.016304 -40.294662
v -22.240622 5.013844 -37.356667
v -19.284607 5.013844 -40.312683
v -22.257952 5.006557 -37.373997
v -19.301935 5.006557 -40.330013
v -22.273922 4.994724 -37.389969
v -19.317905 4.994724 -40.345982
v -22.287920 4.978799 -37.403965
v -19.331903 4.978799 -40.359982
v -22.299408 4.959394 -37.415455
v -19.343391 4.959394 -40.371468
v -22.307943 4.937256 -37.423992
v -19.351929 4.937256 -40.380005
v -22.313200 4.913234 -37.429249
v -19.357185 4.913234 -40.385262
vn -0.7036 -0.1000 -0.7036
vn -0.6755 -0.2956 -0.6755
vn -0.6208 -0.4788 -0.6208
vn -0.5422 -0.6420 -0.5422
vn -0.4432 -0.7792 -0.4432
vn -0.3282 -0.8858 -0.3282
vn -0.2015 -0.9585 -0.2015
vn -0.0679 -0.9954 -0.0679
vn 0.0679 -0.9954 0.0679
vn 0.2015 -0.9585 0.2015
vn 0.3282 -0.8858 0.3282
vn 0.4432 -0.7792 0.4432
vn 0.5422 -0.6420 0.5422
vn 0.6208 -0.4788 0.6208
vn 0.6755 -0.2956 0.6755
vn 0.7036 -0.1000 0.7036
vn 0.7036 0.1000 0.7036
vn 0.6755 0.2956 0.6755
vn 0.6208 0.4788 0.6208
vn 0.5422 0.6420 0.5422
vn 0.4432 0.7792 0.4432
vn 0.3282 0.8858 0.3282
vn 0.2015 0.9585 0.2015
vn 0.0679 0.9954 0.0679
vn -0.0679 0.9954 -0.0679
vn -0.2015 0.9585 -0.2015
vn -0.3282 0.8858 -0.3282
vn -0.4432 0.7792 -0.4432
vn -0.5422 0.6420 -0.5422
vn -0.6208 0.4788 -0.6208
vn 0.7071 -0.0000 -0.7071
vn -0.6755 0.2956 -0.6755
vn -0.7036 0.1000 -0.7036
vn -0.7071 -0.0000 0.7071
vt 0.595482 0.832436
vt 0.595482 0.416218
vt 0.635495 0.416218
vt 0.635495 0.832436
vt 0.673186 0.416218
vt 0.673186 0.832436
vt 0.707107 0.416218
vt 0.707107 0.832436
vt 0.414214 0.416218
vt 0.414214 0.000000
vt 0.443061 0.000000
vt 0.443061 0.416218
vt 0.476982 0.000000
vt 0.476982 0.416218
vt 0.514673 0.000000
vt 0.514673 0.416218
vt 0.554686 0.000000
vt 0.554686 0.416218
vt 0.595482 0.000000
vt 0.635495 0.000000
vt 0.673186 0.000000
vt 0.707107 0.000000
vt 0.735954 0.000000
vt 0.735954 0.416218
vt 0.707107 0.832436
vt 0.707107 0.416218
vt 0.735954 0.416218
vt 0.735954 0.832436
vt 0.769875 0.416218
vt 0.769875 0.832436
vt 0.807566 0.416218
vt 0.807566 0.832436
vt 0.847579 0.416218
vt 0.847579 0.832436
vt 0.888375 0.416218
vt 0.888375 0.832436
vt 0.928388 0.416218
vt 0.928388 0.832436
vt 0.966079 0.416218
vt 0.966079 0.832436
vt 1.000000 0.416218
vt 1.000000 0.832436
vt 0.735954 0.000000
vt 0.769875 0.000000
vt 0.807566 0.000000
vt 0.847579 0.000000
vt 0.888375 0.000000
vt 0.928388 0.000000
vt 0.966079 0.000000
vt 1.000000 0.000000
vt 0.414214 0.832436
vt 0.443061 0.832436
vt 0.476982 0.832436
vt 0.514673 0.832436
vt 0.075084 0.367977
vt 0.046236 0.339130
vt 0.023571 0.305209
vt 0.007959 0.267518
vt 0.000000 0.227505
vt 0.000000 0.186709
vt 0.007959 0.146696
vt 0.023571 0.109005
vt 0.046236 0.075084
vt 0.075084 0.046236
vt 0.109005 0.023571
vt 0.146696 0.007959
vt 0.186709 0.000000
vt 0.227505 0.000000
vt 0.267518 0.007959
vt 0.305209 0.023571
vt 0.339130 0.046236
vt 0.367977 0.075084
vt 0.390642 0.109005
vt 0.406255 0.146696
vt 0.414214 0.186709
vt 0.414214 0.227505
vt 0.406255 0.267518
vt 0.390642 0.305209
vt 0.367977 0.339130
vt 0.339130 0.367977
vt 0.305209 0.390642
vt 0.267518 0.406255
vt 0.227505 0.414214
vt 0.186709 0.414214
vt 0.146696 0.406255
vt 0.109005 0.390642
vt 0.554686 0.832436
vt 0.046236 0.753343
vt 0.023571 0.719422
vt 0.007959 0.681731
vt 0.000000 0.641719
vt 0.000000 0.600922
vt 0.007959 0.560910
vt 0.023571 0.523219
vt 0.046236 0.489298
vt 0.075084 0.460450
vt 0.109005 0.437785
vt 0.146696 0.422173
vt 0.186709 0.414214
vt 0.227505 0.414214
vt 0.267518 0.422173
vt 0.305209 0.437785
vt 0.339130 0.460450
vt 0.367977 0.489297
vt 0.390642 0.523219
vt 0.406255 0.560910
vt 0.414214 0.600922
vt 0.414214 0.641719
vt 0.406255 0.681731
vt 0.390642 0.719422
vt 0.367977 0.753343
vt 0.339130 0.782191
vt 0.305209 0.804856
vt 0.267518 0.820468
vt 0.227505 0.828427
vt 0.186709 0.828427
vt 0.146696 0.820468
vt 0.109005 0.804856
vt 0.075084 0.782191
s 0
usemtl Material.003
f 1/1/1 2/2/1 4/3/1 3/4/1
f 3/4/2 4/3/2 6/5/2 5/6/2
f 5/6/3 6/5/3 8/7/3 7/8/3
f 7/9/4 8/10/4 10/11/4 9/12/4
f 9/12/5 10/11/5 12/13/5 11/14/5
f 11/14/6 12/13/6 14/15/6 13/16/6
f 13/16/7 14/15/7 16/17/7 15/18/7
f 15/18/8 16/17/8 18/19/8 17/2/8
f 17/2/9 18/19/9 20/20/9 19/3/9
f 19/3/10 20/20/10 22/21/10 21/5/10
f 21/5/11 22/21/11 24/22/11 23/7/11
f 23/7/12 24/22/12 26/23/12 25/24/12
f 25/25/13 26/26/13 28/27/13 27/28/13
f 27/28/14 28/27/14 30/29/14 29/30/14
f 29/30/15 30/29/15 32/31/15 31/32/15
f 31/32/16 32/31/16 34/33/16 33/34/16
f 33/34/17 34/33/17 36/35/17 35/36/17
f 35/36/18 36/35/18 38/37/18 37/38/18
f 37/38/19 38/37/19 40/39/19 39/40/19
f 39/40/20 40/39/20 42/41/20 41/42/20
f 41/27/21 42/43/21 44/44/21 43/29/21
f 43/29/22 44/44/22 46/45/22 45/31/22
f 45/31/23 46/45/23 48/46/23 47/33/23
f 47/33/24 48/46/24 50/47/24 49/35/24
f 49/35/25 50/47/25 52/48/25 51/37/25
f 51/37/26 52/48/26 54/49/26 53/39/26
f 53/39/27 54/49/27 56/50/27 55/41/27
f 55/51/28 56/9/28 58/12/28 57/52/28
f 57/52/29 58/12/29 60/14/29 59/53/29
f 59/53/30 60/14/30 62/16/30 61/54/30
f 4/55/31 2/56/31 64/57/31 62/58/31 60/59/31 58/60/31 56/61/31 54/62/31 52/63/31 50/64/31 48/65/31 46/66/31 44/67/31 42/68/31 40/69/31 38/70/31 36/71/31 34/72/31 32/73/31 30/74/31 28/75/31 26/76/31 24/77/31 22/78/31 20/79/31 18/80/31 16/81/31 14/82/31 12/83/31 10/84/31 8/85/31 6/86/31
f 61/54/32 62/16/32 64/18/32 63/87/32
f 63/87/33 64/18/33 2/2/33 1/1/33
f 1/88/34 3/89/34 5/90/34 7/91/34 9/92/34 11/93/34 13/94/34 15/95/34 17/96/34 19/97/34 21/98/34 23/99/34 25/100/34 27/101/34 29/102/34 31/103/34 33/104/34 35/105/34 37/106/34 39/107/34 41/108/34 43/109/34 45/110/34 47/111/34 49/112/34 51/113/34 53/114/34 55/115/34 57/116/34 59/117/34 61/118/34 63/119/34
o Plane.001
v -22.767355 0.849274 -37.928974
v -19.845341 0.849274 -40.850990
v -22.235582 4.912617 -37.397202
v -19.313568 4.912617 -40.319214
vn 0.6953 -0.1820 0.6953
vt -0.002243 1.000000
vt -0.002243 0.000000
vt 1.000951 0.000000
vt 1.000950 1.000000
s 0
usemtl Material.002
f 65/120/35 66/121/35 68/122/35 67/123/35
