# Blender 5.0.1
# www.blender.org
mtllib brazoDerMasculino3.mtl
o brazoDer
v -45.963501 2.929144 -40.148876
v -45.766342 3.479173 -40.426685
v -46.137703 2.944150 -40.126678
v -46.000969 3.527196 -40.390217
v -45.958385 2.995115 -40.040817
v -45.770832 3.655324 -40.302685
v -46.120106 3.005892 -40.021564
v -45.969604 3.672112 -40.290241
v -45.777657 3.412723 -40.293339
v -46.059814 3.433698 -40.291111
v -46.059128 3.514062 -40.103157
v -45.760773 3.491685 -40.132229
v -46.118324 3.270010 -40.195164
v -46.062077 3.328072 -40.032455
v -45.836910 3.338993 -40.084698
v -45.858913 3.229903 -40.236988
v -46.043785 2.924966 -40.142704
v -45.903385 3.523638 -40.400509
v -46.042168 2.988805 -40.027027
v -45.867065 3.674809 -40.286915
v -45.879944 3.529376 -40.094952
v -45.933960 3.425828 -40.301758
v -45.988033 3.247529 -40.218231
v -45.946960 3.333659 -40.030582
v -46.128819 2.970797 -40.073685
v -45.984013 3.597343 -40.337082
v -45.951481 2.958944 -40.088142
v -45.767311 3.564938 -40.361538
v -45.767937 3.449893 -40.209637
v -46.058193 3.471569 -40.193985
v -46.088928 3.296731 -40.110661
v -45.834724 3.282138 -40.157795
v -45.883949 3.596913 -40.340565
v -46.050125 2.954577 -40.077061
v -45.981277 2.489438 -40.008743
v -45.972404 2.949838 -40.145153
v -46.040443 2.489239 -40.007195
v -46.134693 2.950581 -40.123562
v -45.974545 2.502612 -39.959942
v -45.957767 2.995771 -40.042236
v -46.037560 2.491630 -39.963806
v -46.117226 3.005716 -40.021229
v -45.930801 2.872833 -40.164307
v -46.143570 2.856453 -40.137970
v -46.113609 2.889412 -39.967674
v -46.012547 2.894646 -39.972195
v -46.007175 2.493422 -40.011803
v -46.042885 2.948302 -40.136307
v -46.001514 2.498424 -39.957806
v -46.040833 2.997202 -40.026508
v -46.060101 2.893785 -39.957527
v -46.029724 2.874002 -40.163662
v -46.049496 2.485134 -39.985664
v -46.123230 2.976977 -40.075649
v -45.956985 2.492436 -39.990063
v -45.965630 2.972805 -40.093689
v -45.947079 2.890189 -40.058178
v -46.153999 2.871663 -40.040291
v -46.040188 2.974523 -40.084019
v -46.003242 2.488785 -39.987865
v -45.887447 2.274807 -39.992970
v -45.990601 2.538621 -40.016811
v -46.043861 2.238823 -39.997139
v -46.044350 2.506063 -40.013283
v -45.885380 2.266378 -39.907425
v -45.976879 2.537543 -39.960701
v -46.041794 2.230395 -39.911594
v -46.039352 2.495852 -39.964191
v -45.907291 2.415490 -40.040657
v -46.059906 2.398203 -40.040813
v -46.051964 2.354002 -39.930714
v -45.899242 2.371192 -39.935455
v -46.043777 2.138231 -40.062492
v -45.860222 2.161592 -40.056324
v -46.036324 2.093860 -40.012417
v -45.852768 2.117221 -40.006248
v -46.014988 2.120518 -40.126644
v -45.864613 2.140975 -40.118008
v -46.008583 2.081077 -40.107765
v -45.858208 2.101534 -40.099125
v -45.955296 2.121892 -40.164909
v -45.910908 2.128209 -40.160236
v -45.952316 2.103031 -40.165714
v -45.907928 2.109348 -40.161037
v -45.792389 2.311222 -40.059361
v -45.827614 2.269261 -40.034710
v -45.845806 2.284710 -40.072735
v -45.813972 2.326902 -40.092739
v -45.772499 2.212119 -40.096645
v -45.798573 2.202072 -40.085979
v -45.810513 2.211480 -40.096767
v -45.786907 2.222122 -40.118176
v -46.032822 2.234605 -39.962009
v -46.055134 2.500957 -39.987667
v -45.876408 2.270588 -39.957840
v -45.955978 2.532406 -39.996655
v -45.893150 2.393073 -39.995453
v -46.045929 2.376098 -39.993404
v -46.030045 2.116041 -40.045097
v -45.846489 2.139402 -40.038925
v -46.001781 2.100793 -40.124844
v -45.851406 2.121251 -40.116207
v -45.943798 2.112457 -40.172951
v -45.899410 2.118774 -40.168278
v -45.826702 2.276981 -40.061363
v -45.793175 2.319057 -40.083691
v -45.794537 2.206772 -40.099014
v -45.769699 2.217116 -40.115051
v -45.965660 2.256815 -39.995815
v -46.010151 2.519736 -40.014233
v -45.963593 2.248386 -39.910271
v -46.002724 2.511519 -39.958023
v -45.975609 2.362596 -39.933846
v -45.983494 2.406583 -40.041252
v -45.952007 2.149911 -40.060169
v -45.944553 2.105540 -40.010094
v -45.939808 2.130746 -40.123085
v -45.933403 2.091305 -40.104206
v -45.933105 2.125050 -40.163334
v -45.930126 2.106189 -40.164135
v -45.921612 2.115615 -40.171375
v -45.995708 2.535873 -39.996460
vn 0.5834 -0.6768 -0.4490
vn 0.5615 0.0465 -0.8261
vn -0.9522 -0.2862 -0.1066
vn -0.5403 0.1756 -0.8229
vn 0.5085 -0.3584 0.7829
vn 0.8092 0.4966 -0.3139
vn -0.5740 -0.2242 0.7876
vn -0.5734 0.7273 -0.3771
vn 0.8935 -0.3508 -0.2802
vn -0.8553 0.0469 -0.5160
vn -0.8362 0.3695 0.4052
vn 0.8859 0.0139 0.4637
vn -0.9103 0.0479 -0.4111
vn -0.6350 0.1908 0.7486
vn 0.7394 -0.1276 0.6610
vn 0.6483 -0.4652 -0.6027
vn -0.1644 -0.7842 -0.5984
vn -0.0805 0.1599 -0.9838
vn 0.0852 -0.3769 0.9223
vn 0.0734 0.9074 -0.4138
vn 0.2170 0.4370 0.8729
vn -0.1250 -0.5463 -0.8282
vn -0.1468 -0.2905 -0.9455
vn 0.1823 0.0967 0.9785
vn -0.8627 -0.2998 0.4073
vn -0.6029 0.5635 -0.5648
vn 0.7490 -0.5735 0.3319
vn 0.8106 0.3172 -0.4922
vn 0.9833 -0.1800 0.0262
vn -0.9554 0.2905 -0.0530
vn -0.9768 0.1551 0.1475
vn 0.9323 -0.3422 0.1172
vn -0.0021 0.5842 -0.8116
vn -0.0252 -0.8581 0.5129
vn 0.6980 -0.6116 -0.3724
vn 0.2928 0.5345 -0.7929
vn -0.6009 -0.6306 -0.4912
vn -0.6202 0.4385 -0.6505
vn 0.5010 -0.3158 0.8058
vn 0.8184 0.4369 0.3733
vn -0.3605 -0.4009 0.8422
vn -0.7181 0.6053 0.3433
vn 0.7370 0.0730 -0.6720
vn -0.7637 0.0267 -0.6450
vn -0.6465 0.0686 0.7598
vn 0.5247 0.2006 0.8273
vn -0.0273 -0.6872 -0.7259
vn -0.1206 0.5116 -0.8507
vn 0.0906 -0.3958 0.9139
vn 0.0742 0.9267 0.3685
vn 0.0114 0.1768 0.9842
vn -0.0959 0.0349 -0.9948
vn -0.8140 -0.4801 0.3269
vn -0.7839 0.5962 -0.1733
vn 0.9008 -0.2290 0.3690
vn 0.7300 0.6704 -0.1330
vn 0.9782 0.0324 0.2051
vn -0.9899 -0.0185 0.1402
vn -0.0265 0.9061 -0.4221
vn 0.0798 -0.9899 0.1176
vn 0.2118 0.0132 -0.9772
vn 0.0078 0.5734 -0.8193
vn -0.9815 -0.0308 -0.1890
vn -0.6417 0.4385 -0.6292
vn 0.4545 -0.1911 0.8700
vn 0.2269 0.6542 0.7215
vn -0.5924 -0.2084 0.7782
vn -0.7682 0.3177 0.5558
vn 0.2981 0.2733 -0.9146
vn -0.7454 0.0214 -0.6663
vn -0.8494 0.0418 0.5261
vn 0.5555 0.2699 0.7865
vn -0.8838 0.1035 -0.4563
vn 0.6481 0.6209 -0.4410
vn -0.8551 -0.4386 0.2766
vn 0.8026 -0.3881 0.4530
vn -0.7491 0.2303 -0.6211
vn 0.4751 0.7443 -0.4695
vn -0.8245 -0.4701 -0.3150
vn 0.7718 -0.6326 -0.0637
vn -0.4747 0.3460 -0.8093
vn 0.0990 0.8000 -0.5918
vn -0.3410 -0.6352 -0.6930
vn 0.2948 -0.8186 -0.4929
vn 0.8572 0.1575 0.4903
vn 0.5807 -0.5275 0.6200
vn -0.7580 -0.4048 -0.5114
vn -0.0956 0.4218 -0.9017
vn 0.9090 -0.3010 0.2882
vn -0.0880 -0.7197 0.6887
vn -0.8395 -0.5409 -0.0521
vn -0.0070 0.0093 -0.9999
vn -0.9982 -0.0447 -0.0401
vn -0.9573 0.2661 0.1132
vn 0.9338 -0.3569 -0.0267
vn 0.7431 0.6614 -0.1017
vn 0.7975 0.5898 0.1271
vn -0.9888 -0.0098 0.1492
vn -0.9859 -0.1452 -0.0834
vn 0.9989 0.0170 -0.0430
vn -0.6954 -0.3544 -0.6252
vn 0.9190 0.0216 -0.3936
vn -0.0665 0.1191 -0.9906
vn 0.5398 0.1159 -0.8338
vn -0.6946 -0.6724 0.2559
vn 0.7949 0.4626 -0.3926
vn -0.3504 -0.8926 -0.2836
vn 0.8399 -0.0424 -0.5411
vn -0.0099 0.1823 -0.9832
vn -0.2099 0.5186 -0.8289
vn 0.0264 -0.2260 0.9738
vn -0.1691 0.4479 0.8779
vn -0.0319 0.1818 0.9828
vn -0.0166 0.0057 -0.9998
vn -0.0838 0.7064 -0.7028
vn 0.0969 -0.7694 0.6314
vn -0.1170 0.9643 -0.2377
vn 0.1369 -0.9901 -0.0295
vn -0.0649 0.8088 -0.5845
vn 0.1618 -0.8462 -0.5078
vn 0.0980 0.1605 -0.9822
vn -0.3457 0.9321 0.1084
vt 0.361009 0.006421
vt 0.378451 0.059250
vt 0.319350 0.050511
vt 0.303912 0.009294
vt 0.403895 0.086369
vt 0.424369 0.110350
vt 0.325522 0.091768
vt 0.323540 0.072090
vt 0.289981 0.131783
vt 0.246970 0.109296
vt 0.241303 0.025922
vt 0.289981 0.027866
vt 0.230036 0.092688
vt 0.210400 0.068978
vt 0.196345 0.006625
vt 0.218554 0.017830
vt 0.031154 0.426441
vt 0.032415 0.383802
vt 0.049547 0.389708
vt 0.050159 0.426283
vt 0.305664 0.469578
vt 0.356957 0.470845
vt 0.362085 0.495320
vt 0.301611 0.493079
vt 0.221476 0.140962
vt 0.193713 0.128268
vt 0.275972 0.199799
vt 0.245838 0.154418
vt 0.460140 0.092657
vt 0.475359 0.119443
vt 0.428111 0.011436
vt 0.442356 0.065346
vt 0.519055 0.019373
vt 0.524880 0.062115
vt 0.535578 0.080090
vt 0.544316 0.099108
vt 0.245436 0.279793
vt 0.222511 0.248511
vt 0.206777 0.237923
vt 0.185269 0.225565
vt 0.546262 0.135356
vt 0.467229 0.169746
vt 0.152417 0.240789
vt 0.140834 0.149548
vt 0.143332 0.083386
vt 0.397952 0.179475
vt 0.262855 0.474317
vt 0.259462 0.495320
vt 0.027167 0.460348
vt 0.047068 0.460059
vt 0.303912 0.133760
vt 0.139598 0.028521
vt 0.006596 0.460835
vt 0.006596 0.419674
vt 0.265380 0.455096
vt 0.308850 0.448008
vt 0.350934 0.448202
vt 0.008721 0.385098
vt 0.218807 0.785177
vt 0.203107 0.833503
vt 0.186056 0.829509
vt 0.199771 0.787698
vt 0.211695 0.866104
vt 0.221814 0.892303
vt 0.184706 0.877269
vt 0.180654 0.851756
vt 0.451535 0.899383
vt 0.474188 0.898678
vt 0.512565 0.932608
vt 0.473776 0.940480
vt 0.518233 0.911418
vt 0.549627 0.917133
vt 0.557348 0.933975
vt 0.534730 0.937452
vt 0.214081 0.284543
vt 0.210365 0.264991
vt 0.223068 0.271154
vt 0.225715 0.282489
vt 0.584569 0.688326
vt 0.584825 0.720670
vt 0.564849 0.720775
vt 0.564642 0.690226
vt 0.498929 0.812334
vt 0.511782 0.814675
vt 0.471767 0.808745
vt 0.484264 0.808410
vt 0.309798 0.889236
vt 0.314342 0.899465
vt 0.317077 0.866298
vt 0.308011 0.878393
vt 0.526353 0.810106
vt 0.588589 0.921813
vt 0.319763 0.915401
vt 0.225508 0.914979
vt 0.583286 0.652438
vt 0.564642 0.650355
vt 0.217833 0.304089
vt 0.225715 0.298037
vt 0.176250 0.915401
vt 0.594070 0.940480
vt 0.208023 0.301372
vt 0.203901 0.287504
vt 0.604134 0.651783
vt 0.606610 0.684723
vt 0.604856 0.721035
vt 0.204185 0.276193
vt 0.396917 0.763134
vt 0.387748 0.741751
vt 0.399083 0.736328
vt 0.406662 0.744595
vt 0.156459 0.628810
vt 0.126594 0.622390
vt 0.162612 0.599937
vt 0.178691 0.603279
vt 0.110953 0.597456
vt 0.085999 0.576997
vt 0.150256 0.564858
vt 0.153976 0.580664
vt 0.440265 0.793893
vt 0.417068 0.793967
vt 0.412702 0.749027
vt 0.423074 0.759682
vt 0.357684 0.852702
vt 0.324133 0.844183
vt 0.322548 0.833709
vt 0.364574 0.832951
vt 0.068548 0.293572
vt 0.072161 0.310358
vt 0.060377 0.297505
vt 0.061387 0.288245
vt 0.071247 0.597509
vt 0.027619 0.536446
vt 0.027605 0.508175
vt 0.090431 0.612267
vt 0.114595 0.644050
vt 0.106756 0.627308
vt 0.356554 0.783849
vt 0.343332 0.744904
vt 0.300898 0.828511
vt 0.302024 0.822515
vt 0.085926 0.659119
vt 0.090923 0.646735
vt 0.330230 0.794215
vt 0.321737 0.762108
vt 0.067017 0.630651
vt 0.046259 0.610801
vt 0.041520 0.653978
vt 0.022991 0.677943
vt 0.014048 0.670179
vt 0.019282 0.630459
vt 0.061612 0.677508
vt 0.066483 0.669515
vt 0.308020 0.797300
vt 0.309449 0.775716
vt 0.016132 0.679983
vt 0.006978 0.671109
vt 0.294872 0.796407
vt 0.296825 0.789816
vt 0.290134 0.807093
vt 0.293588 0.803795
vt 0.026945 0.686550
vt 0.032632 0.683340
vt 0.011856 0.513064
vt 0.011187 0.503886
vt 0.442026 0.837468
vt 0.435522 0.833585
vt 0.419878 0.832373
vt 0.055714 0.586555
vt 0.011134 0.529057
vt 0.429357 0.849952
vt 0.427876 0.845558
vt 0.435917 0.848163
vt 0.438805 0.852702
vt 0.006978 0.510371
vt 0.418183 0.841078
vt 0.007036 0.497756
vt 0.029256 0.495554
vt 0.091582 0.541562
vt 0.293358 0.792212
vt 0.305018 0.773628
vt 0.008316 0.632843
vt 0.291367 0.799465
vt 0.318164 0.754894
vt 0.334319 0.730301
vt 0.032679 0.612284
vt 0.375625 0.733303
vt 0.086211 0.286303
vt 0.084626 0.298503
vt 0.147178 0.541640
vt 0.393576 0.728776
vt 0.082041 0.271069
vt 0.070509 0.266772
vt 0.060377 0.273448
s 1
g brazoDer_body
usemtl body
f 22/1/22 10/2/10 4/3/4 18/4/18
f 30/5/30 11/6/11 8/7/8 26/8/26
f 21/9/21 12/10/12 6/11/6 20/12/20
f 29/13/29 9/14/9 2/15/2 28/16/28
f 34/17/34 27/18/27 5/19/5 19/20/19
f 33/21/33 28/22/28 2/23/2 18/24/18
f 32/25/32 16/26/16 9/14/9 29/13/29
f 24/27/24 15/28/15 12/10/12 21/9/21
f 31/29/31 14/30/14 11/6/11 30/5/30
f 23/31/23 13/32/13 10/2/10 22/1/22
f 17/33/17 3/34/3 13/32/13 23/31/23
f 25/35/25 7/36/7 14/30/14 31/29/31
f 19/37/19 5/38/5 15/28/15 24/27/24
f 27/39/27 1/40/1 16/26/16 32/25/32
f 7/36/7 19/41/19 24/42/24 14/30/14
f 1/40/1 17/43/17 23/44/23 16/26/16
f 16/26/16 23/44/23 22/45/22 9/14/9
f 14/30/14 24/42/24 21/46/21 11/6/11
f 26/47/26 33/21/33 18/24/18 4/48/4
f 25/49/25 34/17/34 19/20/19 7/50/7
f 11/6/11 21/46/21 20/51/20 8/7/8
f 9/14/9 22/45/22 18/52/18 2/15/2
f 3/53/3 17/54/17 34/17/34 25/49/25
f 8/55/8 20/56/20 33/21/33 26/47/26
f 5/38/5 27/39/27 32/25/32 15/28/15
f 3/34/3 25/35/25 31/29/31 13/32/13
f 13/32/13 31/29/31 30/5/30 10/2/10
f 15/28/15 32/25/32 29/13/29 12/10/12
f 20/56/20 6/57/6 28/22/28 33/21/33
f 17/54/17 1/58/1 27/18/27 34/17/34
f 12/10/12 29/13/29 28/16/28 6/11/6
f 10/2/10 30/5/30 26/8/26 4/3/4
f 52/59/52 44/60/44 38/61/38 48/62/48
f 58/63/58 45/64/45 42/65/42 54/66/54
f 51/67/51 46/68/46 40/69/40 50/70/50
f 57/71/57 43/72/43 36/73/36 56/74/56
f 60/75/60 55/76/55 39/77/39 49/78/49
f 59/79/59 56/80/56 36/81/36 48/82/48
f 55/83/55 35/84/35 43/72/43 57/71/57
f 49/85/49 39/86/39 46/68/46 51/67/51
f 53/87/53 41/88/41 45/64/45 58/63/58
f 47/89/47 37/90/37 44/60/44 52/59/52
f 35/84/35 47/91/47 52/92/52 43/72/43
f 41/88/41 49/93/49 51/94/51 45/64/45
f 54/95/54 59/79/59 48/82/48 38/96/38
f 53/97/53 60/75/60 49/78/49 41/98/41
f 45/64/45 51/94/51 50/99/50 42/65/42
f 43/72/43 52/92/52 48/100/48 36/73/36
f 37/101/37 47/102/47 60/75/60 53/97/53
f 42/103/42 50/104/50 59/79/59 54/95/54
f 37/90/37 53/87/53 58/63/58 44/60/44
f 39/86/39 55/83/55 57/71/57 46/68/46
f 50/104/50 40/105/40 56/80/56 59/79/59
f 47/102/47 35/106/35 55/76/55 60/75/60
f 46/68/46 57/71/57 56/74/56 40/69/40
f 44/60/44 58/63/58 54/66/54 38/61/38
f 114/107/114 70/108/70 64/109/64 110/110/110
f 98/111/98 71/112/71 68/113/68 94/114/94
f 113/115/113 72/116/72 66/117/66 112/118/112
f 97/119/97 69/120/69 62/121/62 96/122/96
f 95/123/95 100/124/100 74/125/74 61/126/61
f 122/127/122 96/128/96 62/129/62 110/130/110
f 65/131/65 86/132/86 85/133/85 72/116/72
f 111/134/111 65/131/65 72/116/72 113/115/113
f 93/135/93 67/136/67 71/112/71 98/111/98
f 109/137/109 63/138/63 70/108/70 114/107/114
f 100/124/100 102/139/102 78/140/78 74/125/74
f 93/135/93 99/141/99 75/142/75 67/136/67
f 109/137/109 115/143/115 73/144/73 63/138/63
f 111/134/111 116/145/116 76/146/76 65/131/65
f 118/147/118 120/148/120 84/149/84 80/150/80
f 99/141/99 101/151/101 79/152/79 75/142/75
f 116/145/116 118/147/118 80/150/80 76/146/76
f 115/143/115 117/153/117 77/154/77 73/144/73
f 121/155/121 104/156/104 84/149/84 120/148/120
f 117/153/117 119/157/119 81/158/81 77/154/77
f 102/139/102 104/159/104 82/160/82 78/140/78
f 101/151/101 103/161/103 83/162/83 79/152/79
f 86/132/86 90/163/90 89/164/89 85/133/85
f 97/119/97 106/165/106 88/166/88 69/120/69
f 69/120/69 88/166/88 87/167/87 61/126/61
f 95/168/95 105/169/105 86/132/86 65/131/65
f 107/170/107 91/171/91 92/172/92 108/173/108
f 106/165/106 108/173/108 92/172/92 88/166/88
f 105/169/105 107/174/107 90/163/90 86/132/86
f 88/166/88 92/172/92 91/171/91 87/167/87
f 87/167/87 91/171/91 107/170/107 105/175/105
f 85/133/85 89/164/89 108/176/108 106/177/106
f 90/163/90 107/174/107 108/176/108 89/164/89
f 61/126/61 87/167/87 105/175/105 95/123/95
f 72/116/72 85/133/85 106/177/106 97/178/97
f 77/154/77 81/158/81 103/179/103 101/180/101
f 80/150/80 84/149/84 104/156/104 102/181/102
f 119/157/119 82/160/82 104/159/104 121/182/121
f 73/144/73 77/154/77 101/180/101 99/183/99
f 63/138/63 73/144/73 99/183/99 93/184/93
f 76/146/76 80/150/80 102/181/102 100/185/100
f 63/138/63 93/184/93 98/186/98 70/108/70
f 112/187/112 66/188/66 96/128/96 122/127/122
f 65/131/65 76/146/76 100/185/100 95/168/95
f 72/116/72 97/178/97 96/189/96 66/117/66
f 70/108/70 98/186/98 94/190/94 64/109/64
f 68/191/68 112/187/112 122/127/122 94/192/94
f 81/158/81 119/157/119 121/182/121 103/179/103
f 78/140/78 82/160/82 119/157/119 117/153/117
f 103/161/103 121/155/121 120/148/120 83/162/83
f 74/125/74 78/140/78 117/153/117 115/143/115
f 75/142/75 79/152/79 118/147/118 116/145/116
f 79/152/79 83/162/83 120/148/120 118/147/118
f 67/136/67 75/142/75 116/145/116 111/134/111
f 61/126/61 74/125/74 115/143/115 109/137/109
f 61/126/61 109/137/109 114/107/114 69/120/69
f 67/136/67 111/134/111 113/115/113 71/112/71
f 94/192/94 122/127/122 110/130/110 64/193/64
f 71/112/71 113/115/113 112/118/112 68/113/68
f 69/120/69 114/107/114 110/110/110 62/121/62
