# Blender 5.0.1
# www.blender.org
mtllib piernaDerMasculino3.mtl
o piernaDer
v -45.663189 1.730014 -40.450222
v -45.442074 2.478385 -40.675514
v -45.828991 1.705311 -40.470459
v -45.831310 2.485820 -40.676903
v -45.645885 1.784033 -40.303936
v -45.509586 2.715683 -40.427246
v -45.810291 1.775900 -40.287636
v -45.730713 2.818544 -40.401875
v -45.447033 2.297837 -40.632652
v -45.855118 2.266750 -40.653557
v -45.804157 2.417400 -40.266617
v -45.435127 2.472882 -40.306507
v -45.877281 1.926613 -40.533775
v -45.830185 2.224550 -40.248005
v -45.487286 2.225398 -40.281063
v -45.545307 1.988726 -40.512920
v -45.816971 1.739375 -40.381618
v -45.860031 2.644207 -40.555336
v -45.635368 1.744434 -40.390858
v -45.422020 2.605303 -40.547165
v -45.421509 2.372770 -40.482723
v -45.829666 2.342077 -40.463448
v -45.853733 2.075581 -40.390888
v -45.497120 2.094472 -40.409447
v -45.777046 0.480899 -40.357243
v -45.770103 0.612956 -40.359550
v -45.970200 0.486022 -40.345856
v -45.971981 0.656112 -40.357868
v -45.775284 0.480757 -40.145649
v -45.768318 0.632210 -40.145813
v -45.968754 0.485906 -40.172417
v -45.966278 0.669506 -40.186218
v -45.770103 0.612956 -40.359550
v -45.971981 0.656112 -40.357868
v -45.962940 0.659875 -40.186638
v -45.768318 0.632210 -40.145813
v -45.846115 0.817408 -40.320053
v -45.920597 0.817385 -40.318111
v -45.924294 0.817329 -40.235992
v -45.854465 0.817348 -40.234646
v -45.451756 0.478096 -40.374088
v -45.455143 0.501233 -40.377682
v -45.471062 0.526320 -40.120697
v -45.467697 0.483786 -40.119251
v -45.606056 0.546097 -40.390320
v -45.621975 0.571184 -40.133335
v -45.623894 0.481992 -40.130981
v -45.607952 0.476303 -40.385818
v -45.993851 0.485717 -40.259949
v -46.007641 0.662866 -40.266533
v -45.773914 0.480584 -40.245365
v -45.724262 0.618854 -40.296841
v -46.008183 0.656040 -40.266418
v -45.769161 0.623118 -40.246742
v -45.940338 0.817347 -40.269619
v -45.845737 0.817377 -40.274784
v -45.413067 0.476595 -40.289482
v -45.418644 0.510210 -40.292145
v -45.614159 0.479065 -40.251114
v -45.569557 0.555073 -40.304787
v -45.859814 0.747133 -40.306450
v -45.637611 1.786936 -40.467205
v -45.908062 0.730666 -40.300934
v -45.791958 1.778488 -40.477737
v -45.862915 0.759796 -40.236828
v -45.638775 1.797175 -40.303333
v -45.919834 0.750479 -40.239925
v -45.790573 1.837533 -40.298565
v -45.712204 1.430198 -40.468933
v -45.971867 1.418479 -40.454151
v -45.980824 1.427892 -40.182953
v -45.741714 1.442472 -40.196751
v -45.977169 1.168491 -40.377373
v -45.951057 1.206203 -40.208649
v -45.790222 1.223780 -40.216061
v -45.778946 1.190407 -40.389400
v -45.931778 0.737106 -40.266285
v -45.822605 1.810877 -40.381226
v -45.846565 0.750972 -40.269905
v -45.615643 1.788111 -40.395615
v -45.596596 1.612404 -40.347580
v -46.011242 1.388803 -40.315483
v -45.981689 1.203085 -40.274090
v -45.743683 1.221101 -40.287960
vn 0.4749 -0.7162 -0.5114
vn 0.5043 0.2371 -0.8304
vn -0.7833 -0.5634 -0.2626
vn -0.5083 0.1824 -0.8417
vn 0.3852 -0.4164 0.8235
vn 0.6990 0.7058 0.1149
vn -0.5053 -0.4054 0.7618
vn -0.3779 0.9050 0.1951
vn 0.7219 -0.2340 -0.6512
vn -0.7440 -0.1699 -0.6462
vn -0.5670 0.2062 0.7975
vn 0.7432 0.1089 0.6602
vn -0.8431 -0.2106 -0.4948
vn -0.6120 0.0112 0.7908
vn 0.6154 -0.1294 0.7775
vn 0.6768 -0.4251 -0.6010
vn -0.7711 -0.5384 0.3399
vn -0.8401 0.4453 -0.3098
vn 0.7077 -0.6739 0.2121
vn 0.8326 0.4046 -0.3783
vn 0.9973 -0.0524 0.0524
vn -0.9856 0.1023 0.1344
vn -0.9895 0.0038 0.1441
vn 0.9478 -0.3058 0.0902
vn -0.0930 -0.5197 -0.8493
vn -0.0671 0.5655 -0.8220
vn -0.6585 -0.3822 -0.6484
vn 0.1280 0.4070 -0.9044
vn -0.1221 -0.4575 0.8808
vn 0.1359 0.8215 0.5538
vn -0.5482 -0.4114 0.7282
vn 0.1001 0.9389 0.3294
vn 0.4341 0.8312 -0.3474
vn 0.0835 0.8726 -0.4813
vn 0.3444 0.6044 -0.7184
vn 0.4528 0.7568 -0.4714
vn 0.4656 0.5758 -0.6720
vn -0.2869 0.5602 -0.7771
vn -0.4225 0.6552 0.6263
vn 0.5447 0.7113 0.4442
vn 0.6372 -0.3181 -0.7020
vn 0.4815 0.3719 -0.7936
vn 0.6163 0.3785 0.6906
vn 0.4530 -0.3203 0.8320
vn 0.1078 0.3889 -0.9150
vn 0.0972 0.4839 0.8697
vn -0.0725 -0.4590 0.8855
vn -0.0745 -0.4817 -0.8732
vn -0.8874 -0.4517 0.0915
vn 0.5489 -0.1251 -0.8265
vn -0.0171 -0.9998 0.0060
vn 0.2413 0.9619 -0.1284
vn 0.6844 0.7029 -0.1940
vn 0.6931 0.7200 -0.0347
vn -0.7400 0.6723 -0.0196
vn 0.7274 0.6861 -0.0082
vn 0.9508 -0.3065 0.0460
vn 0.8822 0.4452 -0.1531
vn -0.0050 -0.9998 0.0173
vn 0.3213 0.9386 -0.1257
vn 0.5072 -0.5117 -0.6934
vn 0.4889 0.3663 -0.7917
vn -0.6155 -0.6219 -0.4842
vn -0.2685 0.4030 -0.8749
vn 0.3504 -0.3691 0.8608
vn 0.6447 0.4100 0.6452
vn -0.3989 -0.4270 0.8115
vn -0.2901 0.7519 0.5920
vn 0.4538 -0.2204 -0.8634
vn -0.6495 0.0395 -0.7593
vn -0.5992 0.0642 0.7980
vn 0.4855 -0.0298 0.8737
vn -0.7373 -0.2081 -0.6428
vn -0.5162 -0.1132 0.8489
vn 0.4765 -0.1515 0.8660
vn 0.5333 -0.3437 -0.7729
vn -0.8419 -0.4710 0.2635
vn -0.6750 0.7190 -0.1657
vn 0.8237 -0.4964 0.2739
vn 0.8795 0.4140 -0.2346
vn 0.9783 -0.1031 0.1795
vn -0.9960 0.0876 -0.0203
vn -0.9842 -0.1233 0.1270
vn 0.9440 -0.2620 0.2005
vt 0.207552 0.379594
vt 0.140210 0.292699
vt 0.178615 0.281577
vt 0.239195 0.370370
vt 0.492537 0.683566
vt 0.470717 0.636224
vt 0.553316 0.636224
vt 0.548633 0.692578
vt 0.147339 0.525885
vt 0.188146 0.448396
vt 0.237105 0.450224
vt 0.243768 0.512544
vt 0.201473 0.415546
vt 0.244525 0.409419
vt 0.970456 0.538760
vt 0.968118 0.586233
vt 0.945952 0.582727
vt 0.945952 0.539425
vt 0.912996 0.214743
vt 0.912911 0.101454
vt 0.946750 0.110999
vt 0.946750 0.212264
vt 0.151760 0.420927
vt 0.141984 0.393359
vt 0.111519 0.522089
vt 0.157074 0.449729
vt 0.441868 0.683369
vt 0.439750 0.644019
vt 0.073778 0.330520
vt 0.081280 0.402607
vt 0.046842 0.367364
vt 0.394333 0.695516
vt 0.384774 0.673149
vt 0.046842 0.484858
vt 0.079608 0.445082
vt 0.082933 0.421291
vt 0.403439 0.716870
vt 0.443734 0.722658
vt 0.511218 0.730440
vt 0.871581 0.175451
vt 0.881027 0.119823
vt 0.993774 0.536628
vt 0.984391 0.579984
vt 0.546931 0.726131
vt 0.445033 0.406970
vt 0.449497 0.364657
vt 0.470687 0.370853
vt 0.461083 0.419078
vt 0.441875 0.308896
vt 0.449612 0.270402
vt 0.488325 0.293986
vt 0.477298 0.329815
vt 0.532939 0.490191
vt 0.497677 0.485870
vt 0.491601 0.467559
vt 0.532761 0.470356
vt 0.437390 0.464203
vt 0.419186 0.481697
vt 0.416832 0.466955
vt 0.430379 0.447190
vt 0.821958 0.512562
vt 0.821788 0.455162
vt 0.848652 0.453070
vt 0.845020 0.503889
vt 0.459914 0.443867
vt 0.476125 0.447941
vt 0.491615 0.467529
vt 0.504044 0.430445
vt 0.523299 0.434228
vt 0.531892 0.468689
vt 0.478911 0.329797
vt 0.470735 0.370863
vt 0.461112 0.419081
vt 0.110759 0.291549
vt 0.111589 0.266884
vt 0.123830 0.266884
vt 0.123752 0.286299
vt 0.492102 0.388144
vt 0.491530 0.407576
vt 0.497968 0.420611
vt 0.523997 0.352520
vt 0.523155 0.378205
vt 0.416860 0.484445
vt 0.414333 0.467475
vt 0.468897 0.495410
vt 0.440692 0.503941
vt 0.440648 0.499269
vt 0.463937 0.487084
vt 0.423432 0.440866
vt 0.817161 0.413815
vt 0.802985 0.362545
vt 0.849567 0.372396
vt 0.849564 0.413328
vt 0.791715 0.458711
vt 0.780899 0.415570
vt 0.780899 0.374638
vt 0.491011 0.293849
vt 0.532939 0.335873
vt 0.101572 0.287441
vt 0.100789 0.269245
vt 0.798349 0.508512
vt 0.435986 0.346798
vt 0.536473 0.214337
vt 0.495584 0.266316
vt 0.495584 0.185049
vt 0.528729 0.157627
vt 0.295090 0.550579
vt 0.284884 0.517103
vt 0.381491 0.517103
vt 0.384080 0.541258
vt 0.664606 0.247993
vt 0.607397 0.225246
vt 0.579587 0.161064
vt 0.620145 0.160911
vt 0.566870 0.184354
vt 0.549853 0.157073
vt 0.463350 0.263334
vt 0.465392 0.240694
vt 0.473375 0.245777
vt 0.470565 0.260693
vt 0.963500 0.409404
vt 0.956910 0.462403
vt 0.938071 0.455038
vt 0.938071 0.414426
vt 0.587967 0.252656
vt 0.559146 0.258830
vt 0.652029 0.278080
vt 0.610920 0.259774
vt 0.264194 0.546197
vt 0.255607 0.528236
vt 0.527711 0.304827
vt 0.597420 0.336682
vt 0.591047 0.349545
vt 0.195603 0.557619
vt 0.193860 0.549932
vt 0.632594 0.343617
vt 0.617918 0.336608
vt 0.608173 0.334965
vt 0.199625 0.567897
vt 0.273863 0.571957
vt 0.320491 0.579963
vt 0.984369 0.420129
vt 0.981814 0.458836
vt 0.455197 0.256191
vt 0.455197 0.242783
vt 0.398137 0.563295
s 1
g piernaDer_body
usemtl body
f 9/1/9 10/2/10 4/3/4 2/4/2
f 22/5/22 11/6/11 8/7/8 18/8/18
f 11/9/11 12/10/12 6/11/6 8/12/8
f 21/13/21 9/1/9 2/4/2 20/14/20
f 17/15/17 19/16/19 5/17/5 7/18/7
f 18/19/18 20/20/20 2/21/2 4/22/4
f 24/23/24 16/24/16 9/1/9 21/13/21
f 14/25/14 15/26/15 12/10/12 11/9/11
f 23/27/23 14/28/14 11/6/11 22/5/22
f 16/24/16 13/29/13 10/2/10 9/1/9
f 1/30/1 3/31/3 13/29/13 16/24/16
f 17/32/17 7/33/7 14/28/14 23/27/23
f 7/34/7 5/35/5 15/26/15 14/25/14
f 19/36/19 1/30/1 16/24/16 24/23/24
f 5/35/5 19/36/19 24/23/24 15/26/15
f 3/37/3 17/32/17 23/27/23 13/38/13
f 13/38/13 23/27/23 22/5/22 10/39/10
f 15/26/15 24/23/24 21/13/21 12/10/12
f 8/40/8 6/41/6 20/20/20 18/19/18
f 3/42/3 1/43/1 19/16/19 17/15/17
f 12/10/12 21/13/21 20/14/20 6/11/6
f 10/39/10 22/5/22 18/8/18 4/44/4
f 25/45/25 27/46/27 28/47/28 26/48/26
f 49/49/49 31/50/31 32/51/32 50/52/50
f 31/53/31 29/54/29 30/55/30 32/56/32
f 60/57/60 58/58/58 42/59/42 45/60/45
f 49/61/49 51/62/51 29/63/29 31/64/31
f 52/65/52 54/66/54 36/67/36 30/55/30
f 36/67/36 40/68/40 39/69/39 35/70/35
f 50/52/50 53/71/53 34/72/34 28/47/28
f 30/55/30 36/67/36 35/70/35 32/56/32
f 28/47/28 34/72/34 33/73/33 26/48/26
f 55/74/55 56/75/56 37/76/37 38/77/38
f 34/72/34 38/78/38 37/79/37 33/73/33
f 54/66/54 56/80/56 40/68/40 36/67/36
f 53/71/53 55/81/55 38/82/38 34/72/34
f 57/83/57 41/84/41 42/59/42 58/58/58
f 47/85/47 44/86/44 43/87/43 46/88/46
f 45/60/45 42/59/42 41/84/41 48/89/48
f 59/90/59 57/91/57 44/92/44 47/93/47
f 51/62/51 59/90/59 47/93/47 29/63/29
f 26/48/26 45/60/45 48/89/48 25/45/25
f 29/54/29 47/85/47 46/88/46 30/55/30
f 52/65/52 60/57/60 45/60/45 26/48/26
f 30/55/30 46/88/46 60/57/60 52/65/52
f 25/94/25 48/95/48 59/90/59 51/62/51
f 48/95/48 41/96/41 57/91/57 59/90/59
f 44/86/44 57/83/57 58/58/58 43/87/43
f 35/97/35 39/98/39 55/81/55 53/71/53
f 33/73/33 37/79/37 56/80/56 54/66/54
f 39/99/39 40/100/40 56/75/56 55/74/55
f 32/51/32 35/97/35 53/71/53 50/52/50
f 26/48/26 33/73/33 54/66/54 52/65/52
f 27/101/27 25/94/25 51/62/51 49/61/49
f 46/88/46 43/87/43 58/58/58 60/57/60
f 27/102/27 49/49/49 50/52/50 28/47/28
f 69/103/69 70/104/70 64/105/64 62/106/62
f 82/107/82 71/108/71 68/109/68 78/110/78
f 71/111/71 72/112/72 66/113/66 68/114/68
f 81/115/81 69/103/69 62/106/62 80/116/80
f 77/117/77 79/118/79 65/119/65 67/120/67
f 78/121/78 80/122/80 62/123/62 64/124/64
f 84/125/84 76/126/76 69/103/69 81/115/81
f 74/127/74 75/128/75 72/112/72 71/111/71
f 83/129/83 74/130/74 71/108/71 82/107/82
f 76/126/76 73/131/73 70/104/70 69/103/69
f 61/132/61 63/133/63 73/131/73 76/126/76
f 77/134/77 67/135/67 74/130/74 83/129/83
f 67/136/67 65/137/65 75/128/75 74/127/74
f 79/138/79 61/132/61 76/126/76 84/125/84
f 65/137/65 79/138/79 84/125/84 75/128/75
f 63/139/63 77/134/77 83/129/83 73/140/73
f 73/140/73 83/129/83 82/107/82 70/141/70
f 75/128/75 84/125/84 81/115/81 72/112/72
f 68/142/68 66/143/66 80/122/80 78/121/78
f 63/144/63 61/145/61 79/118/79 77/117/77
f 72/112/72 81/115/81 80/116/80 66/113/66
f 70/141/70 82/107/82 78/110/78 64/146/64
