# Blender 5.0.1
# www.blender.org
mtllib torsoMasculino2.mtl
o torso
v -8.060096 2.969232 -11.815989
v -8.237425 3.657357 -11.545624
v -8.115461 2.965457 -11.582781
v -8.243958 3.672256 -11.343050
v -7.842846 2.963952 -11.522726
v -7.839080 3.692878 -11.324781
v -7.849782 2.967758 -11.887248
v -7.845056 3.689568 -11.638837
v -8.020114 3.689944 -11.321337
v -7.988038 2.974870 -11.882964
v -7.980320 2.968074 -11.520159
v -8.026089 3.683700 -11.635392
v -8.243320 3.413442 -11.334259
v -8.225816 3.458104 -11.710442
v -7.848237 3.491701 -11.806027
v -7.837975 3.453563 -11.266683
v -8.043936 3.485834 -11.802304
v -8.033674 3.447696 -11.262959
v -8.140796 3.211850 -11.497592
v -8.126918 3.245408 -11.796906
v -7.850022 3.272507 -11.899889
v -7.841044 3.216767 -11.428007
v -7.981192 3.269574 -11.897393
v -7.972214 3.213833 -11.425511
v -8.109550 2.964110 -11.709302
v -8.246112 3.676608 -11.462667
v -7.841906 3.696902 -11.473292
v -7.846491 2.962921 -11.714307
v -8.022940 3.692501 -11.469848
v -7.997175 2.967044 -11.711440
v -8.255036 3.416892 -11.528518
v -8.151842 3.216767 -11.656653
v -8.131638 2.674422 -11.812358
v -8.057048 2.967894 -11.814468
v -8.176004 2.708511 -11.567052
v -8.118488 2.968731 -11.581371
v -7.842780 2.421122 -11.519214
v -7.842785 2.970075 -11.519526
v -7.849858 2.421122 -11.891250
v -7.849755 2.972798 -11.885819
v -7.979999 2.970075 -11.516914
v -8.010359 2.561747 -11.901151
v -8.004501 2.561224 -11.466727
v -7.986882 2.972798 -11.878681
v -8.141525 2.822562 -11.580710
v -8.096175 2.826448 -11.825068
v -7.850914 2.666541 -11.946739
v -7.840940 2.618762 -11.422510
v -7.999020 2.756175 -11.910886
v -7.989635 2.681012 -11.417672
v -8.130391 2.899007 -11.601204
v -8.078303 2.899096 -11.824014
v -7.850608 2.821189 -11.930661
v -7.842842 2.828399 -11.522490
v -7.992897 2.869394 -11.891929
v -7.985357 2.836940 -11.495646
v -8.147771 2.698624 -11.678909
v -8.111147 2.965727 -11.709250
v -7.846227 2.971437 -11.700409
v -7.846319 2.421122 -11.705232
v -7.983440 2.971437 -11.697798
v -8.006425 2.564172 -11.694347
v -8.118799 2.824505 -11.700200
v -8.104437 2.898379 -11.717313
v -7.636909 2.969232 -11.824039
v -7.449425 3.657357 -11.560616
v -7.572713 2.965457 -11.593107
v -7.435190 3.672256 -11.358438
v -7.658047 3.689944 -11.328225
v -7.711463 2.974870 -11.888227
v -7.705374 2.968074 -11.525391
v -7.664022 3.683700 -11.642282
v -7.435493 3.413442 -11.349628
v -7.467294 3.458104 -11.724874
v -7.652537 3.485834 -11.809751
v -7.642275 3.447696 -11.270407
v -7.544157 3.211850 -11.508945
v -7.569410 3.245408 -11.807512
v -7.718853 3.269574 -11.902385
v -7.709875 3.213833 -11.430503
v -7.583433 2.964110 -11.719312
v -7.437588 3.676608 -11.478050
v -7.660872 3.692501 -11.476736
v -7.695808 2.967044 -11.717174
v -7.431175 3.416892 -11.544192
v -7.539168 3.216767 -11.668310
v -7.565281 2.674422 -11.823133
v -7.639897 2.967894 -11.822405
v -7.511616 2.708511 -11.579693
v -7.569634 2.968731 -11.591814
v -7.705572 2.970075 -11.522136
v -7.689849 2.561747 -11.907249
v -7.679178 2.561224 -11.472917
v -7.712455 2.972798 -11.883903
v -7.546589 2.822562 -11.592030
v -7.601201 2.826448 -11.834485
v -7.701551 2.756175 -11.916546
v -7.692167 2.681012 -11.423332
v -7.558495 2.899007 -11.612084
v -7.619020 2.899096 -11.832752
v -7.706949 2.869394 -11.897369
v -7.699409 2.836940 -11.501086
v -7.544083 2.698624 -11.690395
v -7.581835 2.965727 -11.719321
v -7.709013 2.971437 -11.703019
v -7.685915 2.564172 -11.700445
v -7.573844 2.824505 -11.710568
v -7.588847 2.898379 -11.727123
vn -0.5398 -0.7127 -0.4479
vn -0.6989 0.6358 -0.3274
vn -0.6247 -0.6998 0.3464
vn -0.6395 0.5745 0.5109
vn 0.0108 -0.8248 0.5654
vn 0.0119 0.7813 0.6241
vn -0.0132 -0.7177 -0.6963
vn -0.0084 0.8982 -0.4394
vn -0.0937 0.7564 0.6474
vn -0.2657 -0.6265 -0.7328
vn -0.1359 -0.7780 0.6134
vn -0.1662 0.8641 -0.4752
vn -0.7237 -0.2942 0.6243
vn -0.8150 0.1458 -0.5609
vn -0.0162 0.5281 -0.8490
vn 0.0187 -0.1727 0.9848
vn -0.2808 0.4530 -0.8462
vn -0.1172 -0.2073 0.9712
vn -0.7234 -0.4923 0.4840
vn -0.7819 -0.0749 -0.6189
vn -0.0187 0.1825 -0.9830
vn 0.0168 -0.4642 0.8856
vn -0.2766 0.1340 -0.9516
vn -0.1282 -0.4907 0.8619
vn -0.6702 -0.7314 -0.1260
vn -0.7133 0.6995 -0.0436
vn -0.0003 0.9999 -0.0133
vn -0.0003 -0.9999 -0.0159
vn -0.0617 0.9977 -0.0285
vn -0.0026 -0.9999 -0.0159
vn -0.9755 -0.2128 -0.0563
vn -0.9543 -0.2672 -0.1342
vn -0.8881 -0.2751 -0.3681
vn -0.5683 0.7194 -0.3994
vn -0.9290 -0.2328 0.2877
vn -0.6626 0.6249 0.4127
vn 0.0076 -0.9163 0.4004
vn 0.0130 0.7281 0.6853
vn -0.0100 -0.8510 -0.5251
vn -0.0119 0.7794 -0.6264
vn -0.1580 0.6850 0.7112
vn -0.6038 -0.4832 -0.6340
vn -0.5494 -0.5712 0.6099
vn -0.2776 0.7217 -0.6342
vn -0.8858 0.2594 0.3847
vn -0.8309 0.1622 -0.5322
vn -0.0190 -0.0505 -0.9985
vn 0.0189 -0.0955 0.9953
vn -0.3996 0.0573 -0.9149
vn -0.2409 0.1133 0.9639
vn -0.9315 0.1610 0.3262
vn -0.8086 0.1830 -0.5592
vn -0.0187 0.1692 -0.9854
vn 0.0184 0.2559 0.9665
vn -0.3850 0.1870 -0.9038
vn -0.1831 0.2718 0.9448
vn -0.9467 -0.3001 -0.1170
vn -0.7075 0.6867 -0.1672
vn 0.0001 1.0000 0.0075
vn -0.0001 -1.0000 -0.0028
vn -0.0188 0.9998 0.0029
vn -0.6664 -0.7456 0.0051
vn -0.9648 0.1785 -0.1934
vn -0.9647 0.1339 -0.2269
vn 0.5224 -0.7127 -0.4681
vn 0.6860 0.6358 -0.3538
vn 0.6375 -0.6998 0.3224
vn 0.6584 0.5745 0.4862
vn 0.1183 0.7564 0.6434
vn 0.2376 -0.6265 -0.7423
vn 0.1591 -0.7780 0.6078
vn 0.1480 0.8641 -0.4811
vn 0.7469 -0.2942 0.5963
vn 0.7931 0.1458 -0.5915
vn 0.2484 0.4530 -0.8562
vn 0.1541 -0.2073 0.9661
vn 0.7413 -0.4923 0.4561
vn 0.7578 -0.0749 -0.6482
vn 0.2402 0.1340 -0.9614
vn 0.1609 -0.4907 0.8564
vn 0.6650 -0.7314 -0.1514
vn 0.7112 0.6995 -0.0707
vn 0.0606 0.9977 -0.0308
vn 0.0020 -0.9999 -0.0160
vn 0.9726 -0.2128 -0.0934
vn 0.9485 -0.2672 -0.1704
vn 0.8735 -0.2751 -0.4016
vn 0.5527 0.7194 -0.4207
vn 0.9393 -0.2328 0.2521
vn 0.6779 0.6249 0.3872
vn 0.1849 0.6850 0.7047
vn 0.5792 -0.4832 -0.6565
vn 0.5722 -0.5712 0.5885
vn 0.2533 0.7217 -0.6443
vn 0.8998 0.2594 0.3508
vn 0.8101 0.1622 -0.5635
vn 0.3645 0.0573 -0.9294
vn 0.2774 0.1133 0.9541
vn 0.9432 0.1610 0.2906
vn 0.7867 0.1830 -0.5896
vn 0.3504 0.1870 -0.9178
vn 0.2189 0.2718 0.9371
vn 0.9416 -0.3001 -0.1529
vn 0.7006 0.6867 -0.1940
vn 0.0189 0.9998 0.0022
vn 0.6661 -0.7456 -0.0203
vn 0.9567 0.1785 -0.2299
vn 0.9554 0.1339 -0.2634
vt 0.361125 0.942770
vt 0.362027 0.974424
vt 0.332184 0.971211
vt 0.333257 0.936902
vt 0.812623 0.057759
vt 0.833482 0.029634
vt 0.837208 0.040008
vt 0.833686 0.069009
vt 0.800941 0.939916
vt 0.815578 0.939906
vt 0.808879 0.953678
vt 0.799335 0.962239
vt 0.863043 0.027372
vt 0.887186 0.027448
vt 0.886739 0.050195
vt 0.863293 0.048713
vt 0.855366 0.078789
vt 0.880572 0.085504
vt 0.781318 0.939908
vt 0.781313 0.962425
vt 0.385538 0.943463
vt 0.385538 0.974964
vt 0.385538 0.906221
vt 0.368055 0.905923
vt 0.831253 0.099086
vt 0.852057 0.108624
vt 0.867808 0.116220
vt 0.812759 0.093225
vt 0.343919 0.901435
vt 0.367585 0.870822
vt 0.348252 0.867084
vt 0.804125 0.128087
vt 0.818748 0.135200
vt 0.830652 0.141511
vt 0.846405 0.152044
vt 0.385538 0.870439
vt 0.788501 0.120240
vt 0.792932 0.084063
vt 0.788501 0.045599
vt 0.781323 0.914973
vt 0.799224 0.914981
vt 0.832073 0.013493
vt 0.862163 0.007687
vt 0.886923 0.007152
vt 0.816650 0.923461
vt 0.724170 0.624382
vt 0.722440 0.658040
vt 0.706862 0.658336
vt 0.698838 0.624382
vt 0.898944 0.948696
vt 0.899542 0.967036
vt 0.878739 0.968695
vt 0.875278 0.959274
vt 0.551544 0.415368
vt 0.542611 0.415835
vt 0.543759 0.400426
vt 0.553094 0.401172
vt 0.953258 0.365368
vt 0.927833 0.366989
vt 0.931784 0.349665
vt 0.953495 0.338441
vt 0.584042 0.105971
vt 0.584042 0.088109
vt 0.608177 0.088109
vt 0.607588 0.105969
vt 0.556362 0.386979
vt 0.542732 0.387995
vt 0.540546 0.370122
vt 0.561100 0.367274
vt 0.585846 0.122577
vt 0.599404 0.115276
vt 0.981225 0.364348
vt 0.981234 0.340144
vt 0.917999 0.948781
vt 0.917999 0.967291
vt 0.917999 0.890759
vt 0.917999 0.919669
vt 0.900078 0.927368
vt 0.896016 0.911378
vt 0.582376 0.406814
vt 0.562532 0.402585
vt 0.571111 0.385858
vt 0.596297 0.386485
vt 0.581454 0.365476
vt 0.614447 0.365147
vt 0.577394 0.423955
vt 0.561041 0.418928
vt 0.874538 0.948591
vt 0.870438 0.932300
vt 0.559757 0.434785
vt 0.550037 0.430923
vt 0.574895 0.438891
vt 0.981234 0.388552
vt 0.953308 0.395002
vt 0.569220 0.123830
vt 0.560496 0.105968
vt 0.560497 0.088109
vt 0.924065 0.381574
vt 0.540546 0.432483
vt 0.409950 0.942770
vt 0.437818 0.936902
vt 0.438891 0.971211
vt 0.409048 0.974424
vt 0.837702 0.303641
vt 0.858765 0.292390
vt 0.862287 0.321392
vt 0.858562 0.331766
vt 0.761694 0.939908
vt 0.763290 0.962231
vt 0.753751 0.953666
vt 0.747058 0.939891
vt 0.888122 0.334028
vt 0.888373 0.312687
vt 0.911819 0.311205
vt 0.912266 0.333952
vt 0.880445 0.282611
vt 0.905651 0.275896
vt 0.403020 0.905923
vt 0.856333 0.262314
vt 0.877137 0.252776
vt 0.892888 0.245180
vt 0.837839 0.268175
vt 0.427156 0.901435
vt 0.403490 0.870822
vt 0.422823 0.867084
vt 0.829204 0.233313
vt 0.843827 0.226200
vt 0.855731 0.219889
vt 0.871484 0.209356
vt 0.813580 0.241160
vt 0.818011 0.277337
vt 0.813580 0.315802
vt 0.763422 0.914973
vt 0.857153 0.347908
vt 0.887242 0.353713
vt 0.912002 0.354248
vt 0.745992 0.923446
vt 0.573693 0.485915
vt 0.548362 0.485915
vt 0.556385 0.451961
vt 0.571963 0.452257
vt 0.937054 0.948696
vt 0.960720 0.959274
vt 0.957259 0.968695
vt 0.936456 0.967036
vt 0.924744 0.070510
vt 0.938940 0.068960
vt 0.939686 0.078295
vt 0.924277 0.079443
vt 0.390888 0.619298
vt 0.390652 0.592370
vt 0.412363 0.603595
vt 0.416313 0.620919
vt 0.584042 0.070247
vt 0.607588 0.070249
vt 0.953133 0.065692
vt 0.972838 0.060954
vt 0.969990 0.081508
vt 0.952117 0.079323
vt 0.585846 0.053641
vt 0.599404 0.060942
vt 0.362921 0.618277
vt 0.362912 0.594073
vt 0.939982 0.911378
vt 0.935920 0.927368
vt 0.933298 0.039678
vt 0.953627 0.025757
vt 0.954254 0.050943
vt 0.937527 0.059522
vt 0.974964 0.007607
vt 0.974636 0.040601
vt 0.916157 0.044660
vt 0.921184 0.061013
vt 0.965560 0.932300
vt 0.961460 0.948591
vt 0.905327 0.062297
vt 0.909189 0.072017
vt 0.901221 0.047159
vt 0.362912 0.642481
vt 0.390838 0.648931
vt 0.569220 0.052388
vt 0.560496 0.070250
vt 0.420081 0.635504
vt 0.907628 0.081508
s 1
g torso_body
usemtl body
f 18/1/18 9/2/9 4/3/4 13/4/13
f 31/5/31 26/6/26 2/7/2 14/8/14
f 30/9/30 25/10/25 1/11/1 10/12/10
f 29/13/29 27/14/27 8/15/8 12/16/12
f 17/17/17 12/16/12 8/15/8 15/18/15
f 14/8/14 2/7/2 12/16/12 17/17/17
f 26/6/26 29/13/29 12/16/12 2/7/2
f 28/19/28 30/9/30 10/12/10 7/20/7
f 16/21/16 6/22/6 9/2/9 18/1/18
f 22/23/22 16/21/16 18/1/18 24/24/24
f 20/25/20 14/8/14 17/17/17 23/26/23
f 23/26/23 17/17/17 15/18/15 21/27/21
f 32/28/32 31/5/31 14/8/14 20/25/20
f 24/24/24 18/1/18 13/4/13 19/29/19
f 11/30/11 24/24/24 19/29/19 3/31/3
f 25/32/25 32/28/32 20/25/20 1/33/1
f 10/34/10 23/26/23 21/27/21 7/35/7
f 1/33/1 20/25/20 23/26/23 10/34/10
f 5/36/5 22/23/22 24/24/24 11/30/11
f 3/37/3 19/38/19 32/28/32 25/32/25
f 19/38/19 13/39/13 31/5/31 32/28/32
f 5/40/5 11/41/11 30/9/30 28/19/28
f 4/42/4 9/43/9 29/13/29 26/6/26
f 9/43/9 6/44/6 27/14/27 29/13/29
f 11/41/11 3/45/3 25/10/25 30/9/30
f 13/46/13 4/47/4 26/48/26 31/49/31
f 56/50/56 41/51/41 36/52/36 51/53/51
f 64/54/64 58/55/58 34/56/34 52/57/52
f 62/58/62 57/59/57 33/60/33 42/61/42
f 61/62/61 59/63/59 40/64/40 44/65/44
f 55/66/55 44/67/44 40/68/40 53/69/53
f 52/57/52 34/56/34 44/67/44 55/66/55
f 58/70/58 61/62/61 44/65/44 34/71/34
f 60/72/60 62/58/62 42/61/42 39/73/39
f 54/74/54 38/75/38 41/51/41 56/50/56
f 37/76/37 48/77/48 50/78/50 43/79/43
f 33/80/33 46/81/46 49/82/49 42/83/42
f 42/83/42 49/82/49 47/84/47 39/85/39
f 57/86/57 63/87/63 46/81/46 33/80/33
f 43/79/43 50/78/50 45/88/45 35/89/35
f 48/77/48 54/74/54 56/50/56 50/78/50
f 46/81/46 52/57/52 55/66/55 49/82/49
f 49/82/49 55/66/55 53/69/53 47/84/47
f 63/87/63 64/54/64 52/57/52 46/81/46
f 50/78/50 56/50/56 51/53/51 45/88/45
f 45/90/45 51/91/51 64/54/64 63/87/63
f 35/92/35 45/90/45 63/87/63 57/86/57
f 37/93/37 43/94/43 62/58/62 60/72/60
f 36/95/36 41/96/41 61/62/61 58/70/58
f 41/96/41 38/97/38 59/63/59 61/62/61
f 43/94/43 35/98/35 57/59/57 62/58/62
f 51/91/51 36/99/36 58/55/58 64/54/64
f 76/100/76 73/101/73 68/102/68 69/103/69
f 85/104/85 74/105/74 66/106/66 82/107/82
f 84/108/84 70/109/70 65/110/65 81/111/81
f 83/112/83 72/113/72 8/114/8 27/115/27
f 75/116/75 15/117/15 8/114/8 72/113/72
f 74/105/74 75/116/75 72/113/72 66/106/66
f 82/107/82 66/106/66 72/113/72 83/112/83
f 28/19/28 7/20/7 70/109/70 84/108/84
f 16/21/16 76/100/76 69/103/69 6/22/6
f 22/23/22 80/118/80 76/100/76 16/21/16
f 78/119/78 79/120/79 75/116/75 74/105/74
f 79/120/79 21/121/21 15/117/15 75/116/75
f 86/122/86 78/119/78 74/105/74 85/104/85
f 80/118/80 77/123/77 73/101/73 76/100/76
f 71/124/71 67/125/67 77/123/77 80/118/80
f 81/126/81 65/127/65 78/119/78 86/122/86
f 70/128/70 7/129/7 21/121/21 79/120/79
f 65/127/65 70/128/70 79/120/79 78/119/78
f 5/36/5 71/124/71 80/118/80 22/23/22
f 67/130/67 81/126/81 86/122/86 77/131/77
f 77/131/77 86/122/86 85/104/85 73/132/73
f 5/40/5 28/19/28 84/108/84 71/133/71
f 68/134/68 82/107/82 83/112/83 69/135/69
f 69/135/69 83/112/83 27/115/27 6/136/6
f 71/133/71 84/108/84 81/111/81 67/137/67
f 73/138/73 85/139/85 82/140/82 68/141/68
f 102/142/102 99/143/99 90/144/90 91/145/91
f 108/146/108 100/147/100 88/148/88 104/149/104
f 106/150/106 92/151/92 87/152/87 103/153/103
f 105/154/105 94/155/94 40/64/40 59/63/59
f 101/156/101 53/157/53 40/158/40 94/159/94
f 100/147/100 101/156/101 94/159/94 88/148/88
f 104/160/104 88/161/88 94/155/94 105/154/105
f 60/162/60 39/163/39 92/151/92 106/150/106
f 54/74/54 102/142/102 91/145/91 38/75/38
f 37/76/37 93/164/93 98/165/98 48/77/48
f 87/166/87 92/167/92 97/168/97 96/169/96
f 92/167/92 39/170/39 47/171/47 97/168/97
f 103/172/103 87/166/87 96/169/96 107/173/107
f 93/164/93 89/174/89 95/175/95 98/165/98
f 48/77/48 98/165/98 102/142/102 54/74/54
f 96/169/96 97/168/97 101/156/101 100/147/100
f 97/168/97 47/171/47 53/157/53 101/156/101
f 107/173/107 96/169/96 100/147/100 108/146/108
f 98/165/98 95/175/95 99/143/99 102/142/102
f 95/176/95 107/173/107 108/146/108 99/177/99
f 89/178/89 103/172/103 107/173/107 95/176/95
f 37/179/37 60/162/60 106/150/106 93/180/93
f 90/181/90 104/160/104 105/154/105 91/182/91
f 91/182/91 105/154/105 59/63/59 38/97/38
f 93/180/93 106/150/106 103/153/103 89/183/89
f 99/177/99 108/146/108 104/149/104 90/184/90
