# Blender 5.0.1
# www.blender.org
mtllib brazoDerFemenino.mtl
o brazoDer
v -3.845883 3.423424 -11.342448
v -3.816696 3.511769 -11.443919
v -3.831604 3.458855 -11.548521
v -3.884110 3.336180 -11.547917
v -3.881387 3.331383 -11.339808
v -3.902845 3.284922 -11.448891
v -3.729088 2.957751 -11.392636
v -3.702485 2.961613 -11.444080
v -3.730776 2.957210 -11.507810
v -3.805480 2.945755 -11.508968
v -3.792986 2.946381 -11.390385
v -3.830729 2.940607 -11.447587
v -3.701586 2.883193 -11.382030
v -3.672807 2.887316 -11.443203
v -3.703594 2.882549 -11.518986
v -3.789007 2.869284 -11.520688
v -3.777570 2.869671 -11.379352
v -3.832793 2.861110 -11.447372
v -3.650155 2.325534 -11.404308
v -3.629088 2.328592 -11.445045
v -3.651492 2.325105 -11.495512
v -3.703073 2.317469 -11.497624
v -3.700754 2.316530 -11.402526
v -3.717117 2.314176 -11.447823
v -3.827478 2.901561 -11.447480
v -3.797244 2.907520 -11.514828
v -3.717185 2.919879 -11.513398
v -3.686218 2.924699 -11.443642
v -3.715337 2.920472 -11.387333
v -3.785278 2.908026 -11.384869
v -3.742954 2.598343 -11.390939
v -3.776110 2.593318 -11.447598
v -3.679662 2.609606 -11.393168
v -3.681335 2.609069 -11.507249
v -3.653311 2.613431 -11.444124
v -3.749915 2.598558 -11.509148
v -3.721854 2.457437 -11.396732
v -3.664908 2.467570 -11.398739
v -3.666413 2.467088 -11.501381
v -3.751115 2.453009 -11.447710
v -3.641200 2.471012 -11.444585
v -3.726494 2.458014 -11.503386
v -3.815382 2.731286 -11.447485
v -3.665423 2.755850 -11.443664
v -3.773335 2.739103 -11.514909
v -3.764054 2.739250 -11.385145
v -3.694416 2.751642 -11.387599
v -3.696256 2.751051 -11.513118
v -3.737111 3.081695 -11.372021
v -3.812775 3.068230 -11.379643
v -3.739110 3.081053 -11.525502
v -3.696034 3.089334 -11.443226
v -3.860202 3.061266 -11.447378
v -3.827359 3.067259 -11.519955
v -3.827337 3.201091 -11.366828
v -3.701261 3.223813 -11.442207
v -3.844217 3.199852 -11.533085
v -3.737636 3.217053 -11.351452
v -3.740006 3.216293 -11.538484
v -3.887512 3.192128 -11.447129
v -3.685501 2.218115 -11.512811
v -3.639631 2.226274 -11.510962
v -3.638080 2.226771 -11.381304
v -3.682573 2.217695 -11.447679
v -3.616680 2.232487 -11.444456
v -3.684675 2.218310 -11.379234
v -3.693276 2.271338 -11.493573
v -3.643901 2.278545 -11.491499
v -3.642679 2.278937 -11.408117
v -3.703392 2.268636 -11.447900
v -3.623419 2.281733 -11.445361
v -3.691749 2.270245 -11.406487
v -3.647554 2.050548 -11.540909
v -3.610750 2.060082 -11.359019
v -3.588933 2.063248 -11.445425
v -3.644626 2.050128 -11.448647
v -3.647146 2.053293 -11.356950
v -3.611883 2.057034 -11.539062
v -3.633726 2.190259 -11.552626
v -3.675426 2.161897 -11.364055
v -3.673323 2.161282 -11.448002
v -3.607431 2.176074 -11.444779
v -3.628830 2.170358 -11.366124
v -3.679596 2.182100 -11.554474
v -3.663867 2.086166 -11.547046
v -3.617997 2.094325 -11.545197
v -3.619999 2.116495 -11.358696
v -3.666595 2.108034 -11.356627
v -3.598182 2.119661 -11.445102
v -3.664074 2.104869 -11.448325
v -3.639642 2.011849 -11.357272
v -3.584655 2.016501 -11.445747
v -3.637401 2.008481 -11.448971
v -3.606663 2.015209 -11.359342
v -3.608053 2.012269 -11.539384
v -3.640283 2.009149 -11.541232
v -3.671298 2.144136 -11.588587
v -3.625581 2.153226 -11.587430
v -3.616916 2.100380 -11.569231
v -3.662634 2.091290 -11.570388
v -3.634487 2.044523 -11.633952
v -3.622969 2.046813 -11.633660
v -3.622160 2.041882 -11.615193
v -3.633679 2.039591 -11.615485
v -3.632762 1.972005 -11.365121
v -3.583549 1.971005 -11.445998
v -3.631047 1.968728 -11.448944
v -3.603680 1.971937 -11.367012
v -3.605224 1.969397 -11.531592
v -3.633603 1.969612 -11.533282
v -3.633239 1.926585 -11.387209
v -3.592016 1.925739 -11.452955
v -3.631844 1.923922 -11.455350
v -3.608380 1.926496 -11.388746
v -3.609636 1.924432 -11.522536
v -3.633922 1.924640 -11.523910
v -3.632991 1.884997 -11.411364
v -3.601328 1.884338 -11.459978
v -3.631960 1.883028 -11.461749
v -3.613428 1.884898 -11.412501
v -3.614357 1.883372 -11.511428
v -3.633497 1.883558 -11.512444
v -3.634380 1.857646 -11.434785
v -3.611098 1.857135 -11.464476
v -3.633750 1.856444 -11.465558
v -3.618488 1.857476 -11.435479
v -3.619055 1.856544 -11.495899
v -3.634689 1.856768 -11.496519
v -3.652543 2.071374 -11.582258
v -3.655281 2.088068 -11.621271
v -3.620097 2.095361 -11.621223
v -3.617360 2.078667 -11.582211
v -3.840494 3.285851 -11.360421
v -3.772773 3.452895 -11.441320
v -3.858572 3.283996 -11.539613
v -3.758701 3.331393 -11.353540
v -3.760749 3.329861 -11.544973
v -3.899446 3.281984 -11.447005
vn -0.3219 0.5023 0.8025
vn -0.0404 0.9942 0.1000
vn -0.1850 0.6180 -0.7641
vn -0.7251 0.0143 -0.6885
vn -0.6861 -0.0884 0.7222
vn -0.9785 -0.1974 -0.0602
vn 0.4842 0.0968 0.8696
vn 0.9807 0.1939 0.0260
vn 0.5039 0.1100 -0.8567
vn -0.5690 -0.0935 -0.8170
vn -0.4853 -0.0762 0.8710
vn -0.9816 -0.1661 0.0941
vn 0.5462 0.1399 0.8259
vn 0.9787 0.2030 0.0291
vn 0.5621 0.1426 -0.8147
vn -0.4653 0.0015 -0.8852
vn -0.3988 0.0073 0.9170
vn -0.9954 -0.0656 0.0693
vn 0.5241 0.0168 0.8515
vn 0.9943 0.1023 0.0305
vn 0.5491 0.0201 -0.8355
vn -0.5488 -0.1731 -0.8179
vn -0.5225 -0.1619 0.8371
vn -0.9723 -0.2306 0.0373
vn -0.9952 -0.0442 0.0873
vn -0.5342 0.0609 -0.8431
vn 0.4919 0.2931 -0.8198
vn 0.9225 0.3849 0.0270
vn 0.4762 0.2847 0.8320
vn -0.4557 0.0685 0.8875
vn -0.4460 -0.1157 0.8875
vn -0.9774 -0.2022 0.0625
vn 0.5345 0.0224 0.8449
vn 0.5558 0.0248 -0.8309
vn 0.9960 0.0846 0.0297
vn -0.4997 -0.1302 -0.8563
vn -0.4846 -0.1184 0.8667
vn 0.5581 0.0252 -0.8294
vn -0.9804 -0.1905 0.0505
vn -0.5267 -0.1304 -0.8400
vn -0.9812 -0.1817 0.0648
vn 0.9975 0.0648 0.0291
vn -0.4819 -0.1165 -0.8685
vn -0.4194 -0.1027 0.9020
vn 0.5333 0.0101 0.8459
vn 0.5521 0.0117 -0.8337
vn 0.4832 -0.0930 0.8705
vn -0.4814 -0.1656 0.8607
vn 0.5118 -0.0715 -0.8561
vn 0.9997 -0.0192 0.0149
vn -0.9740 -0.2073 0.0912
vn -0.5399 -0.1732 -0.8237
vn -0.4890 -0.1250 0.8633
vn 0.9918 0.1274 0.0075
vn -0.5279 -0.1414 -0.8374
vn 0.5226 0.0268 0.8521
vn 0.5713 0.0317 -0.8202
vn -0.9801 -0.1778 0.0886
vn -0.8308 0.1843 -0.5252
vn 0.5965 0.4619 -0.6564
vn 0.5211 0.3419 0.7820
vn -0.9782 -0.2077 0.0062
vn 0.9753 0.2198 0.0200
vn -0.7088 0.1288 0.6935
vn -0.6707 -0.1049 -0.7342
vn 0.6100 0.1650 -0.7750
vn 0.5952 0.2037 0.7773
vn -0.9677 -0.2514 0.0205
vn 0.9868 0.1611 0.0147
vn -0.6899 -0.0663 0.7209
vn -0.6420 -0.2539 -0.7234
vn 0.6382 0.0785 0.7658
vn 0.9926 0.1217 0.0039
vn -0.9654 -0.2604 0.0110
vn -0.6379 -0.1773 0.7494
vn 0.6670 0.0382 -0.7441
vn 0.5977 0.5818 -0.5516
vn -0.7008 0.0324 0.7127
vn -0.9862 -0.1657 0.0025
vn 0.9798 0.1988 0.0227
vn 0.5743 0.2340 0.7845
vn -0.8032 0.3551 -0.4782
vn -0.8096 -0.5041 -0.3008
vn 0.8644 -0.1587 -0.4771
vn 0.5964 0.1440 0.7897
vn -0.6853 -0.1253 0.7174
vn 0.9871 0.1594 0.0125
vn -0.9676 -0.2522 0.0093
vn -0.6451 -0.1794 0.7427
vn 0.9984 0.0565 0.0013
vn -0.9859 -0.1670 0.0060
vn 0.6250 -0.0218 0.7803
vn 0.6210 -0.0196 -0.7835
vn -0.6500 -0.1740 -0.7398
vn -0.7509 0.2546 -0.6094
vn 0.6550 0.5119 -0.5558
vn 0.9471 -0.2650 0.1811
vn -0.8018 -0.5933 0.0716
vn -0.3894 -0.4534 -0.8017
vn 0.5751 -0.3030 -0.7599
vn 0.7300 -0.6580 0.1846
vn -0.3906 -0.9017 0.1855
vn -0.6220 -0.2954 0.7251
vn 0.9966 -0.0809 0.0149
vn -0.9975 -0.0704 0.0040
vn 0.6353 -0.2295 0.7374
vn 0.6581 -0.1456 -0.7388
vn -0.6613 -0.2064 -0.7212
vn -0.7118 -0.3260 0.6222
vn 0.9795 -0.2014 0.0018
vn -0.9999 0.0095 0.0046
vn 0.6078 -0.4173 0.6756
vn 0.6196 -0.2398 -0.7474
vn -0.6983 -0.1683 -0.6958
vn -0.7068 -0.4033 0.5813
vn 0.9614 -0.2752 -0.0011
vn -0.9994 0.0347 0.0044
vn 0.5863 -0.5090 0.6302
vn 0.5920 -0.3666 -0.7178
vn -0.6793 -0.2805 -0.6781
vn -0.8814 -0.2791 0.3811
vn 0.9422 -0.3341 -0.0260
vn -0.9978 0.0662 0.0071
vn 0.6404 -0.5605 0.5252
vn 0.6425 -0.4667 -0.6078
vn -0.8503 -0.2385 -0.4692
vn -0.5829 -0.6324 0.5101
vn -0.6945 0.0373 -0.7185
vn 0.6551 0.2844 -0.7000
vn 0.7851 -0.3601 0.5040
vn -0.3530 -0.2532 0.9007
vn 0.8718 0.4810 0.0923
vn -0.4656 -0.2112 -0.8594
vn 0.5821 0.1873 0.7912
vn 0.5825 0.1665 -0.7956
vn -0.8782 -0.4662 0.1069
vt 0.323168 0.345355
vt 0.344287 0.391841
vt 0.309895 0.404257
vt 0.299303 0.360564
vt 0.275534 0.367173
vt 0.278973 0.407023
vt 0.242497 0.406456
vt 0.249234 0.363829
vt 0.223094 0.349419
vt 0.203337 0.395617
vt 0.168760 0.380602
vt 0.198900 0.326638
vt 0.350854 0.313673
vt 0.384632 0.374504
vt 0.201104 0.412653
vt 0.199822 0.430296
vt 0.150935 0.417078
vt 0.160510 0.398223
vt 0.242079 0.422901
vt 0.242172 0.438970
vt 0.311115 0.421067
vt 0.311608 0.437479
vt 0.280079 0.441052
vt 0.279579 0.424534
vt 0.392732 0.393751
vt 0.403227 0.413345
vt 0.350424 0.428711
vt 0.348054 0.410228
vt 0.394799 0.645269
vt 0.379249 0.723750
vt 0.346861 0.718898
vt 0.354895 0.641571
vt 0.312518 0.717313
vt 0.316184 0.639732
vt 0.281803 0.639744
vt 0.281349 0.717447
vt 0.243854 0.717113
vt 0.240460 0.639757
vt 0.199827 0.640710
vt 0.209083 0.717524
vt 0.174670 0.724067
vt 0.158946 0.645871
vt 0.318301 0.493350
vt 0.318572 0.564130
vt 0.281949 0.564685
vt 0.281464 0.494988
vt 0.237364 0.494424
vt 0.237923 0.564483
vt 0.193354 0.564057
vt 0.191460 0.490383
vt 0.148400 0.567225
vt 0.141272 0.486638
vt 0.360634 0.490137
vt 0.360131 0.564490
vt 0.412752 0.485121
vt 0.404409 0.566126
vt 0.290566 0.281585
vt 0.308527 0.316795
vt 0.299334 0.330905
vt 0.276966 0.348325
vt 0.250494 0.343505
vt 0.235891 0.321613
vt 0.247236 0.286226
vt 0.297319 0.308852
vt 0.292227 0.324137
vt 0.270882 0.336601
vt 0.253680 0.327671
vt 0.247123 0.308811
vt 0.269347 0.276677
vt 0.895117 0.469147
vt 0.907541 0.473377
vt 0.895474 0.486979
vt 0.885987 0.478297
vt 0.612699 0.841389
vt 0.615510 0.854617
vt 0.602160 0.855580
vt 0.600108 0.843490
vt 0.630615 0.824361
vt 0.643186 0.827818
vt 0.630513 0.840289
vt 0.622771 0.832460
vt 0.882652 0.501120
vt 0.878814 0.487762
vt 0.635021 0.811702
vt 0.647797 0.816384
vt 0.281034 0.743518
vt 0.246567 0.743060
vt 0.343540 0.744830
vt 0.309655 0.743259
vt 0.372806 0.750109
vt 0.212526 0.743425
vt 0.181153 0.750109
vt 0.914866 0.504134
vt 0.924857 0.513058
vt 0.907214 0.531360
vt 0.897205 0.522531
vt 0.649096 0.857750
vt 0.659579 0.865559
vt 0.645135 0.891089
vt 0.633885 0.889121
vt 0.936246 0.486464
vt 0.941802 0.493916
vt 0.664093 0.839274
vt 0.673427 0.846744
vt 0.670582 0.828399
vt 0.679698 0.838783
vt 0.643472 0.901921
vt 0.635489 0.905135
vt 0.905185 0.495576
vt 0.889448 0.512810
vt 0.639523 0.849324
vt 0.614347 0.869706
vt 0.921385 0.470317
vt 0.654303 0.833314
vt 0.659756 0.822081
vt 0.602096 0.868620
vt 0.624635 0.891782
vt 0.612564 0.882101
vt 0.931969 0.519360
vt 0.914327 0.537651
vt 0.667973 0.871288
vt 0.655701 0.894710
vt 0.948886 0.500202
vt 0.680691 0.852594
vt 0.686783 0.845794
vt 0.653105 0.903458
vt 0.950171 0.471148
vt 0.961081 0.475720
vt 0.958600 0.480332
vt 0.945945 0.481794
vt 0.629372 0.906035
vt 0.934228 0.469147
vt 0.939810 0.480940
vt 0.601230 0.880195
vt 0.608007 0.902710
vt 0.611305 0.903483
vt 0.611129 0.907287
vt 0.605235 0.904450
vt 0.619492 0.897689
vt 0.609209 0.895117
vt 0.623604 0.906251
vt 0.600933 0.894494
vt 0.686526 0.859303
vt 0.676293 0.876455
vt 0.692799 0.854053
vt 0.665203 0.896869
vt 0.662990 0.904769
vt 0.938669 0.525418
vt 0.922546 0.542126
vt 0.954097 0.507889
vt 0.692868 0.868158
vt 0.683786 0.882950
vt 0.699138 0.865014
vt 0.674960 0.899951
vt 0.673970 0.906894
vt 0.947274 0.530778
vt 0.934190 0.544403
vt 0.959853 0.516536
vt 0.955240 0.535562
vt 0.945576 0.545650
vt 0.690896 0.889224
vt 0.684224 0.901962
vt 0.964553 0.525037
vt 0.697874 0.877963
vt 0.703073 0.876314
vt 0.684274 0.907287
vt 0.705384 0.885311
vt 0.700932 0.886428
vt 0.691734 0.902252
vt 0.692074 0.906794
vt 0.960373 0.538758
vt 0.954474 0.544929
vt 0.696023 0.893749
vt 0.966069 0.532329
vt 0.269417 0.295890
vt 0.275360 0.309448
vt 0.277076 0.321969
vt 0.270560 0.328221
vt 0.263938 0.321584
vt 0.262818 0.310613
vt 0.320136 0.008415
vt 0.351728 0.009322
vt 0.362915 0.038285
vt 0.341971 0.060060
vt 0.309432 0.060060
vt 0.301746 0.038573
s 1
g brazoDer_cuerpo
usemtl cuerpo
f 50/1/48 11/2/11 7/3/7 49/4/47
f 52/5/50 8/6/8 9/7/9 51/8/49
f 54/9/52 10/10/10 12/11/12 53/12/51
f 51/8/49 9/7/9 10/10/10 54/9/52
f 49/4/47 7/3/7 8/6/8 52/5/50
f 53/13/51 12/14/12 11/2/11 50/1/48
f 26/15/26 16/16/16 18/17/18 25/18/25
f 27/19/27 15/20/15 16/16/16 26/15/26
f 29/21/29 13/22/13 14/23/14 28/24/28
f 25/25/25 18/26/18 17/27/17 30/28/30
f 30/28/30 17/27/17 13/22/13 29/21/29
f 28/24/28 14/23/14 15/20/15 27/19/27
f 40/29/39 24/30/24 23/31/23 37/32/37
f 37/32/37 23/31/23 19/33/19 38/34/33
f 41/35/35 20/36/20 21/37/21 39/38/38
f 42/39/40 22/40/22 24/41/24 40/42/39
f 39/38/38 21/37/21 22/40/22 42/39/40
f 38/34/33 19/33/19 20/36/20 41/35/35
f 8/6/8 28/24/28 27/19/27 9/7/9
f 11/2/11 30/28/30 29/21/29 7/3/7
f 12/14/12 25/25/25 30/28/30 11/2/11
f 7/3/7 29/21/29 28/24/28 8/6/8
f 9/7/9 27/19/27 26/15/26 10/10/10
f 10/10/10 26/15/26 25/18/25 12/11/12
f 47/43/45 33/44/33 35/45/35 44/46/42
f 48/47/46 34/48/34 36/49/36 45/50/43
f 45/50/43 36/49/36 32/51/32 43/52/41
f 44/46/42 35/45/35 34/48/34 48/47/46
f 46/53/44 31/54/31 33/44/33 47/43/45
f 43/55/41 32/56/32 31/54/31 46/53/44
f 33/44/33 38/34/33 41/35/35 35/45/35
f 34/48/34 39/38/38 42/39/40 36/49/36
f 36/49/36 42/39/40 40/42/39 32/51/32
f 35/45/35 41/35/35 39/38/38 34/48/34
f 31/54/31 37/32/37 38/34/33 33/44/33
f 32/56/32 40/29/39 37/32/37 31/54/31
f 18/26/18 43/55/41 46/53/44 17/27/17
f 17/27/17 46/53/44 47/43/45 13/22/13
f 14/23/14 44/46/42 48/47/46 15/20/15
f 16/16/16 45/50/43 43/52/41 18/17/18
f 15/20/15 48/47/46 45/50/43 16/16/16
f 13/22/13 47/43/45 44/46/42 14/23/14
f 60/57/58 53/13/51 50/1/48 55/58/53
f 58/59/56 49/4/47 52/5/50 56/60/54
f 59/61/57 51/8/49 54/9/52 57/62/55
f 57/62/55 54/9/52 53/12/51 60/63/58
f 56/60/54 52/5/50 51/8/49 59/61/57
f 55/58/53 50/1/48 49/4/47 58/59/56
f 133/64/131 55/58/53 58/59/56 136/65/134
f 134/66/132 56/60/54 59/61/57 137/67/135
f 135/68/133 57/62/55 60/63/58 138/69/136
f 137/67/135 59/61/57 57/62/55 135/68/133
f 136/65/134 58/59/56 56/60/54 134/66/132
f 138/69/136 60/57/58 55/58/53 133/64/131
f 67/70/65 61/71/59 64/72/62 70/73/68
f 68/74/66 62/75/60 61/76/59 67/77/65
f 69/78/67 63/79/61 65/80/63 71/81/69
f 70/73/68 64/72/62 66/82/64 72/83/70
f 72/84/70 66/85/64 63/79/61 69/78/67
f 71/81/69 65/80/63 62/75/60 68/74/66
f 20/36/20 71/86/69 68/87/66 21/37/21
f 23/31/23 72/88/70 69/89/67 19/33/19
f 24/30/24 70/90/68 72/88/70 23/31/23
f 19/33/19 69/89/67 71/86/69 20/36/20
f 21/37/21 68/87/66 67/91/65 22/40/22
f 22/40/22 67/91/65 70/92/68 24/41/24
f 90/93/88 76/94/74 77/95/75 88/96/86
f 89/97/87 75/98/73 78/99/76 86/100/84
f 85/101/83 73/102/71 76/94/74 90/93/88
f 87/103/85 74/104/72 75/98/73 89/97/87
f 88/105/86 77/106/75 74/104/72 87/103/85
f 86/100/84 78/99/76 73/107/71 85/108/83
f 64/72/62 81/109/79 80/110/78 66/82/64
f 65/80/63 82/111/80 79/112/77 62/75/60
f 61/71/59 84/113/82 81/109/79 64/72/62
f 63/79/61 83/114/81 82/111/80 65/80/63
f 66/85/64 80/115/78 83/114/81 63/79/61
f 62/75/60 79/112/77 84/116/82 61/76/59
f 81/109/79 90/93/88 88/96/86 80/110/78
f 82/111/80 89/97/87 86/100/84 79/112/77
f 84/113/82 85/101/83 90/93/88 81/109/79
f 83/114/81 87/103/85 89/97/87 82/111/80
f 80/115/78 88/105/86 87/103/85 83/114/81
f 86/100/84 99/117/97 98/118/96 79/112/77
f 76/94/74 93/119/91 91/120/89 77/95/75
f 75/98/73 92/121/90 95/122/93 78/99/76
f 73/102/71 96/123/94 93/119/91 76/94/74
f 74/104/72 94/124/92 92/121/90 75/98/73
f 77/106/75 91/125/89 94/124/92 74/104/72
f 78/99/76 95/122/93 96/126/94 73/107/71
f 130/127/128 101/128/99 104/129/102 129/130/127
f 85/108/83 100/131/98 99/117/97 86/100/84
f 84/113/82 97/132/95 100/133/98 85/101/83
f 79/112/77 98/118/96 97/134/95 84/116/82
f 102/135/100 103/136/101 104/137/102 101/138/99
f 132/139/130 103/136/101 102/135/100 131/140/129
f 129/141/127 104/137/102 103/136/101 132/139/130
f 131/140/129 102/135/100 101/138/99 130/142/128
f 94/124/92 108/143/106 106/144/104 92/121/90
f 91/125/89 105/145/103 108/143/106 94/124/92
f 95/122/93 109/146/107 110/147/108 96/126/94
f 93/119/91 107/148/105 105/149/103 91/120/89
f 92/121/90 106/144/104 109/146/107 95/122/93
f 96/123/94 110/150/108 107/148/105 93/119/91
f 108/143/106 114/151/112 112/152/110 106/144/104
f 105/145/103 111/153/109 114/151/112 108/143/106
f 109/146/107 115/154/113 116/155/114 110/147/108
f 107/148/105 113/156/111 111/157/109 105/149/103
f 106/144/104 112/152/110 115/154/113 109/146/107
f 110/150/108 116/158/114 113/156/111 107/148/105
f 113/156/111 119/159/117 117/160/115 111/157/109
f 112/152/110 118/161/116 121/162/119 115/154/113
f 116/158/114 122/163/120 119/159/117 113/156/111
f 114/151/112 120/164/118 118/161/116 112/152/110
f 111/153/109 117/165/115 120/164/118 114/151/112
f 115/154/113 121/162/119 122/166/120 116/155/114
f 117/165/115 123/167/121 126/168/124 120/164/118
f 121/162/119 127/169/125 128/170/126 122/166/120
f 119/159/117 125/171/123 123/172/121 117/160/115
f 118/161/116 124/173/122 127/169/125 121/162/119
f 122/163/120 128/174/126 125/171/123 119/159/117
f 120/164/118 126/168/124 124/173/122 118/161/116
f 98/118/96 131/140/129 130/142/128 97/134/95
f 100/131/98 129/141/127 132/139/130 99/117/97
f 99/117/97 132/139/130 131/140/129 98/118/96
f 97/132/95 130/127/128 129/130/127 100/133/98
f 6/175/6 138/69/136 133/64/131 5/176/5
f 1/177/1 136/65/134 134/66/132 2/178/2
f 3/179/3 137/67/135 135/68/133 4/180/4
f 4/180/4 135/68/133 138/69/136 6/175/6
f 2/178/2 134/66/132 137/67/135 3/179/3
f 5/176/5 133/64/131 136/65/134 1/177/1
f 2/181/2 3/182/3 4/183/4 6/184/6 5/185/5 1/186/1
